<svg width="342" height="296" viewBox="0 0 342 296" fill="none" xmlns="http://www.w3.org/2000/svg">
<g clip-path="url(#clip0)">
<path opacity="0.1" d="M181.479 296C243.912 296 294.525 287.822 294.525 277.733C294.525 267.645 243.912 259.466 181.479 259.466C119.046 259.466 68.4338 267.645 68.4338 277.733C68.4338 287.822 119.046 296 181.479 296Z" fill="black"/>
<path opacity="0.1" d="M169.274 235.129C192.887 222.01 219.859 217.822 246.218 223.449C283.573 231.42 330.515 228.295 339.596 166.8C355.124 61.7714 290.047 34.0501 290.047 34.0501C290.047 34.0501 246.77 30.4115 221.179 16.5582C184.828 -3.11829 143.279 -5.63136 106.744 11.0228C83.3815 21.6619 64.1436 36.4857 60.8533 56.8227C51.6626 113.719 66.7574 145.064 38.52 163.638C10.2825 182.211 34.4136 233.203 56.0705 231.439C77.7274 229.675 126.637 210.308 145.698 232.738C152.473 240.683 161.039 239.705 169.274 235.129Z" fill="black"/>
<path opacity="0.1" d="M313.906 271.194C323.043 271.194 330.449 268.551 330.449 265.29C330.449 262.029 323.043 259.385 313.906 259.385C304.769 259.385 297.363 262.029 297.363 265.29C297.363 268.551 304.769 271.194 313.906 271.194Z" fill="black"/>
<path d="M313.237 266.127C313.237 266.127 317.648 251.056 312.406 239.963C310.173 235.325 309.5 230.084 310.487 225.029C310.974 222.632 311.679 220.285 312.594 218.017" stroke="#535461" stroke-width="2" stroke-miterlimit="10"/>
<path d="M309.329 211.009C309.329 212.855 312.66 218.213 312.66 218.213C312.66 218.213 315.99 212.858 315.99 211.009C315.99 210.122 315.639 209.271 315.014 208.644C314.389 208.017 313.542 207.664 312.658 207.664C311.774 207.664 310.926 208.017 310.301 208.644C309.676 209.271 309.325 210.122 309.325 211.009H309.329Z" fill="#662C91"/>
<path d="M303.822 221.243C304.822 222.792 310.52 225.472 310.52 225.472C310.52 225.472 310.417 219.158 309.417 217.608C308.937 216.863 308.182 216.341 307.318 216.156C306.454 215.97 305.552 216.137 304.811 216.619C304.069 217.101 303.549 217.859 303.364 218.726C303.179 219.593 303.345 220.498 303.826 221.243H303.822Z" fill="#662C91"/>
<path d="M304.061 238.723C305.704 239.554 311.969 238.982 311.969 238.982C311.969 238.982 308.704 233.583 307.061 232.753C306.67 232.555 306.245 232.436 305.808 232.404C305.372 232.371 304.934 232.425 304.518 232.562C304.103 232.7 303.719 232.918 303.387 233.204C303.056 233.491 302.784 233.84 302.587 234.232C302.39 234.624 302.272 235.052 302.239 235.489C302.207 235.927 302.26 236.367 302.397 236.784C302.534 237.201 302.751 237.587 303.037 237.92C303.322 238.253 303.67 238.526 304.061 238.723Z" fill="#662C91"/>
<path d="M307.211 251.912C308.682 253.019 314.961 253.507 314.961 253.507C314.961 253.507 312.652 247.635 311.174 246.528C310.823 246.267 310.423 246.078 309.999 245.972C309.574 245.866 309.133 245.844 308.7 245.909C308.268 245.974 307.852 246.124 307.477 246.35C307.102 246.576 306.775 246.875 306.515 247.228C306.255 247.581 306.066 247.982 305.96 248.408C305.855 248.834 305.833 249.277 305.898 249.711C305.963 250.145 306.112 250.563 306.337 250.939C306.563 251.316 306.86 251.644 307.211 251.905V251.912Z" fill="#662C91"/>
<path d="M317.512 225.83C316.193 227.118 310.042 228.45 310.042 228.45C310.042 228.45 311.549 222.32 312.869 221.032C313.503 220.414 314.355 220.074 315.239 220.087C316.122 220.1 316.965 220.464 317.58 221.101C318.196 221.737 318.535 222.592 318.522 223.479C318.509 224.366 318.146 225.212 317.512 225.83Z" fill="#662C91"/>
<path d="M320.994 241.295C319.351 242.126 313.086 241.554 313.086 241.554C313.086 241.554 316.351 236.155 317.994 235.325C318.783 234.925 319.697 234.857 320.536 235.134C321.375 235.412 322.07 236.013 322.468 236.804C322.866 237.596 322.934 238.514 322.658 239.356C322.381 240.199 321.783 240.896 320.994 241.295Z" fill="#662C91"/>
<path d="M322.339 256.798C320.869 257.905 314.59 258.393 314.59 258.393C314.59 258.393 316.898 252.518 318.376 251.422C319.087 250.894 319.977 250.671 320.85 250.802C321.724 250.934 322.51 251.408 323.036 252.121C323.561 252.834 323.783 253.727 323.653 254.604C323.522 255.482 323.05 256.271 322.339 256.798Z" fill="#662C91"/>
<path opacity="0.1" d="M23.4804 263.814C32.6169 263.814 40.0236 261.17 40.0236 257.909C40.0236 254.648 32.6169 252.005 23.4804 252.005C14.3438 252.005 6.93713 254.648 6.93713 257.909C6.93713 261.17 14.3438 263.814 23.4804 263.814Z" fill="black"/>
<path d="M23.495 257.968C23.495 257.968 32.932 225.8 21.7268 202.127C17.0211 192.189 15.4771 181.037 17.6351 170.254C18.6686 165.136 20.1674 160.123 22.1128 155.279" stroke="#535461" stroke-width="2" stroke-miterlimit="10"/>
<path d="M15.1536 140.315C15.1536 144.256 22.2635 155.689 22.2635 155.689C22.2635 155.689 29.3734 144.249 29.3734 140.315C29.3734 138.422 28.6243 136.607 27.2909 135.268C25.9576 133.93 24.1491 133.178 22.2635 133.178C20.3778 133.178 18.5694 133.93 17.236 135.268C15.9026 136.607 15.1536 138.422 15.1536 140.315Z" fill="#662C91"/>
<path d="M3.40054 162.15C5.53645 165.472 17.6939 171.177 17.6939 171.177C17.6939 171.177 17.4733 157.7 15.3374 154.393C14.8417 153.582 14.1894 152.879 13.4189 152.325C12.6484 151.771 11.7753 151.377 10.851 151.166C9.9266 150.955 8.96961 150.933 8.03628 151.099C7.10296 151.265 6.21214 151.616 5.41622 152.133C4.6203 152.65 3.93534 153.321 3.40163 154.108C2.86792 154.894 2.49624 155.779 2.30843 156.712C2.12063 157.645 2.1205 158.606 2.30804 159.538C2.49559 160.471 2.86704 161.356 3.40054 162.143V162.15Z" fill="#662C91"/>
<path d="M3.91153 199.466C7.40767 201.241 20.7893 200.031 20.7893 200.031C20.7893 200.031 13.8044 188.51 10.3156 186.746C9.48185 186.324 8.57343 186.071 7.64223 186.001C6.71102 185.931 5.77527 186.046 4.88838 186.34C3.09723 186.932 1.61387 188.215 0.764637 189.905C-0.0845951 191.595 -0.230141 193.555 0.360015 195.353C0.950171 197.151 2.22769 198.64 3.91153 199.492V199.466Z" fill="#662C91"/>
<path d="M10.6354 227.612C13.7934 229.955 27.1787 231.014 27.1787 231.014C27.1787 231.014 22.2525 218.468 19.0909 216.135C17.5747 215.01 15.6753 214.535 13.8104 214.815C11.9454 215.095 10.2678 216.108 9.14655 217.63C8.02529 219.152 7.55224 221.058 7.83146 222.93C8.11068 224.802 9.1193 226.486 10.6354 227.612Z" fill="#662C91"/>
<path d="M32.6232 171.941C29.8072 174.686 16.6829 177.531 16.6829 177.531C16.6829 177.531 19.896 164.446 22.712 161.7C23.3819 161.046 24.1735 160.531 25.0418 160.183C25.9101 159.836 26.838 159.664 27.7725 159.677C28.707 159.69 29.6298 159.887 30.4883 160.258C31.3468 160.629 32.1241 161.166 32.7758 161.839C33.4276 162.511 33.941 163.306 34.2868 164.177C34.6326 165.049 34.804 165.98 34.7912 166.918C34.7784 167.856 34.5816 168.783 34.2122 169.644C33.8427 170.506 33.3078 171.286 32.6379 171.941H32.6232Z" fill="#662C91"/>
<path d="M40.0677 204.957C36.5605 206.732 23.1899 205.507 23.1899 205.507C23.1899 205.507 30.1749 193.986 33.6636 192.222C35.3475 191.37 37.2997 191.224 39.0909 191.816C40.882 192.409 42.3654 193.691 43.2146 195.381C44.0638 197.071 44.2094 199.031 43.6192 200.829C43.0291 202.627 41.7515 204.116 40.0677 204.969V204.957Z" fill="#662C91"/>
<path d="M42.9168 238.041C39.7589 240.384 26.3736 241.443 26.3736 241.443C26.3736 241.443 31.2998 228.896 34.4614 226.564C35.9775 225.438 37.877 224.964 39.7419 225.244C41.6068 225.524 43.2845 226.537 44.4057 228.059C45.527 229.58 46 231.487 45.7208 233.359C45.4416 235.231 44.433 236.915 42.9168 238.041Z" fill="#662C91"/>
<path d="M297.153 136.765C298.053 136.329 298.807 135.639 299.322 134.78C298.068 134.389 296.849 133.895 295.675 133.303L296.73 128.691C296.825 128.26 296.833 127.815 296.755 127.381C296.676 126.947 296.512 126.533 296.273 126.164C296.033 125.794 295.723 125.476 295.36 125.228C294.996 124.98 294.588 124.808 294.157 124.72L292.907 124.443C292.04 124.246 291.13 124.399 290.374 124.868C289.618 125.337 289.075 126.086 288.863 126.953L288.632 127.964C286.909 126.1 285.499 123.969 284.455 121.653C284.088 120.957 283.897 120.18 283.9 119.391C283.97 118.45 284.525 117.624 284.977 116.808C286.522 113.978 287.027 110.693 286.404 107.527C285.834 104.693 284.389 102.113 283.463 99.3752C281.632 93.9534 281.841 88.0465 284.051 82.769C285.327 79.7503 287.286 76.6247 286.463 73.4584C285.547 69.9269 281.683 68.1334 278.375 66.4469C275.066 64.7605 271.563 61.8046 272.25 58.2213C272.467 57.0921 273.103 55.985 272.846 54.8669C272.5 53.3908 270.791 52.6527 269.302 52.1951C265.32 50.9257 261.28 49.6451 257.097 49.4496C253.663 49.2909 250.075 49.9551 247.215 51.7486C246.367 52.2152 245.577 52.7813 244.862 53.4351C244.21 54.1146 243.514 54.7495 242.777 55.3355C241.27 56.0994 239.469 55.9998 237.767 56.1622C235.805 56.3436 233.911 56.9749 232.23 58.0073C231.198 58.5546 230.267 59.2747 229.477 60.1366C227.547 62.2769 226.697 65.4137 227.639 68.1112C227.831 68.6451 228.094 69.1504 228.422 69.6132C226.963 72.0152 226.192 74.7746 226.194 77.5879C226.194 85.5884 232.322 92.1828 240.23 93.1239C240.693 94.9063 241.141 96.7735 241.491 98.5043C241.397 98.5893 241.297 98.6682 241.193 98.7405C240.542 99.0541 239.8 99.2534 239.12 99.5228C238.618 99.7211 238.136 99.9683 237.682 100.261C234.318 102.08 232.594 106.021 231.205 109.623C232.16 109.45 233.109 109.254 234.05 109.022C234.002 109.14 233.965 109.254 233.932 109.361C232.965 112.682 227.635 131.185 227.635 131.185L228.767 128.742C228.813 129.091 228.755 129.445 228.602 129.761C228.131 130.68 229.032 130.012 230.462 128.687C230.462 128.764 230.48 128.809 230.535 128.812C227.175 134.318 216.595 151.511 211.331 158.486C204.79 159.368 200.026 160.124 200.026 160.124C198.991 160.133 197.972 160.386 197.052 160.862C195.761 161.528 194.672 162.53 193.9 163.764C193.127 164.998 192.7 166.417 192.662 167.874L192.295 179.561C192.295 179.561 189.494 193.617 189.549 201.621C189.506 202.974 189.614 204.327 189.872 205.655C190.312 207.66 190.528 209.709 190.516 211.762C190.496 214.168 190.281 216.569 189.872 218.94C189.891 218.958 189.924 218.977 189.946 218.995C189.902 219.265 189.872 219.412 189.872 219.412C190.405 219.933 192.038 220.313 194.122 220.586C193.534 223.87 191.372 227.228 185.031 227.475C175.766 227.826 173.844 229.457 173.476 230.295C173.396 230.449 173.372 230.627 173.41 230.797C173.895 236.963 187.696 236.251 191.813 236.491C192.421 236.506 193.028 236.45 193.622 236.325C193.99 236.258 194.357 236.173 194.751 236.074C195.739 235.823 196.85 235.469 198.008 235.048C199.397 234.542 200.861 233.941 202.28 233.288C202.989 232.963 203.684 232.627 204.357 232.288C204.805 232.059 205.239 231.83 205.658 231.601C207.757 230.457 209.459 229.313 210.213 228.424C210.283 228.342 210.347 228.256 210.404 228.165C210.423 228.132 210.441 228.099 210.459 228.066C210.478 228.033 210.525 227.948 210.555 227.885C210.584 227.822 210.592 227.8 210.606 227.756C210.621 227.712 210.647 227.645 210.665 227.59C210.684 227.534 210.695 227.49 210.709 227.439C210.724 227.387 210.731 227.335 210.742 227.284C210.753 227.232 210.764 227.169 210.772 227.11C210.779 227.051 210.772 227.025 210.772 226.981C210.963 224.992 209.474 222.287 208.265 220.464V212.759C208.265 212.759 209.978 194.614 209.945 186.606C209.995 185.356 209.919 184.105 209.717 182.871C209.617 182.488 209.556 182.096 209.533 181.701C209.535 181.087 209.746 180.491 210.132 180.013C210.518 179.536 211.055 179.206 211.654 179.078C215.963 176.826 227.094 177.745 235.418 178.867C228.186 179.974 212.011 181.886 212.011 184.063V189.229C212.025 190.483 212.505 191.687 213.357 192.603C214.209 193.52 215.372 194.084 216.617 194.186V282.265H222.374V194.211H273.537V282.265H279.294V193.2C280.675 192.489 281.834 191.411 282.647 190.083C283.459 188.756 283.892 187.23 283.9 185.672V184.392L294.617 137.894C295.512 137.643 296.366 137.262 297.153 136.765ZM275.794 183.701C275.456 182.225 273.066 180.915 269.258 179.897C275.721 176.716 277.084 170.405 277.037 165.505C277.048 163.843 276.912 162.183 276.629 160.545C277.038 160.199 277.35 159.752 277.535 159.248C277.72 158.744 277.771 158.2 277.684 157.67C277.766 156.696 277.555 155.718 277.077 154.866C273.254 147.116 272.666 142.688 272.585 136.665C273.345 137.378 274.222 137.953 275.176 138.367C277.434 139.344 279.956 139.518 282.43 139.496C283.624 139.496 284.819 139.426 286.014 139.333L275.794 183.701ZM236.384 137.326C236.693 137.909 236.881 138.278 236.881 138.278L237.936 137.341C242.983 137.514 244.064 139.964 244.219 141.592C244.205 141.753 244.18 141.913 244.145 142.072L239.785 154.88C232.215 153.711 228.907 155.748 227.973 156.508C225.639 156.729 223.264 156.988 220.926 157.246C225.62 151.113 232.09 142.832 236.384 137.326Z" fill="url(#paint0_linear)"/>
<path d="M224.175 121.229C224.175 121.229 207.029 150.246 203.011 154.098C203.011 154.098 185.865 171.959 194.581 170.704C195.221 170.612 207.768 159.966 208.5 158.224C209.231 156.482 232.958 125.543 232.958 125.543L229.576 122.417L224.175 121.229Z" fill="#F8BDC5"/>
<path d="M271.485 277.763H276.923V190.879H271.485V277.763Z" fill="#40414D"/>
<path d="M217.121 277.763H222.558V190.879H217.121V277.763Z" fill="#40414D"/>
<path d="M212.768 182.687C212.768 186.008 235.366 188.691 249.185 188.691C263.004 188.691 273.658 186.008 273.658 182.687C273.658 179.365 262.997 176.683 249.181 176.683C235.366 176.683 212.768 179.365 212.768 182.687Z" fill="#F6C6CD"/>
<path d="M274.654 192.514H216.628C216.12 192.516 215.616 192.418 215.145 192.224C214.675 192.031 214.247 191.746 213.887 191.386C213.526 191.025 213.24 190.598 213.045 190.126C212.85 189.655 212.75 189.149 212.75 188.639V182.687H281.272V185.871C281.272 187.633 280.574 189.323 279.334 190.568C278.093 191.814 276.409 192.514 274.654 192.514Z" fill="#40414D"/>
<path d="M274.601 191.486L271.711 190.831L286.115 126.778C286.265 126.11 286.674 125.529 287.251 125.163C287.828 124.797 288.526 124.676 289.192 124.827L291.612 125.375C292.278 125.526 292.857 125.936 293.221 126.516C293.586 127.095 293.706 127.796 293.556 128.464L280.177 187.96C279.905 189.169 279.166 190.219 278.123 190.881C277.079 191.543 275.816 191.761 274.612 191.488L274.601 191.486Z" fill="#40414D"/>
<path d="M208.5 215.984C208.5 215.984 213.989 222.874 211.702 225.63C209.415 228.387 197.997 233.657 194.317 233.439C190.427 233.21 177.406 233.897 176.932 227.929C176.932 227.929 176.016 225.173 187.913 224.715C199.809 224.258 196.133 211.84 196.133 211.84L208.5 215.984Z" fill="#594C76"/>
<path opacity="0.1" d="M273.915 158.113C273.915 158.113 279.404 176.934 262.934 180.159L245.09 179.24C245.09 179.24 219.926 174.188 213.062 177.864C213.062 177.864 210.316 178.321 211.224 181.997C212.132 185.672 209.853 210.471 209.853 210.471V218.737C209.853 218.737 194.295 218.737 192.468 216.892C192.468 216.892 193.839 209.544 192.468 203.574C191.096 197.603 194.754 178.771 194.754 178.771L195.122 167.457C195.149 166.056 195.547 164.688 196.276 163.493C197.005 162.299 198.038 161.32 199.269 160.659C200.135 160.199 201.098 159.954 202.077 159.944C202.077 159.944 233.19 154.892 244.171 155.81C255.152 156.729 273.915 158.113 273.915 158.113Z" fill="black"/>
<path d="M273.915 157.652C273.915 157.652 279.404 176.472 262.934 179.698L245.09 178.779C245.09 178.779 219.926 173.727 213.062 177.402C213.062 177.402 210.316 177.86 211.224 181.535C212.132 185.211 209.856 209.995 209.856 209.995V218.261C209.856 218.261 194.298 218.261 192.471 216.416C192.471 216.416 193.843 209.068 192.471 203.098C191.1 197.127 194.758 178.295 194.758 178.295L195.126 166.981C195.153 165.58 195.551 164.212 196.28 163.017C197.009 161.822 198.042 160.844 199.272 160.183C200.138 159.723 201.101 159.477 202.081 159.468C202.081 159.468 233.193 154.416 244.174 155.334C255.155 156.253 273.915 157.652 273.915 157.652Z" fill="#8B9CD1"/>
<path d="M243.259 97.4895C243.259 97.4895 235.024 107.136 234.109 110.35C233.193 113.564 223.128 121.83 223.128 121.83C223.128 121.83 230.447 127.333 229.087 130.097C227.727 132.861 238.682 120.912 238.682 120.912L251.494 102.091L243.259 97.4895Z" fill="#662C91"/>
<path opacity="0.1" d="M243.259 97.4895C243.259 97.4895 235.024 107.136 234.109 110.35C233.193 113.564 223.128 121.83 223.128 121.83C223.128 121.83 230.447 127.333 229.087 130.097C227.727 132.861 238.682 120.912 238.682 120.912L251.494 102.091L243.259 97.4895Z" fill="black"/>
<path d="M237.767 86.4666C237.767 86.4666 241.884 99.7848 241.884 104.837C241.884 109.889 259.269 103.46 258.795 100.704C258.321 97.9471 248.729 87.8431 248.27 83.7285C247.81 79.6138 237.767 86.4666 237.767 86.4666Z" fill="#F8BDC5"/>
<path opacity="0.1" d="M251.512 95.6517C251.512 95.6517 267.526 91.5186 269.813 114.941C272.099 138.363 267.975 141.12 274.846 155.357C281.716 169.594 228.175 157.202 228.175 157.202C228.175 157.202 230.921 153.987 239.612 155.357L243.73 142.957C243.73 142.957 245.101 137.448 237.326 137.448C229.55 137.448 233.208 121.373 233.208 121.373C233.208 121.373 237.326 107.593 239.612 106.217C241.899 104.84 245.998 96.5706 251.512 95.6517Z" fill="black"/>
<path d="M251.512 94.7328C251.512 94.7328 267.526 90.5997 269.813 114.022C272.099 137.444 267.975 140.201 274.846 154.438C281.716 168.675 228.175 156.283 228.175 156.283C228.175 156.283 230.921 153.069 239.612 154.438L243.73 142.038C243.73 142.038 245.101 136.529 237.326 136.529C229.55 136.529 233.208 120.454 233.208 120.454C233.208 120.454 237.326 106.675 239.612 105.298C241.899 103.922 245.998 95.6517 251.512 94.7328Z" fill="#662C91"/>
<path d="M231.896 127.502C231.896 127.502 214.749 156.519 210.731 160.372C210.731 160.372 193.585 178.233 202.302 176.978C202.941 176.886 215.488 166.239 216.22 164.497C216.952 162.756 240.678 131.816 240.678 131.816L237.296 128.691L231.896 127.502Z" fill="#F8BDC5"/>
<path opacity="0.1" d="M261.104 116.317L236.84 138.363C236.84 138.363 232.278 129.178 230.907 129.178C229.535 129.178 247.376 102.08 247.376 102.08C247.376 102.08 251.953 96.5706 254.696 99.3235C257.438 102.076 265.677 100.242 261.104 116.317Z" fill="black"/>
<path d="M261.559 115.398L237.296 137.444C237.296 137.444 232.719 128.259 231.348 128.259C229.977 128.259 247.836 101.161 247.836 101.161C247.836 101.161 252.413 95.6517 255.155 98.4047C257.898 101.158 266.136 99.3235 261.559 115.398Z" fill="#662C91"/>
<path d="M241.884 94.7328C250.223 94.7328 256.983 87.9473 256.983 79.5769C256.983 71.2065 250.223 64.421 241.884 64.421C233.545 64.421 226.786 71.2065 226.786 79.5769C226.786 87.9473 233.545 94.7328 241.884 94.7328Z" fill="#F8BDC5"/>
<path opacity="0.1" d="M234.543 74.5951C231.811 74.9641 229.058 73.0156 228.153 70.4029C227.249 67.7902 228.05 64.7531 229.874 62.6829C231.697 60.6126 234.41 59.4539 237.153 59.1845C238.818 59.0221 240.594 59.1402 242.046 58.3062C242.961 57.7822 243.641 56.9334 244.41 56.2102C247.288 53.4867 251.461 52.4977 255.413 52.6823C259.365 52.8668 263.181 54.1104 266.945 55.3393C268.35 55.7968 269.967 56.4795 270.291 57.9224C270.537 59.0074 269.923 60.0812 269.728 61.1699C269.081 64.635 272.408 67.4839 275.515 69.1335C278.621 70.783 282.283 72.5174 283.147 75.9383C283.922 79.0049 282.073 82.0273 280.867 84.9499C278.781 90.0684 278.585 95.7662 280.312 101.017C281.194 103.667 282.562 106.184 283.099 108.911C283.688 111.972 283.213 115.144 281.753 117.897C281.323 118.701 280.797 119.502 280.735 120.41C280.73 121.172 280.909 121.924 281.257 122.602C282.582 125.587 284.516 128.261 286.934 130.449C289.353 132.638 292.201 134.293 295.297 135.307C294.315 137.093 292.172 137.839 290.194 138.308C286.819 139.103 283.367 139.521 279.9 139.555C277.57 139.577 275.176 139.411 273.048 138.448C270.919 137.485 269.07 135.643 268.669 133.337C268.438 132.001 268.695 130.621 268.53 129.277C268.162 126.251 265.739 123.879 264.853 120.963C264.004 118.177 263.512 117.753 263.839 114.856C264.166 111.959 264.103 108.741 262.221 106.523C260.251 104.198 256.788 103.682 253.817 104.342C250.847 105.003 249.31 104.069 246.597 105.449C241.85 107.874 236.782 109.603 231.546 110.586C232.965 106.815 234.748 102.656 238.469 101.132C239.535 100.696 240.77 100.464 241.494 99.5671C242.649 98.1353 241.862 95.8399 242.858 94.2974C243.855 92.7549 246.226 92.6847 247.59 91.4005C248.748 90.2935 248.961 88.4815 248.512 86.9538C248.064 85.426 247.075 84.1233 246.075 82.8945C245.19 81.7898 244.285 80.7024 243.358 79.6323C242.495 78.7338 241.774 77.7084 241.219 76.5915C240.906 75.8534 240.965 74.4585 240.454 73.8718C239.16 72.3846 236.12 74.3847 234.543 74.5951Z" fill="black"/>
<path d="M235.098 74.2592C232.366 74.6283 229.613 72.6798 228.708 70.0671C227.804 67.4544 228.605 64.4173 230.429 62.3471C232.252 60.2768 234.965 59.1181 237.708 58.8487C239.373 58.6863 241.149 58.8044 242.601 57.9704C243.516 57.4464 244.196 56.5976 244.965 55.8743C247.843 53.1509 252.016 52.1619 255.968 52.3464C259.92 52.531 263.736 53.7746 267.5 55.0034C268.905 55.461 270.522 56.1437 270.846 57.5866C271.092 58.6716 270.478 59.7454 270.283 60.8341C269.636 64.2992 272.963 67.1481 276.07 68.7977C279.176 70.4472 282.838 72.1816 283.702 75.6025C284.477 78.6691 282.628 81.6914 281.422 84.6141C279.336 89.7326 279.14 95.4304 280.867 100.682C281.75 103.331 283.117 105.848 283.654 108.575C284.244 111.637 283.769 114.809 282.308 117.561C281.878 118.365 281.353 119.166 281.29 120.074C281.285 120.836 281.465 121.588 281.812 122.266C283.137 125.252 285.071 127.925 287.489 130.114C289.908 132.302 292.756 133.957 295.852 134.972C294.87 136.758 292.727 137.503 290.749 137.972C287.374 138.767 283.922 139.186 280.456 139.219C278.125 139.241 275.732 139.075 273.603 138.112C271.474 137.149 269.625 135.307 269.225 133.001C268.993 131.665 269.25 130.285 269.085 128.942C268.717 125.916 266.295 123.543 265.409 120.627C264.559 117.841 264.067 117.417 264.394 114.52C264.721 111.623 264.659 108.405 262.776 106.187C260.806 103.863 257.343 103.346 254.372 104.007C251.402 104.667 249.865 103.733 247.152 105.114C242.405 107.538 237.337 109.268 232.102 110.25C233.521 106.479 235.304 102.32 239.024 100.796C240.09 100.361 241.325 100.128 242.05 99.2313C243.204 97.7995 242.417 95.5041 243.413 93.9616C244.41 92.4191 246.781 92.3489 248.145 91.0647C249.303 89.9576 249.516 88.1457 249.068 86.618C248.619 85.0902 247.63 83.7875 246.63 82.5587C245.745 81.454 244.84 80.3666 243.913 79.2965C243.061 78.397 242.35 77.373 241.803 76.2594C241.491 75.5213 241.55 74.1264 241.039 73.5396C239.715 72.0488 236.675 74.0526 235.098 74.2592Z" fill="#EB6475"/>
<g opacity="0.1">
<path opacity="0.1" d="M196.655 215.467C196.62 214.246 196.445 213.032 196.133 211.851L196.364 211.928C196.592 213.094 196.689 214.28 196.655 215.467Z" fill="white"/>
<path opacity="0.1" d="M194.302 232.505C197.978 232.723 209.401 227.453 211.687 224.697C211.987 224.324 212.171 223.871 212.217 223.394C212.283 223.78 212.27 224.175 212.179 224.556C212.088 224.936 211.921 225.295 211.687 225.608C209.401 228.365 197.982 233.634 194.302 233.417C190.413 233.188 177.391 233.874 176.917 227.907C176.883 227.744 176.905 227.573 176.98 227.424C178.027 232.937 190.512 232.291 194.302 232.505Z" fill="white"/>
</g>
<path d="M96.6124 235.435C98.8182 234.697 102.127 233.856 104.733 234.155C107.211 233.247 113.042 230.878 117.023 227.368C116.907 223.892 116.994 220.413 117.284 216.947C119.321 193.698 114.74 178.387 114.74 178.387C114.74 178.387 111.145 166.7 111.538 157.002C111.307 157.442 111.17 157.704 111.17 157.704C110.854 149.338 108.016 140.68 105.891 135.289C105.81 135.265 105.73 135.235 105.652 135.2L103.237 129.547C103.048 129.217 102.897 128.867 102.789 128.502L102.421 127.606L102.535 127.558C102.498 127.41 102.458 127.255 102.421 127.096C100.903 120.65 99.7446 105.361 99.7446 105.361C95.675 89.2712 105.34 79.3149 105.34 79.3149L121.74 65.1332C121.658 65.3175 121.604 65.5126 121.578 65.7126L121.714 65.5945C121.946 64.9302 122.199 64.1184 122.449 63.2179C121.864 62.8024 121.315 62.3369 120.81 61.8267C118.945 60.058 117.662 57.7598 117.133 55.2396C116.736 53.2801 116.814 51.2615 116.894 49.265L117.166 42.4307C117.179 41.0925 117.314 39.7583 117.571 38.4452C118.81 33.0057 124.346 29.2195 129.901 28.9797C131.669 28.9058 133.434 29.131 135.195 29.2638C136.626 29.3816 138.062 29.4124 139.496 29.3561C139.659 29.3653 139.822 29.3227 139.959 29.2343C140.086 29.1093 140.158 28.9398 140.162 28.7619C140.19 28.4448 140.153 28.1253 140.055 27.8227C139.956 27.5201 139.797 27.2408 139.588 27.0017C139.373 26.812 139.123 26.6666 138.853 26.5736L139.25 26.6695C139.055 26.5161 138.834 26.3975 138.599 26.319C140.018 26.6548 141.47 27.0054 142.691 27.7951C143.04 28.0256 143.361 28.2969 143.647 28.6032C144.402 29.269 144.893 30.1863 145.029 31.1864C145.665 30.5628 146.275 29.8764 146.499 29.0202C146.584 28.6761 146.584 28.3164 146.499 27.9722C146.595 28.0928 146.688 28.2158 146.779 28.3412C146.779 28.3043 146.779 28.2674 146.753 28.2305C147.79 29.5251 148.521 31.0393 148.889 32.6588C149.028 32.4802 149.13 32.2758 149.19 32.0573C149.25 31.8388 149.267 31.6106 149.238 31.3857C149.319 31.6366 149.396 31.8913 149.466 32.1496C149.499 31.982 149.508 31.8104 149.492 31.6403C150.129 33.5954 150.416 35.648 150.341 37.7034C150.341 39.7552 149.437 42.9473 147.246 43.6669C147.135 43.7038 147.018 43.7333 146.9 43.7592C148.13 45.6769 148.867 47.8712 149.045 50.1452C149.222 52.4191 148.834 54.7018 147.916 56.7883C146.999 58.8749 145.579 60.7002 143.786 62.1006C141.992 63.501 139.88 64.4327 137.64 64.8121C137.605 65.0582 137.571 65.3202 137.537 65.5982H137.448C137.39 66.1517 137.342 66.7348 137.305 67.3437C137.856 67.8868 138.46 68.3738 139.106 68.7976C140.943 69.8879 142.992 70.5688 145.114 70.7941C147.647 70.989 150.109 71.7237 152.337 72.9492C154.955 74.4253 157.852 76.562 158.752 79.1636C160.267 83.507 168.59 90.2344 174.193 91.0721L176.178 90.9577L176.321 90.9134V90.9503L176.807 90.9208H176.836H176.965V90.9503L177.468 90.9208C177.468 90.9208 177.52 91.1533 177.586 91.5666C180.398 90.5997 186.365 87.9058 194.129 80.8353C202.783 72.9566 214.463 74.5065 218.966 75.4992C219.119 75.5331 219.259 75.6132 219.365 75.7287C219.472 75.8441 219.541 75.9895 219.564 76.1454C219.586 76.3014 219.561 76.4604 219.491 76.6014C219.421 76.7424 219.31 76.8587 219.172 76.9347C217.356 77.9384 214.533 79.3961 213.209 79.5585C213.209 79.5585 215.937 82.3926 213.04 83.9056C212.693 84.077 212.305 84.1481 211.92 84.111C211.535 84.0738 211.168 83.9299 210.86 83.6952C209.467 82.673 205.592 84.9905 199.982 86.1972C199.982 86.1972 184.145 102.648 176.288 105.195C176.107 105.555 175.907 105.904 175.689 106.243L175.204 106.202L175.178 106.243H175.112L175.053 106.759C175.053 106.759 162.829 106.114 158.877 101.659C158.595 101.406 158.335 101.129 158.102 100.829L162.352 154.515H162.311L162.352 155.024H159.227C158.955 161.633 159.235 168.253 160.065 174.815V209.799C160.065 209.799 160.227 212.88 153.856 217.364C147.173 222.033 140.734 227.042 134.563 232.372L133.791 233.044C134.963 243.746 137.415 263.703 139.459 264.448L138.198 264.67C140.371 267.419 146.492 274.962 148.363 275.172C150.654 275.427 152.179 279.003 148.363 279.77C144.841 280.479 135.688 281.401 125.699 277.527C124.977 277.245 124.37 276.728 123.976 276.059C123.581 275.39 123.422 274.607 123.523 273.836L124.258 268.197C124.118 268.276 124.005 268.396 123.935 268.541C123.427 270.072 123.935 266.496 123.935 266.496C121.842 259.744 120.199 252.86 119.016 245.89L111.446 252.433C111.446 252.433 111.292 252.244 111.031 251.905C109.193 256.127 105.884 264.751 106.619 271.076C107.638 279.759 97.969 272.098 98.9873 266.991C99.8108 262.858 96.1382 245.351 94.7045 238.819C94.5511 238.118 94.6611 237.385 95.0132 236.761C95.3654 236.136 95.9349 235.664 96.6124 235.435Z" fill="url(#paint1_linear)"/>
<path d="M175.605 93.7512C175.605 93.7512 182.81 92.5039 193.49 82.7801C201.945 75.0859 213.341 76.6026 217.753 77.5694C217.909 77.5929 218.054 77.6663 218.165 77.7787C218.277 77.891 218.349 78.0364 218.372 78.1933C218.394 78.3502 218.366 78.5103 218.291 78.6498C218.216 78.7894 218.098 78.9009 217.955 78.968C216.18 79.946 213.422 81.3704 212.132 81.5328C212.132 81.5328 214.794 84.3005 211.967 85.7803C211.628 85.9473 211.249 86.0164 210.873 85.9799C210.497 85.9434 210.139 85.8028 209.838 85.5736C208.478 84.5772 204.691 86.8394 199.217 88.0166C199.217 88.0166 177.854 110.21 172.888 106.468L175.605 93.7512Z" fill="#FEC3BE"/>
<path d="M138.838 63.5944C138.838 63.5944 136.849 72.082 138.838 78.0565L129.894 79.3038L121.949 75.2999V70.0782C121.949 70.0782 125.677 62.0998 124.681 52.8741L138.838 63.5944Z" fill="#FEC3BE"/>
<path d="M113.501 247.37C113.501 247.37 107.035 260.086 108.038 268.563C109.042 277.039 99.5829 269.559 100.587 264.574C101.392 260.54 97.8036 243.443 96.4066 237.066C96.2529 236.377 96.3605 235.655 96.7085 235.041C97.0565 234.427 97.6199 233.965 98.2888 233.745C101.278 232.76 106.274 231.531 108.788 233.398C112.509 236.148 113.501 247.37 113.501 247.37Z" fill="#5A5773"/>
<path d="M138.096 261.33C138.096 261.33 146.551 272.301 148.779 272.552C151.007 272.803 152.507 276.294 148.779 277.039C145.341 277.729 136.401 278.634 126.648 274.847C125.942 274.572 125.348 274.066 124.963 273.412C124.578 272.757 124.423 271.992 124.523 271.238L125.923 260.581L138.096 261.33Z" fill="#5A5773"/>
<path d="M152.007 144.884L160.094 145.968C160.094 145.968 158.205 159.593 160.19 174.557V208.718C160.19 208.718 160.348 211.725 154.128 216.098C147.603 220.657 141.316 225.548 135.291 230.752L112.748 250.355C112.748 250.355 103.803 239.384 105.046 232.9C105.046 232.9 119.949 228.162 121.938 220.431C123.078 216.002 128.857 212.312 133.588 209.969C139.684 206.946 143.007 200.079 141.338 193.466C141.062 192.344 140.636 191.265 140.07 190.259C136.096 183.277 130.383 167.568 130.383 167.568L141.312 146.622L152.007 144.884Z" fill="#605D82"/>
<path opacity="0.05" d="M152.043 144.884L160.131 145.968C160.131 145.968 158.242 159.593 160.227 174.557V208.718C160.227 208.718 160.385 211.725 154.165 216.098C147.645 220.659 141.363 225.553 135.342 230.76L112.799 250.362C112.799 250.362 103.855 239.391 105.097 232.908C105.097 232.908 120.001 228.169 121.99 220.438C123.129 216.01 128.909 212.319 133.64 209.976C139.735 206.954 143.059 200.086 141.389 193.473C141.114 192.351 140.687 191.273 140.121 190.266C136.147 183.284 130.434 167.575 130.434 167.575L141.364 146.629L152.043 144.884Z" fill="black"/>
<path d="M140.081 262.079C140.081 262.079 125.416 264.574 124.927 266.087C124.438 267.6 124.927 264.09 124.927 264.09C124.927 264.09 116.472 238.406 118.468 215.715C120.464 193.023 115.983 178.074 115.983 178.074C115.983 178.074 110.766 161.117 113.748 151.393C116.729 141.669 148.029 145.906 148.029 145.906C148.029 145.906 137.099 171.564 137.349 183.794C137.349 183.794 136.107 220.696 133.871 224.937C133.871 224.925 137.349 261.083 140.081 262.079Z" fill="#605D82"/>
<path d="M138.342 70.0782C138.342 70.0782 136.853 79.3039 121.946 75.3147L131.872 151.116C131.872 151.116 160.686 152.113 160.44 148.622L154.488 102.744L138.342 70.0782Z" fill="white"/>
<path opacity="0.1" d="M137.971 69.58C137.971 69.58 140.794 72.6208 145.147 73.0009C147.619 73.1925 150.023 73.9109 152.198 75.108C154.771 76.5435 157.576 78.6322 158.447 81.1785C160.186 86.164 171.116 94.3933 176.093 92.6478L174.355 107.608C174.355 107.608 160.197 106.87 157.712 101.375L161.936 154.737H158.216C158.216 154.737 156.227 140.274 154.738 137.282C153.249 134.289 150.268 117.834 150.018 113.841C149.768 109.848 146.044 86.9021 142.812 82.9203L137.967 71.0745L137.971 69.58Z" fill="black"/>
<path opacity="0.1" d="M137.971 70.3291C137.971 70.3291 141.279 73.1226 145.643 73.499C148.116 73.6907 150.519 74.409 152.694 75.6062C155.267 77.0417 158.072 79.1304 158.944 81.6767C160.683 86.6622 171.612 94.8915 176.59 93.146L174.851 108.106C174.851 108.106 160.694 107.368 158.208 101.874L162.436 155.231H158.712C158.712 155.231 156.723 140.769 155.234 137.776C153.745 134.783 150.764 118.328 150.514 114.336C150.264 110.343 146.54 87.3966 143.308 83.4148L137.967 71.82L137.971 70.3291Z" fill="black"/>
<path d="M137.971 69.8309C137.971 69.8309 141.279 72.6245 145.643 73.0009C148.116 73.1925 150.519 73.9109 152.694 75.108C155.267 76.5435 158.072 78.6322 158.944 81.1785C160.683 86.1641 171.612 94.3934 176.59 92.6479L174.851 107.608C174.851 107.608 160.694 106.87 158.208 101.375L162.432 154.737H158.712C158.712 154.737 156.723 140.274 155.234 137.282C153.745 134.289 150.764 117.834 150.514 113.841C150.264 109.848 146.54 86.9021 143.308 82.9203L137.967 71.3255L137.971 69.8309Z" fill="#67647E"/>
<path opacity="0.1" d="M125.302 60.2289C125.626 57.8671 124.979 56.391 124.681 53.6196L138.838 64.3435C138.838 64.3435 138.5 65.7938 138.243 67.912C137.536 68.0265 136.822 68.0845 136.107 68.0854C131.166 68.0854 127.622 64.2291 125.302 60.2289Z" fill="black"/>
<path d="M136.107 67.34C143.515 67.34 149.521 61.3112 149.521 53.8742C149.521 46.4373 143.515 40.4084 136.107 40.4084C128.698 40.4084 122.692 46.4373 122.692 53.8742C122.692 61.3112 128.698 67.34 136.107 67.34Z" fill="#FEC3BE"/>
<path opacity="0.1" d="M150.746 40.6741C150.825 38.401 150.45 36.1349 149.643 34.0095C149.86 34.3425 149.952 34.7431 149.9 35.138C149.848 35.533 149.656 35.896 149.36 36.1609C148.93 33.8462 147.75 31.7391 146.003 30.1679C146.959 30.3229 147.448 31.5149 147.216 32.4596C146.985 33.4043 146.257 34.1313 145.558 34.8029C145.639 33.3748 144.702 32.0463 143.511 31.2602C142.32 30.4742 140.901 30.1532 139.515 29.8063C139.996 29.978 140.408 30.305 140.685 30.7362C140.963 31.1675 141.09 31.6787 141.048 32.1902C141.044 32.3641 140.973 32.5297 140.849 32.6515C140.715 32.7387 140.557 32.7814 140.397 32.7732C138.997 32.8287 137.595 32.7991 136.199 32.6847C134.483 32.4907 132.757 32.3983 131.03 32.4079C125.604 32.6367 120.199 36.338 118.99 41.6336C118.74 42.9152 118.608 44.2172 118.597 45.5231L118.332 52.1951C118.255 54.1436 118.177 56.1179 118.567 58.0294C118.938 59.8134 119.698 61.4928 120.792 62.9474C121.886 64.4021 123.287 65.5958 124.894 66.4432C126.842 63.6091 127.015 59.9668 127.692 56.5902C127.797 55.8078 128.085 55.0616 128.534 54.413C129.022 53.8004 129.883 53.4129 130.611 53.7044C131.339 53.996 131.655 55.1141 131.048 55.6123C131.57 56.2507 132.6 55.7747 133.199 55.2064C134.904 53.5838 136.078 51.4799 136.566 49.1728C136.809 48.0104 137.051 46.5896 138.169 46.1874C138.56 46.0794 138.969 46.0518 139.371 46.1062C141.735 46.2686 145.433 47.2502 147.727 46.4973C149.863 45.7777 150.746 42.6742 150.746 40.6741Z" fill="black"/>
<path d="M150.499 40.4232C150.578 38.15 150.203 35.884 149.396 33.7586C149.614 34.0916 149.705 34.4922 149.653 34.8871C149.601 35.2821 149.41 35.6451 149.113 35.91C148.685 33.5926 147.505 31.4827 145.757 29.9096C146.713 30.0646 147.202 31.2566 146.97 32.2013C146.738 33.146 146.011 33.873 145.312 34.5446C145.393 33.1165 144.455 31.788 143.264 31.0019C142.073 30.2159 140.654 29.8949 139.268 29.548C139.75 29.7197 140.162 30.0467 140.439 30.4779C140.716 30.9092 140.844 31.4204 140.801 31.9319C140.798 32.1058 140.727 32.2714 140.603 32.3932C140.468 32.4804 140.31 32.5231 140.151 32.5149C138.751 32.5704 137.349 32.5408 135.952 32.4264C134.236 32.2324 132.51 32.14 130.783 32.1496C125.357 32.3784 119.953 36.0797 118.744 41.3753C118.493 42.6569 118.362 43.9589 118.35 45.2648L118.086 51.9368C118.008 53.8853 117.931 55.8596 118.321 57.7711C118.695 59.5511 119.456 61.2262 120.55 62.6768C121.644 64.1273 123.043 65.3177 124.648 66.1628C126.596 63.3287 126.769 59.6864 127.445 56.3098C127.55 55.5274 127.839 54.7811 128.287 54.1325C128.776 53.5199 129.636 53.1325 130.364 53.424C131.092 53.7155 131.408 54.8337 130.802 55.3319C131.324 55.9703 132.353 55.4942 132.952 54.9259C134.658 53.3034 135.832 51.1994 136.32 48.8923C136.562 47.7299 136.805 46.3092 137.923 45.9069C138.314 45.7989 138.723 45.7713 139.125 45.8257C141.489 45.9881 145.187 46.9697 147.481 46.2169C149.613 45.5453 150.499 42.427 150.499 40.4232Z" fill="#916168"/>
<path opacity="0.1" d="M177.218 92.6442C177.218 92.6442 179.207 101.87 175.48 107.605L173.369 107.431L174.52 92.7992L177.218 92.6442Z" fill="black"/>
<path d="M176.722 92.6442C176.722 92.6442 178.711 101.87 174.983 107.605L172.873 107.431L174.024 92.7992L176.722 92.6442Z" fill="#FD6F8D"/>
<path opacity="0.1" d="M123.313 67.4618L107.292 81.3003C107.292 81.3003 97.844 91.0241 101.825 106.734C101.825 106.734 103.564 129.672 105.553 130.672C105.553 130.672 112.509 144.636 113.005 157.851C113.005 157.851 122.321 139.031 126.545 150.496C130.769 161.962 140.581 163.586 140.581 163.586L135.114 95.7624C135.114 95.7624 121.328 71.6982 123.313 67.4618Z" fill="black"/>
<path d="M122.817 67.4618L106.796 81.3003C106.796 81.3003 97.355 91.0241 101.329 106.734C101.329 106.734 103.068 129.672 105.057 130.672C105.057 130.672 112.012 144.636 112.509 157.851C112.509 157.851 122.321 138.027 126.545 149.496C130.769 160.966 140.084 163.586 140.084 163.586L134.607 95.7624C134.607 95.7624 120.828 71.6982 122.817 67.4618Z" fill="#67647E"/>
<path d="M115.49 125.934C115.49 125.934 111.516 123.192 105.057 130.672L120.953 159.597L126.295 151.478C126.295 151.478 114.994 129.178 115.49 125.934Z" fill="#FEC3BE"/>
<path opacity="0.1" d="M119.339 127.554C119.339 127.554 110.549 137.466 107.119 135.876L103.943 128.44L115.858 123.314L119.339 127.554Z" fill="black"/>
<path d="M119.339 127.056C119.339 127.056 110.549 136.968 107.119 135.377L103.943 127.956L115.858 122.816L119.339 127.056Z" fill="#FD6F8D"/>
<path opacity="0.1" d="M125.758 149.615C125.758 149.615 121.574 158.224 119.339 158.726L122.567 162.468L127.287 153.489L125.758 149.615Z" fill="black"/>
<path d="M126.008 149.862C126.008 149.862 121.824 158.471 119.589 158.973L122.817 162.715L127.537 153.736L126.008 149.862Z" fill="#4D4981"/>
<path opacity="0.1" d="M118.097 96.6333C118.097 96.6333 117.6 114.586 119.585 121.318L118.097 96.6333Z" fill="black"/>
<path opacity="0.1" d="M158.341 100.124C158.341 100.124 155.359 99.128 155.359 96.6333L158.341 100.124Z" fill="black"/>
<path d="M218.394 81.7271L197.559 78.3472L197.319 79.8408L218.154 83.2207L218.394 81.7271Z" fill="#40414D"/>
<path d="M225.231 83.5808C225.231 83.5808 223.073 85.057 220.999 85.3227C220.62 85.377 220.235 85.377 219.856 85.3227C217.955 85.0164 216.97 84.0827 216.79 82.9867C216.719 82.4817 216.802 81.9671 217.029 81.5106C217.543 80.5253 218.771 79.9533 220.672 80.2633C221.252 80.3741 221.806 80.5945 222.304 80.9128C223.421 81.6327 224.41 82.5344 225.231 83.5808Z" fill="#40414D"/>
<path d="M225.231 83.5809C225.231 83.5809 223.073 85.057 220.999 85.3227C220.935 85.0931 220.95 84.8484 221.043 84.6289C221.244 84.3165 221.478 84.0269 221.742 83.7654C221.959 83.4628 222.017 82.9609 221.698 82.7764C221.622 82.7443 221.549 82.7047 221.481 82.6583C221.29 82.4849 221.481 82.1749 221.642 81.9904C221.951 81.6767 222.304 81.304 222.301 80.8833C223.421 81.6118 224.411 82.5236 225.231 83.5809Z" fill="#F8BDC5"/>
</g>
<defs>
<linearGradient id="paint0_linear" x1="236.373" y1="282.265" x2="236.373" y2="49.409" gradientUnits="userSpaceOnUse">
<stop stop-color="#808080" stop-opacity="0.25"/>
<stop offset="0.54" stop-color="#808080" stop-opacity="0.12"/>
<stop offset="1" stop-color="#808080" stop-opacity="0.1"/>
</linearGradient>
<linearGradient id="paint1_linear" x1="-59262.3" y1="205528" x2="-59262.3" y2="30585.2" gradientUnits="userSpaceOnUse">
<stop stop-color="#808080" stop-opacity="0.25"/>
<stop offset="0.54" stop-color="#808080" stop-opacity="0.12"/>
<stop offset="1" stop-color="#808080" stop-opacity="0.1"/>
</linearGradient>
<clipPath id="clip0">
<rect width="342" height="296" fill="white"/>
</clipPath>
</defs>
</svg>
