<?xml version="1.0" encoding="utf-8"?>
<!-- Generator: Adobe Illustrator 25.2.3, SVG Export Plug-In . SVG Version: 6.00 Build 0)  -->
<svg version="1.1" id="Layer_1" xmlns="http://www.w3.org/2000/svg" xmlns:xlink="http://www.w3.org/1999/xlink" x="0px" y="0px"
	 viewBox="0 0 100 100" style="enable-background:new 0 0 100 100;" xml:space="preserve">
<g>
	<g>
		<path d="M75.2,28.9c-0.1-5.2-0.1-10.3-0.2-15.5c0.3-0.9-0.2-2-1.4-2.1c-17.4-0.2-34.9,0.5-52.3,1.9c-0.7,0.1-1.3,0.1-2,0.2
			l-0.2,0.3c-0.1,0.2-0.2,0.5-0.2,0.8c0,0.1,0,0.2,0,0.2c0.1,2.1,0.1,4.1,0,6.1c-0.5,16.3-0.6,32.5-0.4,48.9
			c0.1,4.3,0.2,8.4,0.3,12.7c0,0,0,0,0,0.1v0.1c0,1,0.2,2,0.1,3c0,0.1,0,0.2,0,0.2c0.2,0.1,0.4,0.2,0.6,0.2
			c17.9,0.6,35.8,0.4,53.6-0.7c0.8,0.2,1.7-0.2,1.9-1.1c0.1-0.3,0.1-0.6,0-0.9C75.4,65.2,75.4,47,75.2,28.9z M24.3,17.9
			c2.1-0.1,4.1-0.2,6.2-0.2c-2.1,1.7-4.2,3.5-6.3,5.2C24.2,21.2,24.2,19.6,24.3,17.9z M24.1,24.2c2.7-2.2,5.3-4.4,8-6.6
			c2.7-0.1,5.3-0.2,8-0.3c-4.8,4.5-9.7,9-14.5,13.6c-0.5,0.5-1.1,1-1.6,1.5C24,29.7,24.1,26.9,24.1,24.2z M23.9,33.8
			c5.3-5,10.7-9.9,16.1-15l1.7-1.6c2.8-0.1,5.7-0.2,8.5-0.3c-7.8,6.7-15.5,13.7-22.8,21c-1.2,1.2-2.5,2.4-3.7,3.7
			C23.8,39,23.8,36.4,23.9,33.8z M23.7,43c7.6-7.7,15.4-15.1,23.6-22.3c1.5-1.3,3-2.6,4.5-3.9c4.7-0.2,9.4-0.4,14-0.5
			c-6.1,5.2-12.4,10.3-18.6,15.4c-0.4,0.1-0.8,0.2-1.3,0.3c-0.1,0-0.1,0.1-0.2,0.1c-3.7,0.9-7.6,1.8-10.8,3.9
			c-3.1,2-5.3,4.9-6.4,8.3c-0.6,2-0.9,4.1-0.9,6.1c-1.4,0.9-2.7,1.9-4,3c0-0.6,0-1.2-0.1-1.8c0-0.2-0.1-0.4-0.2-0.6
			C23.5,48.3,23.6,45.7,23.7,43z M23.9,65.6c2.3-1.9,4.5-3.8,6.9-5.7c1.1,1.4,2.5,2.5,4.2,3.3c1.1,0.5,2.1,0.9,3.3,1.2
			c-5,3.7-9.9,7.5-14.7,11.6C23.8,72.5,23.9,69.1,23.9,65.6z M23.8,54.8c1.3-1.2,2.6-2.3,4-3.2c0.1,1.3,0.3,2.6,0.6,3.8
			c0.4,1.4,1,2.6,1.8,3.7c-2.1,1.7-4.2,3.5-6.3,5.2C23.9,61.1,23.9,57.9,23.8,54.8z M38.1,61.4c-2.7-0.9-5.1-2.6-6.3-5.2
			c-1.4-2.8-1.4-6.4-0.8-9.4c0.7-3.4,2.4-6.2,5.3-8.1c3.2-2.1,6.9-3,10.6-3.8c0.2,0,0.3-0.1,0.5-0.2c2.9-0.7,5.8,1,8.1,2.7
			c2.4,1.9,4.4,4.2,5.7,6.8c1.3,2.7,1.7,5.8,0.8,8.7c-0.8,2.9-2.9,5-5.5,6.2c-2.5,1.3-5.2,2-8,2.5C45.1,62.3,41.4,62.5,38.1,61.4z
			 M69.6,81c-6.5,0.2-12.9,0.4-19.4,0.6c5.9-4.9,11.7-9.8,17.6-14.7c0.8-0.7,1.7-1.4,2.5-2.1C70.1,70.3,69.9,75.7,69.6,81z
			 M70.4,63.5C64.1,68.7,57.8,74,51.6,79.2c-0.9,0.8-1.9,1.6-2.9,2.4c-5.6,0.1-11.3,0.2-16.9,0.3c10.8-7.5,21.6-15,32.5-22.3
			c2.1-1.5,4.3-2.9,6.4-4.3C70.6,58,70.5,60.8,70.4,63.5z M70.7,54c-11,7.3-21.8,14.7-32.7,22.2c-2.7,1.9-5.5,3.8-8.2,5.7
			c-2.2,0-4.4,0-6.6,0c0.1-1.5,0.2-3.1,0.3-4.6c5.1-4.5,10.5-8.7,15.9-12.6c2.3,0.4,4.6,0.5,6.9,0.2c3.6-0.4,7.3-1.2,10.6-2.7
			c3-1.4,5.8-3.7,7.2-6.7c1.2-2.6,1.5-5.5,1.1-8.2c2-1.6,3.9-3.2,5.8-4.9C71,46.3,70.9,50.2,70.7,54z M71.1,41.1c-2,1.7-4,3.4-6,5.1
			c-0.1-0.4-0.2-0.9-0.4-1.3c-0.8-2.4-2.1-4.5-3.7-6.3c3.2-2.9,6.7-5.5,10.3-8C71.2,34.1,71.2,37.6,71.1,41.1z M71.3,29.4
			c-3.9,2.6-7.5,5.3-10.9,8.4c-0.8-0.9-1.8-1.8-2.7-2.5c-2.4-1.9-5.5-3.7-8.6-3.8c6.2-5,12.3-10.1,18.4-15.3c1,0,1.9-0.1,2.9-0.1
			c0.6,3,0.8,6.1,0.5,9.2c0,0.4,0.2,0.8,0.4,1C71.3,27.4,71.3,28.4,71.3,29.4z M44.4,58.7c0.2,1.9,3.2,1.9,3,0c0-0.3,0-0.6-0.1-0.9
			c0.3,0,0.7-0.1,1-0.1c3.3-0.7,6.5-3.5,5.8-7c0-2-1.3-3.5-3-4.3c-1.2-0.6-2.4-0.8-3.7-0.8c0.1-1.2,0.2-2.4,0.3-3.5
			c1.7,0,3.5,0.2,5.1,0.4c0.8,0.1,1.5-0.8,1.5-1.5c0-0.9-0.7-1.4-1.5-1.5c-1.5-0.2-3.1-0.3-4.7-0.4c0-0.2,0.1-0.5,0.1-0.7
			c0.3-1.9-2.6-2.7-2.9-0.8c-0.1,0.6-0.2,1.1-0.3,1.7c-0.9,0.1-1.9,0.3-2.7,0.6c-1.6,0.6-3.3,1.4-4.3,2.8c-1.1,1.5-1.1,3.4,0.1,4.8
			c1.1,1.3,2.8,1.9,4.4,1.8c0.5,0,1.1-0.1,1.6-0.2c-0.1,1.9-0.1,3.7,0,5.6c-1.1-0.4-2.1-1-2.9-1.9c-0.5-0.6-1.6-0.5-2.1,0
			c-0.6,0.6-0.5,1.5,0,2.1c1.3,1.6,3.2,2.5,5.2,2.9C44.2,58,44.2,58.4,44.4,58.7z M47.2,48.6h1c1.3,0.2,2.6,0.9,3.1,2.2
			c0.4,1.2-0.4,2.4-1.4,3.1c-0.8,0.6-1.7,0.9-2.7,1C47.2,52.8,47.2,50.7,47.2,48.6z M40.9,45.8c-1.1-0.8-0.2-1.7,0.8-2.3
			s2-1,3.1-1.2c-0.2,1.2-0.3,2.5-0.3,3.7C43.2,46.3,41.9,46.5,40.9,45.8z"/>
	</g>
</g>
</svg>
