<?xml version="1.0" encoding="utf-8"?>
<!-- Generator: Adobe Illustrator 25.2.3, SVG Export Plug-In . SVG Version: 6.00 Build 0)  -->
<svg version="1.1" id="Layer_1" xmlns="http://www.w3.org/2000/svg" xmlns:xlink="http://www.w3.org/1999/xlink" x="0px" y="0px"
	 viewBox="0 0 100 100" style="enable-background:new 0 0 100 100;" xml:space="preserve">
<path d="M87.2,33.9c-1.8-0.2-3.7-0.5-5.4-1.4c-0.2-0.1-0.3-0.2-0.4-0.4c-0.1,0.1-0.2,0.2-0.2,0.2c-0.2-3.3-0.2-6.6,0-9.9l0,0
	c0.5-0.5,1.1-0.9,1.7-1.4c0.5-0.4,0.5-1.7-0.2-1.8c-4.9-1.1-9.8-2.1-14.6-3.3c-2.4-0.5-4.7-1.1-7.1-1.6c-2.4-0.5-4.7-1.2-7.1-1.5
	c-2.1-0.2-4.1,0.2-6,1.4c-2.1,1.2-3.9,2.9-5.8,4.4c-4.1,3.3-8.2,6.6-12.3,10c-4.6,3.8-9.4,7.6-14,11.4l0,0h-0.1
	c-0.2,0.3-0.4,0.6-0.6,0.8c-0.2,0.4-0.5,0.7-0.8,0.9l0.1,0.1c-1.2,1.6-1.8,4-1.2,6.2c0.7,3.1,3,5.2,5.4,5.9c0.5,0.2,1.1,0.3,1.7,0.4
	c-1.2,0.4-2.3,1.8-2.8,3.2c-0.6,1.8-0.8,3.7-0.3,5.6c0.5,1.9,1.5,3.4,2.9,4.3c-0.3,0-0.5,0.1-0.7,0.3c-1.6,0.2-2.7,1.4-3.4,3
	c-0.2,0.3-0.3,0.6-0.4,0.9c-0.5,1.3-0.7,2.7-0.8,4.1c-0.2,1.7,0.2,3.4,1.1,4.6c1.1,1.4,2.8,1.6,4.3,1.9c7,1.6,14.1,2.9,21.1,4
	c4,0.6,8.2,1.2,12.3,1.6c0.5,0.1,0.8-0.3,1-0.8c0.1,0,0.2-0.1,0.3-0.2c9.9-7.9,19.9-15.8,29.8-23.7c0.9-0.7,0.6-2.2-0.3-2.6
	c-0.4-0.2-0.7-0.3-1.1-0.5C83,60,82.9,60,82.6,60c-0.1-2.1,0-4.4,0.1-6.5c0-0.3-0.1-0.7-0.3-0.9c1.4-1.2,3-2.4,4.4-3.6
	c0.9-0.7,0.6-2.8-0.6-2.7c-0.2,0-0.5,0.1-0.7,0.1c0.2-2.5,0.3-5.1,0.2-7.7c0-0.3-0.1-0.6-0.2-0.8c0.7-0.6,1.3-1.1,2-1.7
	C88.3,35.9,88.1,34.3,87.2,33.9z M79.7,33.7c-8.9,7.7-18.1,15-27.5,21.9c0.2-3.2,0.1-6.5-0.5-9.6c0.2-0.1,0.4-0.3,0.4-0.6
	c0,0,0,0,0-0.1c0.1-0.2,0.1-0.3,0.1-0.5c2.8-1.2,5.3-3.6,7.8-5.6C66.5,34.1,73,29,79.6,23.7C79.5,27,79.5,30.4,79.7,33.7z
	 M55.2,39.8c-1.7,1.2-3.4,2.3-5.2,3.5c-0.2,0.1-0.2,0.2-0.3,0.4c-3.2-0.5-6.4-1-9.6-1.4C45.1,41.4,50.2,40.6,55.2,39.8z M36.9,41.7
	c-2.9-0.4-5.7-0.8-8.6-1.3c8.7-1,17.3-2.2,26-3.8c2.4-0.4,4.6-0.9,7-1.4c-1.4,1.1-2.8,2.1-4.3,3.2C50.2,39.6,43.5,40.7,36.9,41.7z
	 M46.3,18.1c1.8-1.5,3.6-2.7,5.8-2.8c1.8,0,3.6,0.4,5.3,0.9c-4.8,1.2-9.5,2.7-14.2,4.6C44.3,19.9,45.3,19,46.3,18.1z M41,22.6
	c0.2-0.2,0.5-0.4,0.7-0.6c0.1,0.1,0.2,0.2,0.4,0.2c5.6-2.2,11.1-4.1,16.8-5.5c0.2,0,0.2-0.1,0.2-0.2c1.1,0.3,2.2,0.5,3.4,0.8
	c-6.8,2.5-13.7,4.8-20.7,6.6c-1.1,0.3-2.4,0.6-3.5,0.9L41,22.6z M36.6,26.3c7-1.8,14-3.8,21-6.1c2.1-0.7,4-1.5,6.1-2.2
	c0.2,0,0.2-0.1,0.2-0.2c0.4,0.1,0.8,0.2,1.1,0.3c1,0.2,1.9,0.5,2.9,0.7c-9.3,3.5-18.8,6.4-28.2,8.7c-2,0.5-3.9,0.9-5.9,1.3
	C34.8,27.9,35.7,27.1,36.6,26.3z M32.2,29.9c9.9-1.9,19.7-4.7,29.4-8c2.7-0.9,5.3-1.9,7.9-2.9l4,0.9c-5.4,1.9-10.9,3.6-16.5,5.2
	c-6.5,1.9-13,3.6-19.5,5.3c-2.7,0.7-5.4,1.3-8.2,1.9C30.4,31.5,31.3,30.7,32.2,29.9z M27.9,33.6c6.2-1.4,12.3-2.9,18.4-4.6
	c6.5-1.8,13-3.6,19.4-5.7c3.2-1,6.4-2,9.6-3.1l2.8,0.7c-0.9,0.8-1.8,1.6-2.7,2.3c-0.1,0-0.2,0-0.2,0c-6.6,2-13.3,4-20,5.7
	s-13.4,3.2-20.2,4.5c-3,0.6-6,1.2-9.1,1.7C26.7,34.6,27.3,34.1,27.9,33.6z M24.6,36.4c6.5-1.1,13-2.3,19.4-3.7
	c6.8-1.5,13.5-3.2,20.2-5.1c3.3-0.9,6.5-1.9,9.7-2.8c-1.7,1.5-3.4,2.9-5.1,4.4c-12,3.3-24.2,5.7-36.4,7.3c-3,0.4-5.9,0.7-9,1
	C23.8,37.1,24.2,36.8,24.6,36.4z M22,38.5c12.3-1.1,24.6-3,36.8-5.8c2.7-0.7,5.5-1.4,8.2-2c-1.4,1.2-3,2.4-4.4,3.6
	c-0.1-0.1-0.2-0.1-0.3-0.1c-9.7,2-19.4,3.7-29.3,4.9c-2.7,0.4-5.5,0.7-8.2,1c-0.1,0-0.1,0-0.1,0c-1-0.2-2-0.3-3-0.4
	c-0.3,0-0.5-0.1-0.8-0.1C21.3,39.2,21.6,38.9,22,38.5z M16.8,50.1c-1.4-1.3-2-3.3-1.1-5.3c0.8-1.8,2-2.6,3.4-3
	c3.8-0.1,7.6,0.8,11.3,1.5c5.1,0.9,10.2,1.8,15.4,2.7c0.1,0.2,0.2,0.3,0.3,0.3c1.4,0,2.8,0.3,4.2,0.7c0.5,2.9,0.5,5.8,0.3,8.8
	c-0.2-0.2-0.3-0.3-0.5-0.3c-1.6-0.3-3.2-0.5-4.9-0.7c-0.1-0.1-0.2-0.1-0.2-0.1c-3.7-0.5-7.2-1-10.9-1.5c-0.1,0-0.2,0-0.2,0
	c-0.1,0-0.1,0-0.2-0.1c-4-0.5-7.9-0.9-12-1.4C20.2,51.6,18.3,51.4,16.8,50.1z M20.9,58.2c0.5-0.4,0.9-0.8,1.4-1
	c1.6-0.8,3.4-0.7,5-0.5c1.9,0.3,3.9,0.7,5.8,1.1c3.9,0.7,7.8,1.5,11.7,2.1c3,0.6,6.3,1.6,9.5,1.4c0,3,0,5.9,0,9
	c-7.3-1.2-14.6-2.3-22-3.5c-2-0.3-3.9-0.6-5.9-1c-1.8-0.3-3.7-0.3-5.3-1c-0.5-0.2-0.8-0.5-1.1-0.9l0,0c-0.1-0.1-0.1-0.2-0.2-0.4
	c0-0.2,0-0.4,0-0.5C19.7,61.4,20.1,59.6,20.9,58.2z M30.3,81.9c-3.8-0.7-7.6-1.5-11.4-2.4c-0.6-0.2-1.4-0.3-1.8-1.1
	c-0.4-0.7-0.3-1.9-0.2-2.6c0.1-0.7,0.2-1.5,0.5-2.2c0-0.2,0-0.3,0.1-0.5c0.5-1.4,1.5-2,2.6-2.2c1,0,2,0.2,3,0.4H23
	c3.6,0.4,7.2,0.8,10.8,1.3l0,0l0,0c1.7,0.2,3.4,0.4,5,0.7c2.8,0.5,5.6,1.2,8.4,1.9c1.2,0.3,2.4,0.6,3.7,0.7
	c-0.1,0.2-0.2,0.4-0.2,0.7l0.7,8.8C44.4,84.2,37.3,83.2,30.3,81.9z M53.7,84.5c-0.2-2.7-0.4-5.5-0.6-8.3c0-0.2-0.1-0.4-0.2-0.6
	c0.6,0,1.3-0.1,1.9-0.2c0.1-0.1,0.2-0.2,0.3-0.3c0.4-0.4,0.8-0.8,1.3-1.2c0-0.1,0-0.1,0-0.2c0.1,0,0.2-0.1,0.3-0.2
	c7.8-6.3,15.5-12.7,23.3-19C80,57.4,80,60.2,80.2,63c0,0.1,0,0.3,0.1,0.4C71.5,70.5,62.7,77.5,53.7,84.5z M83.4,48.5
	c-8.9,7.3-17.9,14.6-26.8,21.9c0-0.1,0-0.1,0-0.2c0-3.1,0-6.2,0-9.4c3.3-0.9,6-3.6,8.8-5.9c6-5,12-10,18.1-15c0.1,2.5,0,5.2-0.2,7.7
	C83.1,48,83.2,48.3,83.4,48.5z"/>
</svg>
