<?xml version="1.0" encoding="utf-8"?>
<!-- Generator: Adobe Illustrator 25.2.3, SVG Export Plug-In . SVG Version: 6.00 Build 0)  -->
<svg version="1.1" id="Layer_1" xmlns="http://www.w3.org/2000/svg" xmlns:xlink="http://www.w3.org/1999/xlink" x="0px" y="0px"
	 viewBox="0 0 100 100" style="enable-background:new 0 0 100 100;" xml:space="preserve">
<path d="M34.1,13.6C34.2,13.6,34.2,13.4,34.1,13.6L34.1,13.6z M90.8,63.1c-0.4-9.7-1.6-19.3-3.1-28.9c0.4-0.7,0.3-1.6-0.4-2
	c-0.6-4.1-1.4-8.3-2.1-12.5c-0.1-0.7-1-1.2-1.8-1.2H72.6c-0.4-1.6-1.4-3.1-3-4c-1.9-1-4.4-0.9-6.1,0.3c-1.3,0.9-1.6,2.5-1.4,3.8h-2
	c-0.3-1.7-1.1-3.1-2.9-3.9c-2-0.9-4.4-1.1-6.4-0.1c-1.1,0.6-1.9,1.5-2.4,2.6c-0.3,0.6-0.3,1.1-0.3,1.8h-1.6
	c-0.3-1.2-0.9-2.3-1.9-3.2c-1.4-1.3-3.6-2.1-5.6-1.6c-2.1,0.7-3.9,2.9-3,4.9c0,0.1,0.1,0.2,0.3,0.3h-0.6c-1-3.2-5.1-5.8-8.8-3.9
	c-1.8,0.9-3,2.7-2.9,4.5c-1.6,0.1-3.1,0.1-4.8,0.2c-1.8,0.1-2.3,1.8-1.5,2.8c-1.8,12.5-2.1,25.1-1.1,37.7C17,66.9,17.9,73,19,79.3
	c0.3,1.5,0.6,3,0.9,4.5c0.1,0.7,0.3,1.7,0.6,2.2c0.5,0.7,1.4,0.9,2.1,1.1c3,0.9,6.1,1.3,9.3,1.6c6.9,0.4,13.7-0.6,20.5-1.5
	c7.3-0.9,14.3-1.3,21.6-1c3.5,0.1,7.2,0.4,10.7,0.4c3.1,0.1,5.1-1.3,5.5-4.2C91.1,76,91,69.4,90.8,63.1z M84.6,65.1
	c-3.3,1.2-6.5,2.5-9.7,3.8c-0.4-0.3-0.8-0.4-1.4-0.6c-1-0.1-1.9-0.1-2.9,0c0-1.7,0.1-3.3,0.1-5.1c1-0.6,2-1,2.9-1.6
	c3.5-1.8,7-3.6,10.5-5.2C84.4,59.3,84.5,62.2,84.6,65.1z M83.5,45.8c0.3,3.1,0.5,6.2,0.6,9.4c-4.5,2.2-8.9,4.5-13.4,6.7
	c0-2.9-0.1-5.8-0.4-8.7c0.5-0.1,0.8-0.3,1.1-0.6C75.4,50.4,79.5,48,83.5,45.8z M42.6,46.4c-1,0.2-2.1,0.6-3.1,0.9
	c2.5-1.8,5.1-3.6,7.7-5.4c1.9-1.3,3.9-2.6,5.9-3.9c5-0.4,9.9-0.9,14.9-1.3c-5.4,3.3-10.8,6.7-16.1,10C48.8,45.8,45.6,45.9,42.6,46.4
	z M50.9,68c-2.4,1.8-5.6,2.2-8.7,1.7c3-1.7,6-3.5,8.9-5.2c0.3,0.3,0.5,0.8,0.6,1.2C51.9,66.4,51.6,67.4,50.9,68z M53.7,57.3
	c0.9-0.8,1.6-1.7,2-2.7c0.6-0.9,0.8-1.9,0.6-2.8c0.9-0.6,1.9-1.2,2.8-1.8L59,50.1c-0.3,0.3-0.5,0.7-0.5,1c0.3,0.1,0.4,0.2,0.4,0.4
	c-0.1,0.7-0.6,1.5-0.4,2.1c0.1,0.2,0.1,0.4,0.4,0.6c-0.1-0.1,0.3,0.1,0.1,0.1c0.1,0,0.1,0,0.3,0.1c0.1,0,0,0,0.1,0
	c1.6,0.1,3-1.1,4.4-1.7c0.1,0,0.3,0,0.3-0.1c0.5-0.3,0.9-0.7,1.3-1c0,1,0.1,2.1,0.1,3.1c-3.5,2-7,4-10.5,6.1
	c-0.6-0.7-1.5-1.2-2.5-1.7c-0.1,0-0.1-0.1-0.3-0.1C52.7,58.6,53.4,57.9,53.7,57.3z M55.6,61.8c3.3-1.9,6.5-3.8,9.8-5.7
	c0.1,2.8,0.3,5.6,0.4,8.4c-3.5,1.8-6.9,3.7-10.4,5.6c0.5-0.7,0.9-1.6,1.1-2.3C57.3,65.6,56.9,63.5,55.6,61.8z M56.1,50.6
	c-0.5-1.3-1.5-2.5-3-3.2c2.6-1.7,5.3-3.3,7.9-4.9c3.1-1.9,6.3-3.8,9.5-5.7c2.6-0.2,5.4-0.4,8-0.7C71.1,40.8,63.5,45.7,56.1,50.6z
	 M69.2,43.3c3.9-2.6,7.9-5.1,11.8-7.7c0.3,0,0.6,0,0.9-0.1c0.1,0,0.3,0,0.4-0.1c0.4,3,0.8,6,1,9c-4.4,2.5-8.7,4.9-13,7.4
	c-0.1-1.7-0.4-3.3-0.5-5c-0.1-0.9-0.8-1.7-1.9-1.7c-0.4,0-0.6,0.1-1,0.2c-0.3-0.1-0.5-0.2-0.8-0.2C67.2,44.7,68.2,44,69.2,43.3z
	 M65.8,17.8c0-0.1,0-0.1,0-0.2s0.1-0.1,0.1-0.2c-0.1,0.2,0,0.1,0.1,0l0.1-0.1c-0.1,0,0.1,0,0.3-0.1c0,0,0.1,0,0.3,0
	c0.1,0,0.1,0,0.3,0s0.5,0.1,0.4,0.1c0.1,0,0.3,0.1,0.4,0.1s0.1,0.1,0.3,0.1c0,0,0.4,0.3,0.3,0.3c0.1,0.1,0.1,0.2,0.3,0.3
	c0,0,0.1,0.2,0.1,0.3H66c-0.1-0.1-0.3-0.3-0.4-0.4c0,0-0.1-0.1-0.1-0.2C65.8,17.9,65.8,17.8,65.8,17.8z M52,18.4c0-0.1,0-0.1,0-0.2
	c0-0.1,0.1-0.3,0.1-0.3c0-0.1,0.1-0.1,0.1-0.2c0.1,0,0.1-0.1,0.3-0.1c0,0,0.1,0,0.1-0.1c0,0,0,0,0.1,0l0.5-0.1H54c0,0,0,0,0.1,0
	c0.3,0,0.5,0.1,0.8,0.1c0.1,0,0.1,0,0.1,0c0.1,0,0.1,0.1,0.3,0.1c0.1,0.1,0.3,0.1,0.5,0.2c0.1,0.1,0.1,0.1,0.3,0.2c0,0,0,0,0.1,0.1
	c0,0.1,0.1,0.1,0.1,0.2c0,0,0,0,0,0.1c0,0.1,0,0.1,0.1,0.2c-1.5,0-2.9,0.1-4.4,0.1c0,0,0-0.2-0.1-0.2C52,18.4,52,18.3,52,18.4z
	 M39.6,18.2c0-0.1,0-0.1-0.1-0.2c0-0.1,0-0.1,0.1-0.2c0,0,0-0.1,0.1-0.1c0,0,0,0,0-0.1c0.1-0.1,0.4-0.2,0.1-0.1
	c0.1,0,0.1-0.1,0.3-0.1h0.5c0.1,0,0.3,0.1,0.4,0.1c0,0,0.4,0.1,0.4,0.2c0.1,0,0.1,0.1,0.3,0.1c0.1,0.1,0.3,0.2,0.4,0.3
	c0,0,0.1,0.1,0.1,0.2c0,0,0,0,0.1,0.1c0.1,0.1,0.1,0.2,0.3,0.4c0,0.1,0.1,0.2,0.1,0.2v0.1c-1,0-2.1,0.1-3.1,0.1
	C39.7,19,39.7,18.5,39.6,18.2z M27.5,19.6c0-0.1,0.1-0.2,0.1-0.3c0-0.1,0.1-0.2,0.1-0.2c0-0.1,0.1-0.2,0.1-0.2
	c0.1-0.1,0.1-0.1,0.3-0.2l0.1-0.1c0.1,0,0.3-0.1,0.4-0.2c0,0,0.1-0.1,0.3-0.1s0.3,0,0.3,0h0.5c0.1,0,0.3,0.1,0.4,0.1
	c0.1,0,0.1,0.1,0.3,0.1c0.1,0,0.1,0.1,0.3,0.1l0.1,0.1l0.3,0.2c0.1,0.1,0.3,0.2,0.3,0.3c0,0.1,0.1,0.1,0.1,0.2
	c0,0.1,0.1,0.1,0.1,0.2c-1.4,0.1-2.8,0.1-4.1,0.2C27.5,19.7,27.5,19.6,27.5,19.6z M22.8,23.6c0-0.1,0-0.2,0-0.2
	c2.8-0.1,5.6-0.2,8.4-0.4c0,0,0,0.1-0.1,0.1c0,0.1,0,0.1-0.1,0.1c0,0,0,0-0.1,0.1c-0.3,0.2-0.5,0.6-0.9,0.8
	c-0.1,0.1-0.3,0.1-0.4,0.2c-0.1,0.1-0.4,0.2-0.6,0.3c-0.1,0-0.1,0.1-0.3,0.1c0,0-0.1,0.1-0.3,0.1h-0.1c-0.1,0-0.3,0.1-0.4,0.1
	c-0.5,0.1-0.9,0.2-1.4,0.3c-0.1,0-0.4,0-0.4,0.1h-0.6c-1,0-1.9,0.8-1.9,1.7c0,0.9,0.9,1.7,1.9,1.7c2.3-0.1,4.6-0.7,6.5-1.9
	c1.5-1,2.6-2.5,3.3-4c2.4-0.1,4.6-0.2,7-0.2c0,0.1-0.1,0.1-0.1,0.2c0,0,0,0.1-0.1,0.1L41.9,23c-0.1,0.1-0.3,0.2-0.4,0.3
	c0,0-0.3,0.2-0.4,0.2s-0.3,0.2-0.4,0.2c-0.1,0.1-0.3,0.1-0.5,0.2c0,0-0.1,0-0.1,0.1c0,0,0,0-0.1,0c-0.4,0.1-0.8,0.2-1.1,0.2
	c-1,0.1-1.6,1.2-1.3,2c0.4,1,1.3,1.3,2.3,1.1c3.1-0.4,5.6-2.6,6.4-5.2c3-0.1,5.9-0.2,8.9-0.2l-0.1,0.1c0,0.1-0.5,0.6-0.3,0.2
	c-0.1,0.1-0.3,0.2-0.4,0.3c-0.3,0.2-0.6,0.6-0.9,0.8c-0.1,0-0.1,0.1-0.3,0.1c-0.1,0.1-0.4,0.2-0.5,0.3c-0.3,0.1-0.4,0.2-0.6,0.2
	c0,0-0.1,0-0.1,0.1c0,0,0,0-0.1,0c-0.9,0.3-1.6,1.1-1.3,2c0.3,0.8,1.4,1.5,2.3,1.1c3-1,5.3-3.1,6.4-5.7c3-0.1,6-0.1,9.2-0.1
	c-0.1,0.1-0.1,0.2-0.3,0.3L68,22.2c-0.1,0.1-0.3,0.2-0.4,0.3c-0.1,0.1-0.3,0.2-0.4,0.3c-0.1,0-0.1,0.1-0.3,0.1
	c-0.1,0.1-0.4,0.2-0.5,0.2c0,0-0.3,0.1-0.4,0.1c-0.4,0.1-0.8,0.2-1.3,0.3c-1,0.1-1.6,1.2-1.3,2c0.4,0.9,1.3,1.3,2.3,1.1
	c3.3-0.4,5.8-2.8,6.5-5.5h9.3c0.6,3.3,1.1,6.6,1.6,9.9c-20.3,0.8-40.9,2.1-61.2,4.4C22.3,31.6,22.5,27.6,22.8,23.6z M36.2,39.8
	c-4.9,3.7-9.5,7.5-14.1,11.5C22,47.8,22,44.3,22,41C26.8,40.5,31.4,40.1,36.2,39.8z M22.1,52.8c5.1-4.6,10.7-9,16.2-13.3
	c4-0.3,8.2-0.7,12.2-1.1c-8,5.4-15.9,10.9-23.7,16.7c-1.5,1.1-2.9,2.2-4.4,3.3C22.4,56.6,22.3,54.7,22.1,52.8z M22.5,60
	c3.3-2.5,6.5-4.9,9.8-7.3c-0.3,1.1,1,2.3,2.3,2.1c0.6,0.1,1.3-0.1,1.8-0.4l0.1-0.1c0.1-0.1,0.3-0.2,0.4-0.2c2.3-1.6,4.6-3.1,7.5-3.6
	c0.8-0.1,1.5-0.2,2.4-0.1c-5.1,3.3-10.3,6.7-15.3,10.3c-2.8,1.9-5.5,3.9-8.3,5.8C22.8,64.1,22.6,62.1,22.5,60z M23,67.5
	c8.3-5.9,16.6-11.5,25.1-17.1c0.5,0.1,0.9,0.3,1.3,0.6c0.3,0.1,0.5,0.3,0.8,0.4c0.6,0.4,0.9,1.3,0.9,2v0.3c-1.9,1.2-3.6,2.5-5.5,3.7
	c-0.4,0.1-0.8,0.1-1.1,0.2c-1.8,0.3-3.5,0.6-5.1,1.1c-0.1,0-0.3,0-0.4,0.1c0,0,0,0-0.1,0.1c-0.1,0-0.1,0.1-0.3,0.1h-0.1
	c-0.1,0.1-0.1,0.1-0.3,0.2c0,0,0,0-0.1,0.1c0,0,0,0,0,0.1c-0.1,0.1-0.1,0.2-0.3,0.3c0,0,0,0.1-0.1,0.1c0,0,0,0,0,0.1
	s-0.1,0.2-0.1,0.3c0,0.1,0,0.1,0,0.2c0,0,0,0,0,0.1v0.3c0,0,0,0,0.1,0.1c-0.1,0.6,0,1,0.4,1.5c-1.3,0.8-2.4,1.6-3.6,2.3
	c-3.6,2.5-7.3,4.8-10.8,7.3C23.4,70.7,23.1,69.1,23,67.5z M23.6,73.5c5.4-3.6,10.8-7.3,16.2-10.8c1.5,0,2.9-0.2,4.4-0.2
	c2,0,4.4,0.1,6,1.2c-3.3,1.9-6.4,3.8-9.7,5.7c-0.6-0.2-1.3-0.4-1.9-0.7c-0.1-0.1-0.3-0.1-0.4-0.2c-0.5-0.1-1-0.2-1.5-0.3
	c-1.8-0.4-2.8,1.2-2.3,2.3c0,0.6,0.3,1.1,0.9,1.5c0.1,0.1,0.4,0.1,0.5,0.2c-0.1,0-0.1,0.1-0.3,0.1c-3.8,2.2-7.5,4.6-11.3,6.9
	L23.6,73.5z M33.3,82.9c-2.8-0.1-5.6-0.2-8.4-0.4c-0.1-0.7-0.3-1.3-0.4-2.1c4.3-2.6,8.5-5.1,12.8-7.7c3.4,1.3,7,2.1,10.8,1.6
	c-1.5,0.9-3.1,1.8-4.6,2.7C40.1,78.9,36.7,80.9,33.3,82.9z M35.4,82.9c10-6,20.2-11.7,30.5-17.2c0,1,0.1,2,0.1,3
	c-1.5,0.2-3,0.6-4.4,1c-0.9,0.2-1.3,0.8-1.4,1.6v0.6c0,0.3,0.1,0.7,0.3,0.9c0.3,0.8,1.1,1.5,2.3,1.2c0.3,0,0.4-0.1,0.6-0.1
	c-4,1.9-8,3.9-11.9,6c-1.6,0.9-3.4,1.9-5,2.8C42.8,82.9,39.1,83.1,35.4,82.9z M84.6,79.9c-11.8,1.2-23.6,2.5-35.5,2.9
	c5.9-3.3,12-6.5,18.3-9.3c1.8-0.2,3.5-0.4,5.1-0.8c0.6-0.1,1.1-0.2,1.8-0.3c0.1,0,0.3-0.1,0.4-0.1c0.1,0,0.1,0,0.3-0.1
	c0,0,0,0,0.1,0c0.1,0,0.3-0.1,0.4-0.2c0.3-0.4,0.3-1-0.1-1.6c0-0.1,0.1-0.2,0-0.4v-0.1c0.8-0.3,1.4-0.6,2.1-0.9
	c2.4-1,4.8-1.9,7.2-2.7C84.7,70.9,84.7,75.4,84.6,79.9z"/>
</svg>
