<?xml version="1.0" encoding="utf-8"?>
<!-- Generator: Adobe Illustrator 25.2.3, SVG Export Plug-In . SVG Version: 6.00 Build 0)  -->
<svg version="1.1" id="Layer_1" xmlns="http://www.w3.org/2000/svg" xmlns:xlink="http://www.w3.org/1999/xlink" x="0px" y="0px"
	 viewBox="0 0 100 100" style="enable-background:new 0 0 100 100;" xml:space="preserve">
<path d="M81.5,32.7C74,21.4,62.9,14.7,51.4,14c-6.3-0.4-12.7,1-18.6,3.8c-5.5,2.7-11.2,6.5-15.2,12.1c-4.6,6.3-5.9,14.6-2.9,22.3
	C17.8,60.4,24.1,65,30.2,69c-1.4,5.3-2.6,10.9-3.5,16.4c-0.2,1,0.1,1.9,0.7,2.4c0.5,1,1.4,1.6,2.3,0.9c4.8-3.6,9.2-8,13.3-12.9
	c0,0,0-0.1,0.1-0.1c11.2,3.6,23.3,1.4,33.3-6c4.7-3.5,10.3-8.6,11.4-15.9C89,46,85.2,38.4,81.5,32.7z M82.2,52.7
	c-1.2,6.8-7.6,11.7-12.7,14.5c-5.7,3.1-12.1,4.5-18.3,3.9c-0.2,0-0.4,0-0.6-0.1c9-4.8,17.8-10.1,26.2-16c1.9-1.3,3.7-2.6,5.5-4
	C82.3,51.6,82.2,52.1,82.2,52.7z M82.3,49.4C72.8,56.3,63,62.6,53.1,68.1c-1.6,0.8-3.1,1.7-4.7,2.5c-2.5-0.5-5-1.2-7.3-0.3
	c-1.4,0.6-2.6,1.7-3.7,2.9c-1.4,1.5-2.7,3.1-4.1,4.6c-0.5,0.6-1,1.2-1.5,1.8c-0.3-2.1,0.9-4.2,1.8-6.2c13-7.6,25.9-15.3,38.7-23.4
	c2.9-1.8,5.9-3.8,8.8-5.6C81.6,45.9,82.1,47.7,82.3,49.4z M31.5,63.5c-1.1-1-2.3-1.8-3.5-2.7C40.2,53,52.3,45.3,64.6,37.5
	c3-1.9,5.9-3.8,8.8-5.7c0.4,0.4,0.8,0.9,1.1,1.3c1.1,1.3,2.1,2.8,3,4.2c-12.1,7.4-24.1,14.8-36.1,22.2c-2.9,1.8-5.8,3.6-8.7,5.4
	C32.3,64.4,31.9,63.9,31.5,63.5z M66.4,25.6C54.5,34.3,42.4,42.5,30,49.9c-2.9,1.7-5.7,3.4-8.6,5c-1.2-1.5-2.3-3.3-3-5.2
	c10.7-8.2,21.8-15.9,33.1-22.9c2.7-1.7,5.4-3.2,8.1-4.8C62,22.9,64.3,24.2,66.4,25.6z M59,32.7c2.9-2.1,5.8-4.1,8.6-6.2
	c1.7,1.3,3.3,2.7,4.8,4.3c-12.3,7.9-24.6,15.8-37,23.7c-2.9,1.9-5.8,3.7-8.6,5.5c-1.2-0.9-2.4-1.8-3.4-2.9c-0.4-0.4-0.8-0.8-1.1-1.2
	C34.8,48.8,47,41.1,59,32.7z M79.7,41.2c0.3,0.6,0.6,1.2,0.8,1.8c-12.8,8.3-25.8,16.3-38.9,23.9c-2.4,1.5-4.9,2.9-7.4,4.3
	c0.4-1.9,0.1-3.7-0.8-5.2C45.6,58.5,57.8,51,70,43.5c2.7-1.7,5.5-3.4,8.2-5C78.7,39.4,79.2,40.3,79.7,41.2z M58,21.4
	c-11.1,6.5-22,13.7-32.6,21.5c-2.5,1.8-5,3.6-7.4,5.5c-0.1-0.2-0.1-0.4-0.2-0.6c-0.4-1.4-0.5-2.8-0.5-4.1
	c8.1-7.5,16.6-14.3,25.5-20.2c2-1.3,4-2.6,6.1-3.8C52,19.8,55,20.4,58,21.4z M17.5,41.6c0.7-4.8,3.6-9,6.8-12.2
	c4.8-4.7,10.8-7.7,17-9c1.6-0.3,3.2-0.5,4.8-0.6c-8.2,5.1-16,10.8-23.4,17.3C20.9,38.6,19.2,40.1,17.5,41.6z"/>
</svg>
