<?xml version="1.0" encoding="utf-8"?>
<!-- Generator: Adobe Illustrator 25.2.3, SVG Export Plug-In . SVG Version: 6.00 Build 0)  -->
<svg version="1.1" id="Layer_1" xmlns="http://www.w3.org/2000/svg" xmlns:xlink="http://www.w3.org/1999/xlink" x="0px" y="0px"
	 viewBox="0 0 100 100" style="enable-background:new 0 0 100 100;" xml:space="preserve">
<path d="M86.4,12.9c-10.3-0.1-20.6,0-30.9,0.1c-8.2,0.1-16.4-0.1-24.6,0c-2.5,0.1-5.1,0.2-7.7,0.3c-0.1,0-0.1,0-0.2,0
	c-0.8,0.1-1.6,0.2-2.5,0.2h-1.1c-0.7,0.1-1.5,0-2.2,0s-1.4,0.1-2.1,0.1h-0.3c-0.2,0.2-0.4,0.3-0.6,0.4c0,0.4,0,0.8-0.1,1.3
	c-1,5-1.4,10.4-1.5,15.7c0.1,0.4,0.1,0.8,0.1,1.2c-0.1,1.1-0.1,2.2-0.2,3.3c0,2.3,0,4.6,0.1,6.9c0,1.3,0,2.6-0.1,3.8v6.6
	c0,3.8-0.4,7.5-0.4,11.2c0,1.7,0,3.4-0.1,5.1c0.2,1.3,0.1,2.5,0,3.8v6.2c0.1,1.7,0.2,3.5,0.3,5.2c0.4,0.9,0.9,1.6,1.6,2.3h0.5
	C26,88,37.7,87.8,49.3,87.7C61,87.6,72.5,87.8,84,87.6h0.1c0.1-0.2,0.2-0.5,0.3-0.8c0.1-13.4,1.5-26.8,1.7-40.2
	C86.2,35.4,85.8,24,86.4,12.9z M79.1,21c0.1,0.1,0.2,0.2,0.2,0.3c0,0.5-0.1,0.9-0.1,1.4c-2.1,2.2-4.3,4.4-6.6,6.3
	c-3.2-0.1-6.5-0.1-9.7-0.1c3.5-2.6,6.7-5.5,9.9-8.4C75,20.7,77,20.9,79.1,21z M79.4,28v1.4c-1.8-0.1-3.7-0.1-5.5-0.2
	c1.8-1.6,3.7-3.3,5.4-5.2C79.3,25.4,79.3,26.8,79.4,28z M68.9,20.6c0.1,0,0.3,0,0.5-0.1c0.8,0,1.5,0.1,2.3,0.1
	c-3.2,3-6.6,5.7-9.9,8.6c-3.5,0-6.9,0.1-10.4,0.2c4.4-3,8.5-6.1,12.7-9.4C65.7,20.1,67.3,20.3,68.9,20.6z M54.3,19.3
	c-0.1,0-0.1,0.1-0.2,0.1c0.1,0,0.3-0.1,0.5-0.1c2.8,0.1,5.4,0.2,8.1,0.6c-4.3,3.3-8.7,6.5-13.2,9.5c-3.7,0.1-7.5,0.3-11.2,0.7
	c4.3-3.4,8.5-7.1,12.6-10.8H54.3z M49.8,19.2c-4.2,3.8-8.4,7.5-12.8,11c-1.6,0.1-3.1,0.2-4.7,0.5c-1.3,0.1-2.5,0.2-3.8,0.3
	c3.9-4,8-7.9,12.1-11.7C43.6,19.3,46.8,19.2,49.8,19.2z M19.9,21.1c0-0.3-0.1-0.6-0.3-0.7c2.3-0.1,4.6-0.3,6.9-0.5
	c-2.4,2.2-4.7,4.4-7.2,6.4C19.5,24.7,19.6,22.9,19.9,21.1z M19.2,27.7c2.9-2.6,5.8-5.2,8.5-7.8c1.3-0.1,2.7-0.1,3.9-0.2
	c-4.3,3.8-8.5,7.5-12.8,11.2C18.9,29.9,19.1,28.8,19.2,27.7z M33.1,19.6c2.1-0.1,4-0.1,6.1-0.2c-4.2,3.8-8.3,7.7-12.1,11.8
	c-2.3,0.2-4.7,0.6-7,0.8c-0.5,0-0.9,0.1-1.3,0.1C23.6,28,28.4,23.8,33.1,19.6z M79.9,57.1c0,2.6-0.2,5.1-0.3,7.7
	c-0.1,2.6,0,5.1-0.2,7.7c-0.1,2.6-0.6,5.2-0.4,7.8c0.1,0.8-0.5,1.1-1.1,1.1c-15.7,0.8-31.4,0.9-47,0.2c-4.4-0.2-8.9-0.5-13.3-0.7
	v-1.1c-0.5-3.3-0.4-6.7-0.4-10.1c0-3.5-0.2-7,0.1-10.5c0.3-3.6,0.3-7.2,0.5-10.7c0.1-1.2,0.1-2.3,0.2-3.4c0,0,0-0.1-0.1-0.1
	c0-0.7,0.1-1.3,0.1-2c0.1-1.6,0.1-3.3,0-4.9c0-0.4,0.2-0.7,0.5-0.9v-0.3c4-0.6,8.1-1,12.1-1.5c0.2,0,0.3,0.1,0.6,0
	c4-0.7,8.1-0.5,12.1-0.3c3.9,0.1,7.8-0.1,11.9-0.3c8.1-0.3,16.2-0.7,24.2-1c0,2.4,0.1,4.7,0.2,7.1c0,0.1,0,0.1,0,0.2
	c0.1,2.7,0.2,5.4,0.3,8c0,0,0,0,0,0.1C80.2,51.8,79.9,54.4,79.9,57.1z M33.2,61.9c-0.6-1-1.1-2-1.7-3c-0.4-0.9-1.1-1.8-1.3-2.8
	c0-1.1,0.8-1.7,1.4-2.2l8.1-8.1c1.6-1.6-0.9-4-2.4-2.4c-2.1,2.1-4.2,4.2-6.3,6.3c-1.7,1.7-4.5,3.7-4.2,6.5c0.1,1.2,0.8,2.3,1.3,3.4
	c0.6,1.2,1.2,2.4,1.9,3.6c1.4,2.4,3,4.6,4.7,6.7c0.6,0.7,1.8,0.6,2.4,0c0.7-0.7,0.6-1.7,0-2.4C35.7,65.7,34.4,63.8,33.2,61.9z
	 M54.9,48.6c-0.9-0.5-1.8-0.1-2.4,0.6c-4,5.2-8.6,9.9-13.6,14.1c-0.7,0.6-0.6,1.8,0,2.4c0.7,0.7,1.7,0.6,2.4,0
	c5.2-4.4,10-9.4,14.1-14.8C56.1,50.2,55.7,49,54.9,48.6z M70.2,54.9C66.8,51,63.4,47,60,43.1c-0.6-0.7-1.8-0.6-2.4,0
	c-0.7,0.7-0.6,1.7,0,2.4c3,3.5,6.1,7,9.1,10.5c-4.5,3.6-8.6,7.7-12.2,12.2c-0.6,0.7-0.7,1.7,0,2.4c0.6,0.6,1.9,0.7,2.4,0
	c3.9-4.9,8.4-9.3,13.4-13.2c0.5-0.3,0.6-0.9,0.4-1.5C70.6,55.6,70.5,55.2,70.2,54.9z"/>
</svg>
