<?xml version="1.0" encoding="utf-8"?>
<!-- Generator: Adobe Illustrator 25.2.3, SVG Export Plug-In . SVG Version: 6.00 Build 0)  -->
<svg version="1.1" id="Layer_1" xmlns="http://www.w3.org/2000/svg" xmlns:xlink="http://www.w3.org/1999/xlink" x="0px" y="0px"
	 viewBox="0 0 100 100" style="enable-background:new 0 0 100 100;" xml:space="preserve">
<path d="M83.8,43.9c-1.2-1.3-2.6-2.2-4.2-2.9c-1.3-0.5-3.6-0.5-4.2-1.9c-0.3-0.7-0.4-1.6-0.4-2.3c-0.1-0.9-0.2-1.9-0.4-2.7
	c-0.4-1.7-1.1-3.4-1.9-4.9c-3.5-6-10.1-10.4-17.3-10.1c-7.4,0.2-14.3,4.8-17.5,11.3c-3.9-1.6-8.5-2.4-12.2-0.1
	c-2.9,1.9-4.8,5.3-4,8.6c-2.6,1.4-5.2,3-7,5.3c-2.3,2.9-3.1,6.4-2.4,10C13.8,61.6,20.8,66,27.8,67c4.8,0.7,9.7,0.2,14.5-0.3
	c0.4,0.1,0.9,0.1,1.4,0.1c0.5,0,1-0.1,1.4-0.4c0.5-0.3,0.8-0.8,0.9-1.4c0.1-0.5,0.1-1.2-0.4-1.5c-0.1,0-0.1-0.1-0.1-0.1
	c0.3-0.1,0.6-0.3,0.9-0.4c0.2,4.3,0.3,8.5,0.5,12.8c-0.9-1.4-2.1-2.6-3.5-3.6c-0.3-0.2-0.8-0.2-1.2-0.2c-0.3,0.1-0.6,0.3-0.8,0.5
	c-1.1,0.4-1.8,1.9-0.7,2.9c1.4,1.5,3,3,4.4,4.5c1.4,1.4,2.8,3.3,5,2.5h0.1c0.4,0,0.8-0.2,1.2-0.5c0.3-0.1,0.6-0.2,0.8-0.4
	c2.1-1.8,4.2-3.6,6.4-5.4c0.1,0,0.1-0.1,0.1-0.2c0.4-0.2,0.7-0.5,0.8-0.9c0.1-0.1,0.2-0.1,0.3-0.2c0.8-0.6,0.6-1.9,0-2.5
	c-0.3-0.3-0.6-0.4-1-0.5c-0.1-0.1-0.3-0.2-0.4-0.2c-1.1-0.3-2,0.3-2.8,1.1c-0.5,0.5-1,1-1.6,1.5c-0.3,0.2-0.5,0.5-0.8,0.7
	c0,0,0,0,0,0c0,0,0,0,0,0c-0.1,0.1-0.2,0.1-0.2,0.2c-0.1,0.1-0.3,0.2-0.4,0.3c-0.3,0.2-0.6,0.4-0.9,0.6C51.3,71.1,51,66.1,50.9,61
	c2.3-1.2,4.5-2.4,6.7-3.7c5.1-3,10-6.2,15.3-8.9c1.4-0.7,2.8-1.4,4.2-2c0.7,0.3,1.5,0.6,2.1,1c1.2,0.7,2,1.9,2.4,3.2
	c-6.5,3.5-13,6.9-19.5,10.4c0,0-0.1,0-0.1,0.1c-2.6-0.2-5.2-0.4-7.7,0c-1.4,0.2-2.7,1.1-2.7,2.6c0,0.6,0.2,1.1,0.5,1.5
	c0.1,0.2,0.2,0.5,0.4,0.6c0.4,0.4,1.1,0.4,1.7,0.4c0.8,0,1.7,0.1,2.4,0.1c0.9,0,1.8,0.1,2.7,0.1c0.3,0,0.5,0.1,0.8,0.1
	c1.4-0.1,16.5,2.1,22.5-3.7c2.6-2.5,4.4-5.8,4.5-9.5C87.3,49.8,86.1,46.4,83.8,43.9z M17.9,48.4c1-2.4,3-3.3,5.2-4.5
	c1.1-0.5,2.1-1.2,2.8-2.3c0.8-1.3,0.7-2.6,0.8-4c0.1-3.3,3.6-4,6.3-3.4c2.8,0.7,5.7,2,8.4,0.4c2.3-1.4,3.1-4.3,4.9-6.1
	c1.8-1.8,4.1-3.1,6.5-3.7c2.3-0.6,4.6-0.5,6.8,0.2c-5.3,2.8-10.5,5.6-15.7,8.5c-6.6,3.7-13,7.4-19.3,11.4c-2.4,1.5-4.8,3-7.2,4.5
	C17.6,49,17.7,48.7,17.9,48.4z M17.3,50.4c5.3-3.4,10.7-6.8,16.1-10c6.4-3.8,12.9-7.5,19.4-11c2.6-1.4,5.2-2.8,7.7-4.1
	c1.8,0.7,3.4,1.7,4.7,3.1c-6.1,3.4-12.2,6.9-18.2,10.4c-6.8,3.9-13.7,7.8-20.6,11.7c-2.8,1.6-5.6,3.2-8.4,4.7
	C17.3,53.6,17,52,17.3,50.4z M18.4,55.8c5.8-3.3,11.7-6.6,17.5-9.9c6.8-3.9,13.7-7.8,20.6-11.7c3.1-1.8,6.2-3.5,9.3-5.3
	c0.2,0.2,0.4,0.4,0.6,0.7c1,1.3,1.6,2.7,2.1,4.1c-6.1,3.5-12.1,7-18.2,10.3c-6.8,3.8-13.6,7.6-20.4,11.2c-2.7,1.5-5.4,2.9-8.1,4.3
	C20.3,58.5,19.2,57.3,18.4,55.8z M29.3,62.6c4.8-2.6,9.7-5.3,14.5-7.9c0.8-0.4,1.5-0.8,2.3-1.2c0,1.2,0.1,2.3,0.1,3.5
	c-2,1.1-3.9,2.2-5.9,3.3c-1.4,0.8-2.8,1.6-4.3,2.4C33.8,62.8,31.5,62.9,29.3,62.6z M45.4,62.8c-0.1-0.8-0.8-1.6-1.9-1.4
	c-1.9,0.4-3.9,0.7-6,1c2.9-1.6,5.8-3.2,8.6-4.8c0.1,1.6,0.1,3.1,0.2,4.7C46.1,62.5,45.7,62.6,45.4,62.8z M50,50.4
	c-0.5-0.3-1.2-0.4-1.7-0.2c-0.1,0-0.2,0-0.4,0c-0.7,0-1.1,0.4-1.3,0.8c-0.3,0.2-0.6,0.6-0.5,1.2c0,0.1,0,0.2,0,0.4
	c-3.6,2-7.2,3.9-10.8,5.9c-2.4,1.3-4.8,2.6-7.2,3.9c-1.4-0.3-2.7-0.7-4-1.3c-0.6-0.3-1.2-0.7-1.8-1.1c5.6-2.9,11.3-5.9,16.9-8.9
	c6.8-3.7,13.6-7.4,20.3-11.2c3.1-1.7,6.2-3.5,9.2-5.3c0.2,0.8,0.4,1.6,0.5,2.4c0.2,0.9,0.3,1.8,0.6,2.7c-5.3,2.9-10.5,5.7-15.8,8.6
	C52.7,49,51.3,49.7,50,50.4z M62.5,44.4c2.5-1.3,5-2.7,7.4-4c0.4,1.1,0.8,2.1,1.6,2.9c-4.8,2.5-9.6,5-14.3,7.5
	c-2.2,1.2-4.3,2.4-6.5,3.5v-2.5c0-0.4-0.1-0.6-0.2-0.9C54.5,48.7,58.5,46.6,62.5,44.4z M66,51.3c-5,3-10,6.1-15.3,8.9
	c0-1.7-0.1-3.3-0.1-5c4.8-2.6,9.5-5.1,14.3-7.6c2.4-1.3,4.7-2.5,7.1-3.7c0.1,0.1,0.2,0.2,0.3,0.3c1.1,0.9,2.4,1.4,3.7,1.9
	C72.6,47.6,69.3,49.4,66,51.3z M81.7,53.8c-1.5,7.1-10.4,7.9-16.2,7.6c-0.8,0-1.6-0.1-2.4-0.2c4.8-2.6,9.7-5.2,14.5-7.8
	c1.4-0.7,2.7-1.5,4.1-2.2C81.8,52.1,81.8,53,81.7,53.8z"/>
</svg>
