<?xml version="1.0" encoding="utf-8"?>
<!-- Generator: Adobe Illustrator 25.2.3, SVG Export Plug-In . SVG Version: 6.00 Build 0)  -->
<svg version="1.1" id="Layer_1" xmlns="http://www.w3.org/2000/svg" xmlns:xlink="http://www.w3.org/1999/xlink" x="0px" y="0px"
	 viewBox="0 0 100 85.6" style="enable-background:new 0 0 100 85.6;" xml:space="preserve">
<path d="M91.7,48.6c0-2.3,0.1-4.6,0.1-7c0-2.3-0.2-4.6-0.3-6.9c-0.1-4.5,0.1-8.9-0.1-13.4c0-0.5-0.1-1.1-0.1-1.6
	c-0.1-0.2-0.1-0.5-0.1-0.7c-0.1-1.4-0.3-2.9-0.5-4.3c-0.1-0.1-0.2-0.3-0.1-0.9c-0.3-1.8-0.5-3.5-0.8-5.3C84.4,8.3,79.1,8,73.7,8.2
	c-2.8,0.1-5.5,0.1-8.3,0.1c-2.7,0-5.5,0.2-8.2,0.2c-5.4-0.1-10.8,0-16.2-0.2c-1.4-0.1-2.7-0.1-4.1-0.1c-1.4,0.1-2.7,0.3-4.1,0.3
	c-1.3,0-2.6-0.2-4-0.1c-1.2,0-2.5,0.2-3.7,0.2c-4.9,0.2-9.8-0.5-14.7-0.4c-0.3,2.2,0,4.4-0.1,6.6c-0.1,2.7-0.3,5.4-0.4,8
	C10,27.6,10,32.3,9.6,37c-0.4,4.7-0.1,9.5-0.1,14.3c0,4.8-0.4,9.5-0.4,14.3c0,3,0.1,6.2-0.1,9.2c0.1,0.2,0.2,0.3,0.2,0.5
	c0,0.8,0.5,1.6,1.4,2.1c0.1,0.1,0.2,0.2,0.4,0.3c2.4,0.2,4.9,0.4,7.3,0.6c2.8,0.2,5.5,0.2,8.3,0.3c2.9,0.1,5.7,0.2,8.6,0.2
	c2.1,0,4.2-0.1,6.2,0c0,0,0.1,0,0.1,0c4.3-0.6,8.4,0.1,12.7,0c2-0.1,4-0.3,6.1-0.3c2.2,0,4.4,0,6.6,0c4.3,0,8.6,0,12.9,0.1
	c2,0,4-0.1,6-0.3c1.8-0.1,3.5-0.1,5.3-0.1c0-0.2,0-0.3,0-0.5c0.8-5,0.4-10.2,0.6-15.2C92,57.8,91.8,53.2,91.7,48.6z M78,17.9
	c0.4-0.5,0.7-1,0.7-1.2c0.1-0.5,0.9-0.8,1.9-0.8c0.5,0,0.9,0.1,1,0.1c0.1,0.1-0.2,0.5-1,1.1c-0.3,0.3-0.7,0.7-0.8,0.9
	c-0.1,0.2-0.2,0.3-0.3,0.3c-0.2-0.1-1.4,1-1.4,1.3c0,0.1-0.1,0.2-0.2,0.2c-0.1,0-0.4,0.1-0.6,0.3c-0.3,0.2-0.4,0.2-0.4,0.1
	C76.9,19.6,77.3,18.8,78,17.9z M66.5,19.3c0-0.1,0.1-0.2,0.1-0.2c0.1,0,0.1-0.1,0.1-0.2c0-0.2,0.1-0.5,1.2-2.3l0.4-0.7
	c0.1-0.4,0.3-0.7,0.5-1l2.1,0c1.6,0,3.3,0,4.9,0c0,0.1,0.1,0.2,0.1,0.4c0,0.3-0.2,0.8-0.4,1c-0.5,1.6-1.6,2.9-2.7,4.1
	c-0.5,0.9-1,1.8-1.5,2.7c-0.9,1.5-2.1,3.1-3.4,4.1c-0.2,0.3-0.7,0.8-1.6,1.5c-0.4,0.3-0.7,0.6-0.8,0.8c-0.1,0.1-0.3,0.3-0.5,0.4
	s-0.6,0.3-0.8,0.5c-0.2,0.2-0.9,0.8-1.5,1.3c-0.6,0.5-1.3,1.1-1.5,1.3c-0.5,0.4-0.7,0.5-0.7,0.2c0-0.1,0.1-0.2,0.1-0.2
	c0.3,0,0.9-1.7,0.9-2.7c0-0.5,0.1-1,0.1-0.9c0.2,0.1,1-1.2,1.6-2.6c0.2-0.4,0.5-1,0.6-1.3c0.1-0.1,0.2-0.5,0.4-0.9
	c0.1-0.6,0.3-1.1,0.6-1.4c0.1-0.2,0.2-0.4,0.2-0.5c0.5-1.3,1.1-2.5,1.2-2.6C66.4,19.6,66.5,19.4,66.5,19.3z M57.9,15.2
	c0.1-0.1,0.2-0.2,0.3-0.4c2.6,0,5.2,0,7.7,0c0.1,0.4,0,0.9-0.4,1.3c-1.6,1.5-1.8,3.7-2.7,5.7c-0.9,2.2-2.1,4.2-3.3,6.3
	c-1.2,2.1-2.4,4.2-3.5,6.3c-0.7,1.3-1.3,2.7-2.2,3.9c0,0,0,0.1,0,0.1c0,0.1-0.2,0.2-0.5,0.5c-0.1,0.1-0.2,0.2-0.3,0.3
	c-0.1,0.1-0.2,0.2-0.3,0.2c-0.2,0.2-0.4,0.3-0.7,0.3c-0.8,0.5-1.6,1.2-2.1,1.6c-1.1,1.1-1.6,1.1-2.4,0.2c-0.3-0.3-0.6-0.9-0.7-1.2
	c0-0.1-0.1-0.3-0.1-0.4c-0.3-0.3-0.4-0.8-0.2-1.3c1-2.8,2.4-5.4,3.7-8c1.2-2.6,2.2-5.2,3.6-7.7C55.4,20.3,56.5,17.6,57.9,15.2z
	 M48.2,14.7c1.8,0,3.5,0,5.3,0c0,0,0,0.1,0,0.1c-0.3,0.8-0.5,1.5-0.5,1.5c0,0.1-0.1,0.3-0.1,0.4c0,0.2-0.2,0.6-0.5,1
	c-0.5,0.8-1.1,2.1-1.1,2.5c0,0.1-0.2,0.5-0.5,0.8c-0.2,0.3-0.6,0.9-0.7,1.3c-0.1,0.4-0.5,1.1-0.7,1.5c-0.3,0.4-0.7,1.3-1,2
	c-0.3,0.7-0.6,1.3-0.7,1.4c-0.1,0.1-0.4,0.5-0.5,1c-0.2,0.5-0.4,1.1-0.6,1.3c-0.1,0.2-0.3,0.6-0.4,0.9c0,0.3-0.2,0.6-0.3,0.7
	c-0.1,0-0.4,0.6-0.6,1.1c-0.2,0.6-0.6,1.2-0.7,1.4c-0.2,0.2-0.3,0.5-0.3,0.7c0,0.1,0,0.2-0.1,0.3c-0.1,0.4-0.3,0.8-0.6,1.1
	c-0.2,0.6-0.7,1.6-0.8,1.4c0-0.1-0.3-0.3-0.6-0.3c-0.3,0-0.5-0.2-0.9-0.4c-0.4-0.1-0.8-0.4-1.1-0.8c-0.1-0.1-0.2-0.2-0.3-0.3
	c-0.4-0.4-0.4-0.4-0.3-1c-0.1-0.4-0.1-0.9,0-1.3c1.6-6.7,5.2-12.1,8.1-18C47.9,15.2,48.1,14.9,48.2,14.7z M39.1,15.3
	C39.1,15.3,39.1,15.3,39.1,15.3c0-0.2,0-0.4,0.1-0.6c1.6,0,3.3,0,4.9,0c-0.1,0.2-0.2,0.3-0.3,0.5c-0.1,0.2-0.2,0.4-0.3,0.6
	c0.1,0.8-0.1,1.6-0.6,2.3c-0.1,0.1-0.2,0.2-0.2,0.3c0,0,0,0.1-0.1,0.1c-0.1,0.2-0.2,0.4-0.3,0.7c-0.2,0.5-0.5,1-0.7,1.5
	c-0.4,1-0.8,2.1-1.1,3.2c-0.4,1.2-0.9,2.4-1.5,3.5c0,0.2-0.1,0.5-0.2,0.7c-0.2,0.3-0.4,0.6-0.5,0.9c-0.2,0.6-0.5,1.2-0.8,1.7
	c-0.1,0.2-0.3,0.4-0.5,0.5c-0.2,0.1-0.4,0.2-0.6,0.2c-0.1,0-0.2,0-0.3,0c0,0-0.1,0.1-0.1,0.1c-0.2,0.2-0.4,0.1-1.2-0.6
	c-0.2-0.2-0.4-0.4-0.6-0.5C34.1,30.2,34,30.1,34,30c-0.7-1-0.7-2.7,0.1-3.6c0.2-0.2,0.4-0.5,0.6-0.8c0,0,0.3-0.4,0.3-0.4
	c0.2-0.4,0.4-0.8,0.6-1.3c0.5-1,0.8-2.1,1.2-3.1C37.4,18.8,38.1,17,39.1,15.3z M28,21c0.1-0.1,0.2-0.3,0.3-0.4
	c-0.1,0.2-0.1,0.2,0-0.1c0.2-0.3,0.3-0.6,0.5-0.9c0.3-0.6,0.5-1.2,0.8-1.8c0.4-1.2,1-2.3,1.8-3.2c1.7,0,3.4,0,5.1,0
	c0.2,0.5,0.1,1,0,1.5c-0.4,1-1,1.9-1.5,2.9c-0.5,1.1-1.1,2.1-1.8,3.2c-0.3,0.5-0.6,1-0.9,1.5c-0.1,0.1-0.1,0.3-0.2,0.4c0,0,0,0,0,0
	c0,0,0,0.1,0,0.1c-0.1,0.3-0.2,0.5-0.2,0.8c-0.1,0.5-0.6,0.9-1.1,1l-0.1,0.4l-0.4-0.3c-0.1,0-0.1,0-0.2,0c-0.3-0.1-0.5-0.2-0.7-0.4
	c-0.4-0.1-0.8-0.3-1.1-0.7C27.2,23.9,27.2,22.1,28,21z M26.4,14.6c0.1,0,0.1,0.1,0.2,0.1c0.1,0.1-1.1,3.2-1.4,3.7
	c-0.1,0.2-0.3,0.6-0.4,0.9c-0.1,0.3-0.3,0.6-0.3,0.6c-0.3,0-1.8-1.3-2-1.6c-0.1-0.2-0.4-0.4-0.7-0.6c-0.3-0.2-1-0.9-1.7-1.6
	c-0.3-0.5-0.7-1-1-1.5C21.6,14.6,24,14.6,26.4,14.6z M86,68c0,0.2,0,0.4,0,0.6c0,0.1,0,0.2,0,0.4l0.1,3.1l-0.4,0.1
	c-0.2,0.1-0.7,0.1-1.1,0.1c-2-0.1-4.1,0.1-4.7,0.2c-0.5,0.2-1.4,0.2-3.1,0.1c-1.6-0.1-3-0.1-4.2,0.1c-1,0.1-2.1,0.1-2.5,0.1
	c-0.4-0.1-1.9-0.2-3.2-0.4s-2.6-0.3-2.8-0.3c-0.7-0.1-3-0.3-3.6-0.2c-0.3,0-1.8,0.1-3.4,0.2c-1.5,0.1-3.2,0.2-3.7,0.3
	c-0.5,0.1-1,0.2-1.1,0.1c-0.1,0-2.4,0.1-5.3,0.3c-2.8,0.2-5.3,0.3-5.5,0.3c-0.9,0-8.2,0-9.3,0c-0.6,0-1.7,0-2.4-0.1
	c-0.7-0.1-2.6-0.2-4.1-0.2c-3,0-4.6-0.1-5.9-0.4c-0.5-0.1-1.6-0.2-2.6-0.2c-2.1,0-2.2-0.1-2.1-1.5c0-0.5,0.1-1,0.1-1.2
	c0-0.2,0.1-0.5,0.1-0.6c0.1-0.1,0-0.6,0-1.1C15,67.1,15,66.7,15,65c0-0.3,0-2,0-3.7c0-1.7,0-3.8,0.1-4.6c0.1-0.8,0.1-1.8,0-2.2
	c-0.1-1.5-0.4-10.9-0.3-12.2c0-0.8,0.1-2.7,0.1-4.4c0-3.1,0.1-6.9,0.1-8.2c0.1-2.9,0.2-4.1,0.2-5.4c0.1-1.3,0.1-1.7-0.2-3.5
	c0,0,0,0,0,0c0.2-1,0.4-1.9,0.6-2.9c0.2-0.1,0.4-0.1,0.6,0c0.1-0.1,0.3-0.2,0.5-0.3c1,1.3,2,2.6,2.9,3.8c0.1,0.1,0.1,0.2,0.2,0.2
	c1.3,2.2,3.4,3.9,5.1,5.8c1.4,1.6,2.7,3.2,4.1,4.7c1.4,1.4,3.1,2.4,4.3,4c1.3,1.6,2.4,3.2,3.9,4.6c1.5,1.3,3.1,2.5,4.7,3.8
	c1.5,1.2,2.9,2.7,4.5,3.9c0.5,0.4,1.2,0.6,1.8,0.8c1-0.7,2.1-1.3,3.1-2c1.6-1.2,3-2.6,4.5-3.8c3.1-2.5,6.5-4.5,9.6-7
	c1.5-1.3,3-2.6,4.6-3.8c1.6-1.2,3.3-2.2,4.9-3.3c0.7-0.5,1.4-0.9,2-1.6c0.6-0.8,1.1-1.3,2-1.7c1.6-0.8,3.2-1.6,4.6-2.8
	c1.1-0.9,3-0.1,2.5,1.5c-0.1,0.5-0.2,1-0.2,1.4c0.2,0.4,0.3,0.8,0.2,1.2c-0.1,2.5,0,5,0.1,7.5c0.1,2.5,0,5.1-0.2,7.6
	c-0.1,2.5-0.3,5-0.1,7.5c0.2,2.5,0.4,5.1,0.2,7.6c0,0.2-0.1,0.4-0.1,0.6c0.2,1,0.4,2,0.5,3C86.5,63.5,85.9,65.7,86,68z"/>
</svg>
