<?xml version="1.0" encoding="utf-8"?>
<!-- Generator: Adobe Illustrator 25.2.3, SVG Export Plug-In . SVG Version: 6.00 Build 0)  -->
<svg version="1.1" id="Layer_1" xmlns="http://www.w3.org/2000/svg" xmlns:xlink="http://www.w3.org/1999/xlink" x="0px" y="0px"
	 viewBox="0 0 100 100" style="enable-background:new 0 0 100 100;" xml:space="preserve">
<path d="M93.3,30.4c0.1-0.3,0.1-0.6-0.1-1c-0.6-0.9-1.1-1.8-1.7-2.7c-1.8-4.5-5-8.5-9.2-10.9c-8.8-5.1-19.9-4.1-28.2,1.2
	c-4.3,2.7-7.8,6.4-10.5,10.5c-4.8-4.6-10.1-9.3-16.6-10.9c-5.9-1.5-13-0.4-17,4.7c-0.1,0.1-0.2,0.2-0.2,0.4
	c-0.2,0.3-0.5,0.5-0.6,0.7L9,22.6c-0.1,0.1-0.2,0.3-0.3,0.5c-0.7,1.1-1.2,2.3-1.4,3.6c-2.4,6-1.1,12.9,1.3,18.7
	c4.9,11.8,14.1,21.3,24.1,28.8c6.3,4.8,13,9,19.7,13.1c0.6,0.4,1.3,0.2,1.7-0.3c0.4,0.1,0.7,0.1,1.1-0.2
	C69.9,75.9,82,61.8,90.4,45.5C92.8,41,95.2,35.6,93.3,30.4z M12.7,28.4c2.4-5.2,8.1-6,13.3-5.6c0.6,0.1,1.1,0.3,1.8,0.5
	c-5.8,4.2-11.2,9.2-15.8,14.7C11.4,34.7,11.3,31.5,12.7,28.4z M12.9,41.2C17.9,34.7,24,29,30.8,24.4c0.4,0.2,0.6,0.4,1,0.6
	c0.9,0.6,1.8,1.2,2.6,1.8c-6.6,6.1-13.5,11.8-20.5,17.4C13.5,43.3,13.1,42.3,12.9,41.2z M17.2,51.6c-1-1.4-1.8-3-2.5-4.5l0,0
	c7.5-5.7,14.7-11.8,21.7-18.2l0.1-0.1l0.1,0.1c1.3,1.2,2.5,2.7,3.9,3.8c0.1,0.1,0.2,0.2,0.3,0.2c0.1,0.1,0.3,0.1,0.4,0.2
	c0.1,0.2,0.2,0.3,0.3,0.5c-3.3,2.8-6,6.3-9,9.5c-3.9,4.3-8.4,8.1-13.3,11.4C18.5,53.4,17.9,52.5,17.2,51.6z M21.7,57.1
	c-0.3-0.3-0.5-0.6-0.7-0.8c4.7-3.1,9.1-6.8,12.9-10.9c3.2-3.5,6.1-7.6,9.9-10.4c1,0.3,2.1,0.1,2.9-0.6c0.3-0.3,0.6-0.6,0.7-0.9
	c2.3-2.1,4.1-4.7,5.9-7.3c2.1-2.9,4.6-5.2,8.1-6.4c3.4-1.2,7.2-1.5,10.8-1C59.6,29.1,47.3,40.1,35.4,51.5c-3.2,3.1-6.5,6.4-9.7,9.6
	C24.3,59.9,23,58.5,21.7,57.1z M31.9,66c-1.5-0.9-2.9-1.9-4.2-3.1C39.4,51.1,51.6,39.9,64.2,29c3.6-3.1,7.3-6.2,11.1-9.2
	c0.2-0.2,0.4-0.4,0.4-0.6c1.4,0.4,2.9,0.8,4.2,1.4c0.6,0.5,1.1,0.9,1.7,1.5C68.5,34,55.5,45.9,42.8,58.2c-3.1,3-6,5.9-9.1,8.9
	C33.1,66.8,32.5,66.4,31.9,66z M41.8,73c-1.4-1.2-2.8-2.3-4.3-3.4c-0.5-0.4-0.9-0.6-1.4-0.9c12-11.7,24.1-23.3,36.6-34.7
	c3.5-3.2,7-6.4,10.5-9.6c0.9,1.3,1.8,2.8,2.3,4.3c0.2,0.4,0.3,0.8,0.4,1.2c-6,4.5-11.3,9.9-16.6,15.3C63.6,51,57.8,56.9,52,62.7
	c-3.3,3.3-6.7,6.8-10,10.1C41.9,72.9,41.9,72.9,41.8,73z M79.7,52.5c-1.3,1.8-2.7,3.6-3.9,5.5c-1.2,1.8-2.6,3.4-4.3,4.9
	c-0.8,0.7-1.8,1.4-2.4,2.2c-0.6,0.7-1.1,1.6-1.7,2.4c-1.4,1.8-3.3,3.2-5,4.8c-1.6,1.5-3.1,3-4.6,4.4c-1.4,1.3-3.1,2.8-5.2,2.7
	c-1.2-0.1-2.3-0.6-3.4-1.1c11.4-9.8,22.4-20.2,33.3-30.5C81.7,49.4,80.7,51.1,79.7,52.5z M85.6,40.7c-0.1,0.2-0.1,0.4-0.2,0.6
	c-12.7,12-25.3,24-38.6,35.4l-0.1,0.1c-0.9-0.6-1.9-1.4-2.9-2c11.4-11.4,22.5-23,34-34.2c2.8-2.7,5.5-5.3,8.6-7.6
	C86.8,35.5,86.5,38.1,85.6,40.7z"/>
</svg>
