<?xml version="1.0" encoding="utf-8"?>
<!-- Generator: Adobe Illustrator 25.2.3, SVG Export Plug-In . SVG Version: 6.00 Build 0)  -->
<svg version="1.1" id="Layer_1" xmlns="http://www.w3.org/2000/svg" xmlns:xlink="http://www.w3.org/1999/xlink" x="0px" y="0px"
	 viewBox="0 0 100 94.6" style="enable-background:new 0 0 100 94.6;" xml:space="preserve">
<path d="M85,80.3c-2.9,0-5.8,0-8.7,0c-0.5-13.9,0.1-27.8,1.7-41.6c2.1,2,4.1,3.9,6.2,5.8c1.7,1.5,4.3-0.8,2.6-2.4
	c-10.9-10-21.2-20.6-30.7-31.8c-0.6-0.7-2-0.7-2.6-0.1C42.5,22.2,29.2,32,14.4,39.4c-2.1,1-0.3,4.1,1.8,3c2.9-1.5,5.8-3,8.6-4.7
	c-3.7,14,0.8,28.8-3.2,42.8c-2.7,0-5.4,0-8.1,0c-2.3,0-2.4,3.5-0.1,3.5c23.8-0.1,47.7-0.1,71.5-0.2C87.3,83.7,87.3,80.3,85,80.3z
	 M71.7,32.5c-1.4,1.5-3,2.8-4.8,3.9l-2.9,0c2.1-1.8,4.3-3.4,6.8-4.7C71.1,31.9,71.4,32.2,71.7,32.5z M70,30.7
	c-2.8,1.5-5.4,3.4-7.7,5.6l-4.2-0.1c3.4-2.3,6.8-4.8,10-7.5C68.7,29.4,69.3,30.1,70,30.7z M67.2,27.9C67.2,27.9,67.2,27.9,67.2,27.9
	c-3.6,3-7.3,5.7-11.2,8.3l-6-0.1c5-3.5,10.1-6.9,15.2-10.2C65.9,26.5,66.6,27.2,67.2,27.9z M64.5,25c-5.6,3.5-11.1,7.2-16.4,11.1
	c-0.7,0-1.5,0-2.2,0c5.5-4.5,11.4-8.6,17.5-12.2C63.7,24.2,64.1,24.6,64.5,25z M62.6,22.9C56,26.8,49.8,31.2,44,36
	c-1.2,0-2.4,0-3.6-0.1c6.4-5.4,13.3-10.4,20.4-14.8C61.4,21.7,62,22.3,62.6,22.9z M60,20.2c-7.5,4.7-14.7,10-21.4,15.7l-4-0.1
	c7.9-5.9,15.7-11.8,23.6-17.7C58.8,18.8,59.4,19.5,60,20.2z M54.8,14.2c0.9,1,1.8,2,2.7,3C49.2,23.4,41,29.6,32.7,35.8L28,35.7
	C37.8,29.7,46.8,22.4,54.8,14.2z M53.6,64.1c0.7,0.6,1.4,1.3,1.8,2.1c-5,3.9-10,7.8-15,11.7c0-1,0.1-2.1,0.2-3.1
	C44.8,71,49.1,67.4,53.6,64.1z M40.8,72.9c0.5-3.3,1.7-6.5,4.6-8.5c1.9-1.4,4.5-2,6.8-1.1c0.1,0,0.2,0.1,0.3,0.2
	C48.5,66.5,44.6,69.6,40.8,72.9z M40.8,79.1C45.9,75.1,51,71.2,56,67.2c0.1,0.3,0.3,0.6,0.4,1c0.3,1.1,0.5,2.2,0.6,3.3
	c-3.4,2.5-6.8,5-10.2,7.5C44.8,79,42.8,79,40.8,79.1z M56.3,78.2c0,0.2,0,0.4,0,0.7c-2.5,0-5,0-7.6,0.1c2.7-2,5.5-4,8.2-6
	C56.9,74.7,56.6,76.5,56.3,78.2z M72.6,78.9c-4.2-0.1-8.5-0.1-12.7-0.1c0.5-2.8,0.9-5.8,0.6-8.6c0-0.1,0-0.2,0-0.3
	c-0.1-0.6-0.2-1.3-0.3-1.9c-0.7-2.9-2.6-5.7-5.3-7.3c-3-1.7-6.6-1.6-9.7-0.2c-3.2,1.4-5.3,4.2-6.6,7.2c-1.6,3.6-1.7,7.6-1.8,11.4
	c-3.7,0.1-7.5,0.2-11.2,0.4c3.1-13.3-0.6-27.1,2.6-40.3c15.4,0.2,30.7,0.5,46.1,0.7C72.8,52.9,72.2,65.9,72.6,78.9z M69,36.4
	c1.3-0.9,2.5-1.9,3.5-3.1c1,1.1,2.1,2.1,3.2,3.2L69,36.4z"/>
<path d="M44.9,44.8c-0.1-0.7-0.5-1.5-1.3-1.7c-3.9-0.6-7.8-0.9-11.7-0.7c-1,0-1.9,0.8-1.8,1.7c0,0.4,0.2,0.9,0.5,1.2
	c0,0.1,0,0.3,0,0.4c0.4,2.5,0.5,5.4,0.3,8c-0.1,1,0.9,1.7,1.8,1.7c3.5,0.2,6.9,0.3,10.4,0.5c1.1,0,1.7-0.8,1.8-1.7
	C45.3,51.1,45.3,47.9,44.9,44.8z M41.4,46.3c0.1,2,0.2,4.1,0,6.1c-2.3-0.1-4.5-0.2-6.8-0.3c0-2.1-0.1-4.2-0.4-6.3
	C36.7,45.8,39.1,46,41.4,46.3z"/>
<path d="M69.7,45.3c-0.1-1.5-0.9-2.7-2.5-3.2c-1.2-0.4-2.5-0.5-3.8-0.7c-3-0.4-6-0.4-9.1-0.1c-1,0.1-1.8,0.7-1.8,1.7
	c0,0.5,0.3,1.1,0.8,1.5c0,0.1,0,0.2,0,0.3c0,2.8,0,5.6,0,8.4c0,1,0.8,1.7,1.8,1.7c2.7,0.2,5.4,0.3,8,0.5c1.3,0.1,2.6,0.3,3.8,0.1
	c1.6-0.3,2.3-1.6,2.4-3c0.1-1.2,0.1-2.5,0.2-3.7C69.6,47.6,69.8,46.4,69.7,45.3z M62.9,51.9c-2-0.1-4-0.2-5.9-0.4c0-2.3,0-4.5,0-6.8
	c0-0.1,0-0.1,0-0.2c1.3-0.1,2.7,0,4,0.1c1.1,0.1,2.1,0.2,3.1,0.4c0.5,0.1,1,0.2,1.5,0.3c0.1,0,0.3,0.1,0.4,0.1c0,0,0,0.1,0,0.3
	c0,0.2,0,0.4,0,0.6c0,0.5,0,1.1-0.1,1.6c0,1.1-0.1,2.2-0.1,3.3c0,0.3,0,0.7-0.1,1C64.8,52,63.9,52,62.9,51.9z"/>
</svg>
