<?xml version="1.0" encoding="utf-8"?>
<!-- Generator: Adobe Illustrator 25.2.3, SVG Export Plug-In . SVG Version: 6.00 Build 0)  -->
<svg version="1.1" id="Layer_1" xmlns="http://www.w3.org/2000/svg" xmlns:xlink="http://www.w3.org/1999/xlink" x="0px" y="0px"
	 viewBox="0 0 100 100" style="enable-background:new 0 0 100 100;" xml:space="preserve">
<g>
	<path d="M84.7,16.4c0.4-0.9-0.1-2.2-1.3-2.3h-0.6c-17.6-0.3-35.3-0.3-52.9,0c-5,0.1-10.1,0.2-15.1,0.3c-0.1,0-0.3,0-0.4,0.1
		c-1-0.2-2.1-0.1-2.9,0.4c-0.2,0.1-0.3,0.4-0.2,0.7c-0.1,0.2-0.2,0.4-0.2,0.6c-0.2,18.4-0.4,36.8-0.7,55.2
		c-0.1,5.2-0.2,10.5-0.3,15.7c0,0.8,0.5,1.4,1.1,1.5c0.2,0.1,0.5,0.2,0.8,0.2c17.9,0.1,35.8-0.2,53.6-1c5.1-0.2,10.2-0.5,15.3-0.8
		c0.4,0,0.7-0.2,0.9-0.3c0.3-0.2,0.6-0.6,0.6-1.1c1-18.1,2.5-36.2,2.6-54.3C85.1,26.2,85,21.3,84.7,16.4z M40,45.4l2.2,2.5
		c-6.5,3.4-13.1,6.8-19.5,10.2c1.3-1.6,2.7-3.2,4-4.9C31.2,50.7,35.6,48.1,40,45.4z M28.5,51c2.7-3.4,5.3-7,7.9-10.7
		c0.9,1.5,1.9,2.8,3,4.2C35.8,46.7,32.2,48.9,28.5,51z M43,48.7c1,1,2.1,2.1,3.2,3.1c-8.1,3.3-16.2,6.7-24.4,10
		c-1.1,0.5-2.4,0.9-3.5,1.5c0.9-0.9,1.7-2,2.7-2.9C28.2,56.4,35.6,52.6,43,48.7z M39.5,55.8c2.4-0.9,4.7-1.9,7-2.9
		c0.2-0.1,0.3-0.3,0.3-0.4c0.7,0.6,1.5,1.3,2.4,1.9c0.1,0.1,0.1,0.2,0.2,0.3C40,60.1,30.5,65.1,20.6,69.4c-2,0.9-4.1,1.7-6.2,2.6
		c0.1-1.6,0.2-3.2,0.3-4.8c0.7-0.7,1.3-1.4,2-2.1C24.3,62,31.9,58.8,39.5,55.8z M43,59.5c2.6-1.5,5.1-2.9,7.7-4.4
		c0.3,0,0.6-0.1,0.9-0.3c2.1-1.7,4-3.6,5.7-5.6c1.6,1,3.3,2.1,4.9,3.1c-13,7.7-26.1,15.2-39.5,22.3c-3,1.5-5.8,3.1-8.8,4.6
		c0.1-2,0.2-4.1,0.4-6.1C24.1,69,33.8,64.5,43,59.5z M14,80C27,73.3,39.8,66.3,52.4,59c3.6-2.1,7.2-4.2,10.8-6.4
		c1.4,0.8,2.9,1.7,4.4,2.5c-14.5,7.7-29,15.5-43.4,23.2c-3.5,1.9-7,3.7-10.5,5.6C13.8,82.6,13.9,81.3,14,80z M15.7,84.1
		c13.6-7.3,27.2-14.6,40.8-21.9c4.1-2.2,8.1-4.4,12.2-6.6c1.4,0.8,2.9,1.6,4.3,2.3c-13.3,7.4-26.5,14.9-39.8,22.4
		c-2.2,1.3-4.4,2.6-6.6,3.8C23,84.2,19.4,84.2,15.7,84.1z M28.8,84.1c11.7-6.5,23.2-13,34.8-19.6c3.5-2,7-3.9,10.5-5.9
		c1.2,0.6,2.5,1.3,3.8,1.9C66.6,68.1,55.1,75,43.1,81.4c-1.7,0.9-3.4,1.8-5.1,2.6C35,84.1,31.9,84.1,28.8,84.1z M77.7,82.5
		c-3.3,0.2-6.6,0.4-9.9,0.5c3.5-2,6.9-4,10.4-6C78,78.9,77.9,80.7,77.7,82.5z M78.3,75.8c-4.3,2.5-8.6,5-12.8,7.4
		c-3.8,0.2-7.6,0.3-11.3,0.5c6.6-3.3,13.1-6.8,19.3-10.6c1.8-1.1,3.6-2.3,5.3-3.4C78.6,71.7,78.5,73.7,78.3,75.8z M78.9,68.5
		C70.8,73.8,62.3,78.7,53.5,83c-0.5,0.2-1,0.5-1.5,0.7c-3.9,0.1-7.8,0.2-11.7,0.3c10-5.2,19.7-10.8,29.2-16.7c3.2-2,6.3-4.1,9.4-6.1
		c0.2,0.1,0.4,0.2,0.5,0.3C79.2,63.8,79.1,66.2,78.9,68.5z M79.6,57.9c-7.6-3.6-14.8-7.7-21.8-12.3c-0.5-0.3-1.4-0.3-1.9,0.2
		c-1.6,2.1-3.4,3.9-5.3,5.6c-5.1-4-9.5-9-12.6-14.7c-0.6-1-2.1-0.9-2.7,0C28.8,46,21.8,54.8,14.2,63.1c0.7-14.6,1-29.1,1-43.7
		c21.7-0.1,43.4-0.2,65-0.3C80.5,32,80.3,45,79.6,57.9z"/>
	<path d="M64.1,26.5c-0.2,0.1-0.4,0.2-0.6,0.3c-3.5,0.6-6.5,3.3-7.2,6.9c-0.7,3.8,1.3,7.6,4.6,9.5c3.4,1.9,7.5,1.3,10.5-1.1
		c3.1-2.4,4.4-6.7,3.1-10.4C73.1,27.6,68.3,24.9,64.1,26.5z M64.2,29.8c0.4,0,0.8-0.2,1.1-0.5c0.4-0.1,0.9-0.2,1.3-0.2
		c-2.3,1.1-4.5,2.3-6.6,3.6C60.8,31.2,62.3,30,64.2,29.8z M59.3,36.5c-0.1-0.3-0.1-0.7-0.1-1c0-0.4,0-0.7,0.1-1.1
		c2.9-1.9,5.9-3.5,9-4.9c0.4,0.1,0.8,0.3,1.2,0.6C66.2,32.1,62.8,34.3,59.3,36.5C59.3,36.4,59.3,36.4,59.3,36.5z M60.8,39.2
		c-0.5-0.6-0.9-1.2-1.1-1.9c0.1,0,0.2,0,0.3-0.1c3.5-2.2,7-4.4,10.5-6.7c0.4,0.4,0.7,0.8,1,1.2c0,0,0,0,0,0.1
		C67.8,34.4,64.2,36.8,60.8,39.2z M70.2,39.2c-1.5,1.6-3.7,2.4-5.9,2.1l7.4-4.9C71.5,37.5,71,38.4,70.2,39.2z M72,35.1
		c-3,1.9-5.9,3.9-8.9,5.8c-0.6-0.2-1.2-0.6-1.6-1c3.4-2.4,6.9-4.7,10.3-7.1C72,33.6,72.1,34.4,72,35.1z"/>
</g>
</svg>
