<?xml version="1.0" encoding="utf-8"?>
<!-- Generator: Adobe Illustrator 25.2.3, SVG Export Plug-In . SVG Version: 6.00 Build 0)  -->
<svg version="1.1" id="Layer_1" xmlns="http://www.w3.org/2000/svg" xmlns:xlink="http://www.w3.org/1999/xlink" x="0px" y="0px"
	 viewBox="0 0 100 100" style="enable-background:new 0 0 100 100;" xml:space="preserve">
<path d="M70.5,30.3c-0.2-5.1-0.5-10.2-1-15.2c0-0.2-0.1-0.4-0.2-0.6c0.2-0.7,0-1.5-0.9-1.8c-3-1-6.3-0.9-9.4-0.9c-3.5,0-7,0-10.4,0
	c-7,0.1-13.9,0.5-20.8,1c-0.1,0-0.2,0-0.4,0.1c-1.1-0.5-2.5,0.5-2.7,1.7c-0.2,0.8-0.1,1.8-0.2,2.6c0,0.9-0.1,1.9-0.1,2.8
	c-0.2,3.5-0.3,7.1-0.5,10.6c-0.2,1.7-0.3,3.5-0.4,5.2c-0.3,6.9,0.2,13.9,0.7,20.8c0,0.6,0.1,1.3,0.1,1.9c-0.1,0.2-0.1,0.4-0.1,0.7
	c0.1,1.3,0.2,2.6,0.3,3.9c0,0.1,0,0.2,0,0.2c-0.1,5.2,0,10.4,0.4,15.6c-0.1,2-0.2,4.1-0.3,6.1c-0.1,1,0.8,1.4,1.5,1.3
	c0.3,0.2,0.6,0.3,0.9,0.3C40,86.5,52.8,86.3,65.7,86c0.5,0,0.9-0.3,1.1-0.7c0.7,0,1.4-0.5,1.5-1.3C70.5,66.2,71.3,48.2,70.5,30.3z
	 M44.8,16.7c1.8-0.1,3.7-0.1,5.5-0.2c-6.3,5-12.4,10.3-18.2,15.8c-1.4,1.3-2.7,2.6-4,3.9c0-1.7,0.1-3.3,0.2-5c0-0.4,0.1-0.9,0.1-1.3
	c5.2-4.7,10.6-9.1,16.3-13.2C44.8,16.8,44.8,16.8,44.8,16.7z M43.3,16.8c-5.2,3.7-10.1,7.7-14.8,11.9c0.4-3.7,1-7.3,2-10.9
	C34.7,17.3,39,17,43.3,16.8z M28.1,37.6c6.3-6.2,12.8-12.1,19.6-17.7c1.4-1.1,2.8-2.3,4.2-3.4c3.5,0,7,0,10.6,0.1
	c-9.3,7.3-18.6,14.6-27.7,22.2c-2.2,1.8-4.4,3.6-6.6,5.5C28.1,42.1,28,39.8,28.1,37.6z M28.1,45.5c9.5-7.9,19.1-15.7,28.8-23.4
	c2.3-1.8,4.6-3.6,6.9-5.4c0.4,0,0.7,0,1.1,0c0.3,0,0.5,0,0.6-0.1c0.2,0,0.4,0.1,0.6,0.1c0,2.8,0,5.7,0,8.5
	c-10.9,6.8-21.4,14.3-31.4,22.4c-2.2,1.8-4.3,3.6-6.4,5.4C28.2,50.5,28.2,48,28.1,45.5z M28.5,57.6c0-1.1-0.1-2.3-0.1-3.4
	c9.4-8.1,19.3-15.6,29.6-22.6c2.7-1.8,5.4-3.6,8.2-5.3c0,2.6,0,5.2,0,7.8c-4.9,3.5-10.2,6.7-15.1,10.3c-5.4,3.9-10.3,8.5-15.3,12.9
	c-2.4,2.1-4.8,4.2-7.1,6.3C28.5,61.6,28.5,59.6,28.5,57.6z M28.6,64.7c4.8-4.2,9.6-8.5,14.4-12.7c2.5-2.2,5-4.3,7.7-6.3
	c2.6-1.9,5.3-3.8,8-5.6c2.5-1.7,5-3.3,7.4-5c0,2.4,0,4.8,0,7.2c0,0.8,0,1.6,0,2.4c-11.3,5.9-21.3,13.8-30.9,22.1
	c-2.2,1.9-4.3,3.7-6.4,5.6C28.7,69.9,28.7,67.3,28.6,64.7z M46.2,85.2c-4.1,0-4.1-6.4,0-6.4C50.4,78.8,50.3,85.2,46.2,85.2z
	 M66,68.9c-0.1,2.9-0.3,5.7-0.8,8.5c-3.7-0.1-7.5-0.2-11.2-0.2c4-3.2,8-6.4,12-9.6C66,68,66,68.5,66,68.9z M66,66.4
	c-4.5,3.6-9,7.2-13.5,10.8c-3.9,0-7.9,0.1-11.8,0.3c-1.8,0-3.6-0.1-5.3-0.1c7.9-5.9,15.8-11.8,23.9-17.4c2.3-1.6,4.5-3.1,6.8-4.6
	C66.2,59.1,66.1,62.8,66,66.4z M38.5,74c-1.5,1.1-3,2.3-4.6,3.4c-1.6,0-3.1-0.1-4.7-0.1c-0.1,0-0.3,0-0.4,0c0-1.2-0.1-2.5-0.1-3.7
	c9.4-8.3,18.8-16.6,29.4-23.3c2.6-1.6,5.2-3.2,7.9-4.6c0,2.9,0,5.7,0,8.6C56.7,60.6,47.6,67.3,38.5,74z"/>
</svg>
