<?xml version="1.0" encoding="utf-8"?>
<!-- Generator: Adobe Illustrator 25.2.3, SVG Export Plug-In . SVG Version: 6.00 Build 0)  -->
<svg version="1.1" id="Layer_1" xmlns="http://www.w3.org/2000/svg" xmlns:xlink="http://www.w3.org/1999/xlink" x="0px" y="0px"
	 viewBox="0 0 100 100" style="enable-background:new 0 0 100 100;" xml:space="preserve">
<path d="M86.6,30.4c-0.1-2.5,0-4.8-0.1-7.3c0-2.1,0.1-4.2-0.1-6.4c-0.2-1.2-0.5-2.4-1.2-3.2C74.9,12.5,64.8,12,54.4,12
	c-6.2,0-12.4,1-18.6,0.9c-6.6,0-13.2-0.6-19.7,1c-0.5,0.1-1,0.1-1.5,0.1c-2.4,2.5-1.3,7.4-1.1,10.9c0.3,6.2-0.3,12.3-0.4,18.4
	c0,6.4,0.2,12.6,0.5,18.9c0.4,6.5,1,12.9,1.5,19.4c0.2,0.6,0.4,1.1,0.4,1.7l0,2.2c0,0.1,0,0.2,0,0.3l0.1,0.1c1.5-0.2,2.9-0.3,4.4,0
	c0.3-0.1,0.7-0.2,1.1-0.2c11.2,0.2,22.4,1.6,33.6,0.9c5.2-0.3,10.5-0.7,15.7-0.1c0.3,0,0.7,0,1.1,0.1c0.9,0.1,2,0.4,3.1,0.5
	c1.7-0.1,3.3-0.7,5.1-0.9c2.3-0.3,4.7-0.1,7.1-0.4C86.7,67.3,86.6,48.9,86.6,30.4z M81.8,25.4c0,1.1,0.1,2.2,0,3.2
	c-6,4.7-12.2,9.2-18.5,13.3c0.5-1,0.9-2.1,1.2-3.2c0.3-2.5,0-4.7-1-6.7c5.5-4.7,11.7-8.4,18.3-10.8C82,22.5,81.9,24.1,81.8,25.4z
	 M81.2,19c-6.7,2.7-13,6.3-18.7,11.2c-1.1-1.4-2.5-2.5-4-3.2c-0.2-0.1-0.4-0.1-0.6-0.2c4.5-2.4,8.9-4.9,13.1-7.7
	C74.4,19,77.7,19,81.2,19z M60.6,38.4C59,45,50,44,47.2,39.1c-1.4-2.5-1-6.3,1.5-7.8c0.1,0,0.1-0.1,0.2-0.2c2.7-0.5,5.7-0.3,8.2,0.9
	C59.4,33.1,61.4,35.5,60.6,38.4z M58.7,19.2c2.7-0.1,5.4,0,8.2-0.1c-4.1,2.5-8.4,4.9-12.6,7c-0.7,0-1.4,0.1-2.2,0.2
	c-0.3-0.1-0.6-0.2-1-0.1c-1.1,0.3-2.1,0.6-3.1,1.2C51.4,24.5,55,21.8,58.7,19.2L58.7,19.2z M19.8,21.4c0.2-0.2,0.2-0.6,0.2-0.9
	l0.1,0c3.7-0.3,7.6-0.4,11.3-0.6c-4.1,3.8-8,8-11.5,12.5C19.8,28.8,19.8,25.1,19.8,21.4z M20,35.7c4.4-5.8,9.4-11.1,14.8-15.9l0,0
	c2.9-0.2,5.7-0.2,8.7-0.3C35.4,26.3,27.6,33.4,20,40.8C20,39.1,20,37.4,20,35.7z M20.1,43.7c8.6-8.4,17.5-16.7,26.8-24.3
	c2.7-0.1,5.4-0.1,8.2-0.2c-12.3,9-23.9,19.1-34.8,30.1C20.1,47.4,20.1,45.6,20.1,43.7z M20.2,52.3c7.6-7.8,15.6-15,23.9-21.8
	c-1.4,1.9-2.1,4.2-1.9,6.7c-7.7,5.9-14.9,12.3-21.9,19.4C20.2,55.1,20.2,53.6,20.2,52.3z M20.2,59.4c7-7.1,14.4-13.8,22.1-20
	c0.2,0.6,0.4,1.1,0.6,1.7c0.3,0.7,0.7,1.4,1.2,1.9c-8.7,5.8-16.8,12.6-23.9,20.7C20.3,62.2,20.3,60.9,20.2,59.4z M30.4,80.5
	c-2.6-0.1-5.2-0.2-7.7-0.3c2.9-1.7,5.5-3.6,8.2-5.7C30.6,76.5,30.5,78.4,30.4,80.5z M31.1,71.5c-3.4,2.7-6.9,5.2-10.6,7.4l0-4.5
	c4-3.8,8.1-7.3,12.4-10.6C32,66.3,31.4,68.8,31.1,71.5z M29.9,63.3c-3.3,2.6-6.4,5.4-9.5,8.2c0-1.6,0-3.1,0-4.6
	c7.5-8.7,16-16.1,25.3-22.2c2.4,2.1,5.5,3,8.6,2.7c-0.6,0.3-1.1,0.6-1.7,1c-0.1,0-0.2,0-0.3,0c-2.8-0.1-5.6,0.3-8.3,1.5
	c-4.1,1.9-7.3,5.7-9.4,10C32.9,61,31.4,62.1,29.9,63.3z M36.2,80.6c0.2-4.4,0.3-8.7,0.8-13.1c0.1-1.2,0.3-2.5,0.7-3.7
	c0.2-0.7,0.5-1.3,0.8-1.9c0.2-0.3,0.4-0.7,0.7-1c1.2-1.5,3-2.6,4.7-3.3c2.2-0.9,4.6-1,6.9-1.1c2.1-0.1,4.2-0.3,6.3,0.1
	c1.8,0.3,3.6,1.1,4.8,2.8c1.1,1.7,1.3,3.9,1.4,6c0.1,5,0,10.3-0.1,15.5C54.2,80.9,45.2,80.8,36.2,80.6z M60.4,49.3
	c-1.3-0.2-2.7-0.5-4.1-0.6c4.5-2.6,9-5.1,13.2-8.1c4.2-2.9,8.3-6,12.4-9.2c0.1,2.5,0,4.9,0.1,7.4c-6.1,3.7-12.1,7.7-18.1,11.7
	C62.8,50,61.6,49.5,60.4,49.3z M66.8,53.5c-0.3-0.6-0.7-1-1.1-1.5c5.4-3.7,10.8-7.3,16.3-10.6c0,3,0.1,5.9,0,8.9
	c-4.8,2.4-9.3,5.3-13.7,8.6C68.1,56.9,67.7,55.1,66.8,53.5z M68.9,62.5c-0.1-0.4-0.1-0.9-0.2-1.2c4.2-3.3,8.7-6.1,13.3-8.5
	c0,0.2,0,0.6,0,0.8c0,1.1,0.1,2.2,0,3.4c-0.1,0-0.1,0.1-0.2,0.1c-4.2,3.1-8.4,6-12.7,8.8C69.2,64.8,69.1,63.6,68.9,62.5z M69.5,68.3
	c4.3-2.7,8.5-5.7,12.7-8.7c0.1,2.3,0,4.7,0.1,7.2c-4.4,2-8.6,4.8-12.4,7.9C69.7,72.5,69.7,70.5,69.5,68.3z M69.8,81.1
	c0-1.2,0-2.5,0.1-3.6c3.8-3.4,8-6.1,12.3-8.3c0,4,0,8.1,0.1,12C78.1,81.2,74,81.1,69.8,81.1z"/>
</svg>
