<?xml version="1.0" encoding="utf-8"?>
<!-- Generator: Adobe Illustrator 25.2.3, SVG Export Plug-In . SVG Version: 6.00 Build 0)  -->
<svg version="1.1" id="Layer_1" xmlns="http://www.w3.org/2000/svg" xmlns:xlink="http://www.w3.org/1999/xlink" x="0px" y="0px"
	 viewBox="0 0 100 100" style="enable-background:new 0 0 100 100;" xml:space="preserve">
<g>
	<path d="M78.7,61.3c-2.5-2.7-5-5.4-7.3-8.3c-0.8-0.3-1.6-0.8-2.1-1.6c0,0-0.1,0-0.1,0c-1.5-0.4-2.2-2.2-1.9-3.8
		c0.1-0.6,0.3-1.2,0.5-1.8c0-0.1,0.1-0.4,0.1-0.5c0,0,0,0,0,0c0,0,0,0,0,0c0,0.1-0.1,0.5,0,0.2c0-0.3,0.1-0.5,0.1-0.8
		c0.5-4.4,1-8.9,0.8-13.4c0-0.6-0.1-1.1-0.1-1.7c0-0.3,0-0.6-0.1-0.8c0-0.1,0-0.2,0-0.4c0-0.4,0,0.2,0,0.2c0.1-0.5-0.2-1.3-0.3-1.8
		c-0.1-0.5-0.2-1-0.3-1.5c-0.1-0.6-0.3-1.1-0.5-1.7c-0.1-0.2-0.1-0.4-0.2-0.6c0-0.1-0.1-0.2-0.1-0.3c-0.4-1-0.9-1.9-1.5-2.8
		c-0.1-0.1-0.2-0.2-0.2-0.4c0,0,0,0,0,0c0,0,0-0.1-0.1-0.1c-0.1-0.1-0.2-0.3-0.2-0.3c-0.3-0.4-0.6-0.8-0.9-1.1c-0.3-0.4-0.6-0.7-1-1
		c-0.1-0.1-0.3-0.3-0.4-0.4c0.4,0.5,0.1,0.1-0.1-0.1c-0.7-0.6-1.5-1.1-2.3-1.5c-0.2-0.1-0.4-0.2-0.7-0.4c-0.1-0.1-0.7-0.3-0.3-0.1
		c0.4,0.2-0.3-0.1-0.4-0.2c-0.2-0.1-0.4-0.2-0.6-0.2c-0.8-0.3-1.6-0.6-2.5-0.8c-0.5-0.1-0.9-0.2-1.4-0.3c-0.2,0-0.4-0.1-0.7-0.1
		c-0.1,0-0.2,0-0.3,0c-0.3-0.1,0.3,0,0.2,0c-0.4-0.2-1-0.1-1.5-0.2c-0.4,0-0.9-0.1-1.3-0.1c-0.9-0.1-1.8-0.1-2.8-0.1
		c-1.1,0-2.1,0-3.2,0.1c-0.6,0-1.2,0.1-1.8,0.2c-0.3,0-0.6,0.1-0.9,0.1c-0.1,0-0.3,0-0.4,0.1c0,0,0,0-0.1,0c-0.1,0-0.4,0.1-0.4,0.1
		c-0.1,0-0.2,0-0.4,0.1c-0.3,0.1-0.6,0.1-0.9,0.2c-0.5,0.1-1.1,0.2-1.6,0.3c-1.1,0.3-2.3,0.6-3.4,0.9c-2.2,0.7-4.4,1.5-6.6,2.3
		c-0.6,0.2-1.2,0.5-1.8,0.7c-0.2,0.1-0.5,0.2-0.7,0.3c0,0-0.2,0.1-0.3,0.1c-0.1,0-0.1,0-0.1,0.1c-0.9,0.5-1.8,1.1-2.7,1.8
		c-0.2,0.2-0.5,0.4-0.7,0.6c-0.5,0.7-1.1,1.3-1.6,1.9c-0.6,0.7-1.2,1.4-1.8,2.1c-0.1,0.2-0.3,0.4-0.4,0.5c0,0.1-0.1,0.1-0.1,0.2
		c0,0,0,0,0,0c-0.3,0.3-0.6,0.9-0.8,1.3c-0.5,0.9-0.9,1.8-1.2,2.7c-0.1,0.2-0.2,0.5-0.3,0.7c0,0.1-0.2,0.5-0.2,0.6
		c-0.1,0.2-0.2,0.4-0.2,0.5c-0.1,0.3-0.2,0.6-0.3,0.9c-0.4,1.2-0.8,2.4-1.2,3.7c0,0,0,0,0,0.1c0,0,0,0,0,0c0,0.1,0,0.2,0,0.3
		c-0.1,0.6-0.1,1.1-0.2,1.7c-0.2,1.5-0.3,2.9-0.5,4.3c-0.2,1.3-0.4,2.5-0.6,3.7c0,0.3-0.1,0.6-0.1,0.9c0,0.1-0.1,0.5-0.1,0.6
		c-0.1,0.5-0.1,1-0.1,1.5c-0.1,1.3-0.1,2.5,0,3.8c0,0.2,0,0.4,0.1,0.6c0,0,0,0,0,0c0.1,0.3,0.1,0.7,0.2,1c0.1,0.6,0.3,1.2,0.4,1.7
		c0,0.2,0.1,0.3,0.1,0.5c0,0,0,0.1,0,0.1c0,0.1,0.2,0.4,0.2,0.5c0.2,0.5,0.5,1,0.7,1.5c0.5,1,1.1,1.9,1.7,2.8c1,1.5,2,3,3,4.5
		c0.6,0.3,1.1,0.8,1.4,1.4c0.5,0.3,0.9,0.6,1.4,0.9c0.2,0.1,0.3,0.2,0.5,0.3c0,0,0,0,0,0c0.3,0.1,0.6,0.3,0.9,0.4
		c2.1,0.9,4.4,1.5,6.6,2.1c0.6,0.2,1.2,0.3,1.8,0.5c0.1,0,0.4,0.1,0.6,0.1c0.3,0,0.6,0.1,0.9,0.1c1.4,0.1,2.8,0.1,4.1,0
		c0.4,0,0.8-0.1,1.2-0.1c0,0,0,0,0,0c0,0,0,0,0,0c0.1,0,0.3-0.1,0.4-0.1c0.6-0.1,1.3-0.3,1.9-0.5c1-0.3,2-0.7,3-1.1
		c0.6-0.2,1.1-0.4,1.6-0.6c0.2-0.1,0.5-0.2,0.7-0.3c0.1,0,0.2-0.1,0.3-0.1c0,0,0,0,0,0c0.5-0.3,0.9-0.5,1.4-0.8
		c0.1-0.1,0.2-0.2,0.2-0.2c0,0,0.1-0.1,0.1-0.1c0.9-1.3,2.3-1.7,3.6-0.9c0.4,0.3,0.8,0.7,1,1.2c0,0,0,0,0,0c0.3,0.1,0.6,0.4,0.8,0.6
		c1.2,1.6,2.4,3.1,3.7,4.7c1.6,1.8,3.1,3.8,4.7,5.7c0.1,0.2,0.3,0.3,0.4,0.5c1.5,1.7,3.1,3.4,4.6,5.1c0.2,0.2,0.5,0.5,0.7,0.7
		c1.1,1,2.3,1.9,3.6,2.7c1.2-1.1,2.4-2.2,3.7-3.2c1-0.8,2-1.6,3-2.4c0.5-0.4,1-0.8,1.5-1.2c0.1-0.1,0.2-0.1,0.2-0.2
		c0,0,0.1,0,0.1-0.1c0.2-0.2,0.4-0.4,0.6-0.6c0.7-0.7,1.4-1.5,2-2.4c0-0.1,0.1-0.2,0.1-0.2c1.6-2,3-4.1,4.8-5.8
		C84.5,68.1,81.7,64.6,78.7,61.3z M50.7,59c-1.6,1.3-3.4,2.5-5.2,3.5c-4,2.2-8.7,3.9-13.2,3.3c-2.5-0.3-5-1.1-7.1-2.7
		c-2.2-1.6-4-3.8-5.3-6.3c-2.1-4.2-2.8-9.4-2.3-14.1c0.6-5.3,2.2-10.4,5.5-14.4c1.7-2,3.9-3.5,6-4.7c2.6-1.5,5.4-2.8,8.3-3.7
		c2.6-0.8,5.3-1.1,8-1.4c2.8-0.3,5.6-0.3,8.3,0.3c4.9,1.1,8.5,5.1,10.1,10.3c0.7,2.1,0.9,4.5,0.8,6.7c-0.1,2.3-0.4,4.6-1.1,6.7
		c-0.8,2.5-1.9,4.7-3.5,6.7c-0.4,0.5-0.8,0.9-1.2,1.4C57.9,51.8,57,53,56,54.2C54.4,55.9,52.5,57.5,50.7,59z M57.3,64.3
		c-0.6-0.1-1-1-0.8-1.6c0.8-2.3,2.8-3.6,4.8-4.6c0.4-0.2,0.8-0.4,1.3-0.6c-1.1,3-1.9,6.2-2.6,9.4C59.3,65.7,58.5,64.6,57.3,64.3z
		 M61.8,71c-0.1-0.1-0.1-0.2-0.2-0.3c-0.3-0.5-0.5-1-0.8-1.5c0.8-4.3,1.9-8.6,3.5-12.6c0.6-0.4,1.3-0.7,2.1-0.8c0.1,0,0.1,0,0.2,0
		C64.7,60.7,63.1,65.8,61.8,71z M62.8,72.5c1.4-5.6,3.1-11,5-16.3c0.4,0.2,0.8,0.5,1.1,0.8c0.3,0.3,0.6,0.5,0.9,0.8
		c-0.1,0.1-0.2,0.2-0.3,0.4c-1.5,5.7-3.1,11.4-4.6,17.1C64.3,74.4,63.5,73.5,62.8,72.5z M67.4,77.6c-0.1-0.1-0.2-0.1-0.4-0.3
		c-0.1-0.1-0.2-0.2-0.3-0.4c-0.2-0.2-0.4-0.4-0.6-0.6l4.7-17.6c0.4,0.4,0.7,0.8,1.1,1.1c0.1,0.1,0.2,0.2,0.3,0.3
		C70.7,66,69.1,71.8,67.4,77.6z M70.2,79.4c-0.3-0.2-0.6-0.4-0.9-0.6c-0.2,0-0.4-0.1-0.5-0.2c-0.1,0-0.1-0.1-0.2-0.1
		c1.6-5.7,3.2-11.4,4.8-17c0.6,0.6,1.1,1.2,1.6,1.8C73.4,68.6,71.8,74,70.2,79.4z M71.6,80.2c0,0-0.1,0-0.1-0.1
		c1.6-5.2,3.1-10.4,4.7-15.5c0.3,0.4,0.7,0.9,1,1.3c0.5,0.7,1,1.4,1.5,2.2c-0.9,3.8-1.9,7.6-2.9,11.4C74.4,80.3,73.1,80.8,71.6,80.2
		z M82,73.4c-1.1,2-2.8,3.4-4.5,4.8c0.8-2.9,1.5-5.8,2.2-8.7c0.6,0.8,1.3,1.6,2.1,2.4C82.2,72.2,82.2,72.9,82,73.4z"/>
	<path d="M39.5,27.9c-4.8,3.8-9.5,7.9-14,12.2c-0.7,0.6,0.3,1.7,1,1.1c4.4-4.3,8.9-8.3,13.7-12C40.9,28.6,40.2,27.3,39.5,27.9z"/>
	<path d="M49.6,31.2C44,36.5,38.6,42.1,33.2,47.8c-0.6,0.7,0.3,1.8,1,1.1c5.3-5.7,10.8-11.2,16.4-16.6
		C51.3,31.6,50.3,30.5,49.6,31.2z"/>
</g>
</svg>
