<?xml version="1.0" encoding="utf-8"?>
<!-- Generator: Adobe Illustrator 25.2.3, SVG Export Plug-In . SVG Version: 6.00 Build 0)  -->
<svg version="1.1"
	 id="svg62" sodipodi:docname="thumbs-up-icon.svg" xmlns:cc="http://creativecommons.org/ns#" xmlns:dc="http://purl.org/dc/elements/1.1/" xmlns:inkscape="http://www.inkscape.org/namespaces/inkscape" xmlns:rdf="http://www.w3.org/1999/02/22-rdf-syntax-ns#" xmlns:sodipodi="http://sodipodi.sourceforge.net/DTD/sodipodi-0.dtd" xmlns:svg="http://www.w3.org/2000/svg"
	 xmlns="http://www.w3.org/2000/svg" xmlns:xlink="http://www.w3.org/1999/xlink" x="0px" y="0px" viewBox="0 0 100 100"
	 style="enable-background:new 0 0 100 100;" xml:space="preserve">
<sodipodi:namedview  bordercolor="#666666" borderopacity="1" gridtolerance="10" guidetolerance="10" id="namedview64" inkscape:current-layer="svg62" inkscape:cx="795.47855" inkscape:cy="818.89252" inkscape:pageopacity="0" inkscape:pageshadow="2" inkscape:window-height="1001" inkscape:window-maximized="0" inkscape:window-width="1343" inkscape:window-x="0" inkscape:window-y="23" inkscape:zoom="0.77604688" objecttolerance="10" pagecolor="#ffffff" showgrid="false">
	</sodipodi:namedview>
<path d="M87.5,72.8C87.5,72.7,87.5,72.7,87.5,72.8c-0.1-0.2-0.2-0.3-0.1-0.3c-0.1-0.1-0.1-0.2-0.2-0.3c-0.3-0.5-0.7-1.1-0.9-1.6
	c-0.6-1.3-0.5-2.7,0.5-3.6c0.1-0.6,0.2-1.3,0.4-1.9c0-0.4-0.1-0.8-0.1-1.2c-0.1-0.5-0.1-1-0.1-1.5c0-0.3,0-0.7,0-1c0,0,0-0.1,0-0.2
	c0-0.1,0-0.1,0-0.1V61c-0.3-0.3-0.5-0.7-0.7-1c-0.3-0.4-0.6-0.8-0.8-1.3c-0.6-1.2-0.7-2.6-0.2-3.9c0.1-0.2,0.1-0.4,0.2-0.6l0,0
	c0.1-0.2,0.2-0.4,0.3-0.6l0,0c0-0.2,0-0.3,0-0.5l0,0l0,0V53c0-0.1,0-0.2,0-0.3s0-0.1,0-0.2c-0.1-0.2-0.1-0.5-0.2-0.7
	c-0.1,0-0.1-0.3-0.1-0.3l0,0c-0.1-0.2-0.2-0.5-0.3-0.7c-0.1-0.2-0.2-0.3-0.2-0.5c0-0.1-0.1-0.2-0.1-0.3c0,0.1,0,0.3,0.1,0.4
	c0,0.1,0,0.1,0,0.2c-0.1-0.4-0.2-0.8-0.3-1.1l0,0c0-0.1-0.1-0.2-0.1-0.3s0-0.1-0.1-0.2c0-0.1-0.1-0.2-0.1-0.3s-0.1-0.2-0.1-0.3
	c-0.1-0.3-0.2-0.5-0.3-0.8l0,0c0-0.1,0-0.1-0.1-0.2c0-0.2-0.1-0.4-0.1-0.6c0-0.1,0-0.1,0-0.2c-0.1-0.3-0.2-0.5-0.2-0.8
	c0-0.2-0.1-0.4-0.1-0.6c0,0,0,0,0-0.1c-0.1-0.6-0.3-1.2-0.5-1.7l0,0c0,0,0,0,0-0.1s-0.1-0.2-0.1-0.3c-0.1-0.2-0.1-0.3-0.2-0.5
	c0-0.1-0.2-0.4-0.2-0.5s-0.1-0.1-0.1-0.2s-0.3-0.7-0.4-0.9c0,0-0.1,0-0.1-0.1v0.1v-0.1c-0.1-0.1-0.1-0.1-0.2-0.2
	c-0.2-0.2-0.5-0.4-0.7-0.6c-0.4-0.4-0.7-0.9-0.9-1.4v-0.1c0-0.1-0.1-0.1-0.1-0.2l0,0c0-0.1-0.1-0.2-0.1-0.2c0-0.1,0-0.1-0.1-0.2
	c-0.3-0.2-0.5-0.5-0.8-0.8L78.9,37c-0.1-0.1-0.3-0.3-0.4-0.4l-0.1-0.1c-0.1-0.1-0.2-0.2-0.3-0.3c0-0.1-0.1-0.1-0.1-0.2
	c-0.1-0.1-0.2-0.2-0.2-0.3s-0.1-0.1-0.1-0.2C77.1,35.2,77,35.1,77,35s-0.1-0.1-0.1-0.2c-0.1-0.1-0.1-0.2-0.2-0.3l-0.1-0.1l0,0l0,0
	c-0.1-0.2-0.2-0.3-0.3-0.5c0-0.1-0.1-0.1-0.1-0.2c0,0,0,0,0-0.1c0,0,0-0.1-0.1-0.1c0,0,0,0,0-0.1v-0.1c0,0,0,0,0-0.1s0-0.1,0-0.2
	c-0.1-0.1-0.3-0.3-0.5-0.4c0,0,0,0-0.1-0.1l0,0c-0.4-0.2-0.7-0.5-1.1-0.7c-0.2-0.1-0.4-0.2-0.6-0.3c-0.1,0-0.2,0-0.2-0.1
	c-0.2-0.1-0.4-0.1-0.6-0.1c-0.1,0-0.2,0-0.3,0c-1.2,0-2.3,0-3.5,0.1l0,0l0,0c-0.1,0-0.3,0-0.4,0.1c-0.3,0-0.6,0.1-0.9,0.1
	c-0.5,0.1-1.1,0.2-1.6,0.2c-1.3,0.2-2.7,0.4-4,0.4c-1.6,0-2.9-1.4-3-2.9c-0.1-2.1-0.2-4.3-0.5-6.4c0-0.2-0.1-0.5-0.1-0.8
	c0-0.1,0-0.2-0.1-0.3c-0.1-0.5-0.1-1-0.2-1.5c-0.2-1-0.4-2.1-0.6-3.1c-0.3-0.4-0.5-0.8-0.5-0.9s-0.2-0.3-0.5-0.5
	c-0.3-0.2-0.5-0.5-0.6-0.5c0-0.1-0.1-0.2-0.3-0.3c-0.3-0.2-0.7-0.4-1-0.6c-0.8-0.5-1.6-0.8-2.4-1.2c-0.1,0-0.1-0.1-0.2-0.1
	c-0.1,0-0.4-0.1-0.5-0.2c-0.4-0.1-0.7-0.2-1.1-0.3c-0.1,0-0.1,0-0.2,0h-0.1c-0.2,0-0.4,0-0.5,0h-0.1c-0.1,0-0.3,0.1-0.4,0.1
	c-0.1,0-0.3,0.1-0.4,0.1c0,0.1-0.1,0.1-0.2,0.1c-0.2,0.1-0.5,0.2-0.5,0.3l0,0c-0.1,0.1-0.2,0.2-0.3,0.2c-0.1,0.1-0.3,0.5-0.5,0.6
	c-0.1,0.1-0.1,0.2-0.2,0.3c-0.2,0.2-0.3,0.5-0.4,0.8c-0.1,0.2-0.1,0.3-0.2,0.5c-0.1,0.3-0.2,0.5-0.3,0.8c-0.2,0.6-0.4,1.1-0.5,1.7
	c-0.4,1.4-0.7,2.7-1.2,4.1c-1.1,3.3-2.5,6.5-4.9,9.2c-2.2,2.5-5.3,4.4-8.5,5.4c-2.8,0.9-5.8,1.2-8.7,1.3C21,38,19.5,38,18,38
	c-0.8,0-1.6,0.1-2.4,0.1c-0.4,0-0.8,0.1-1.2,0.1c-0.1,0-0.3,0-0.5,0.1l0,0h-0.1c-0.5,0.1-0.9,0.1-1.4,0c0,0.3,0,0.7,0,1
	c0,1.8,0.1,3.5,0,5.3c-0.1,5.1-0.1,10.2,0,15.3c0,0,0,0,0.1,0c0,0.2,0,0.3,0,0.5c0,0,0,0-0.1,0c0,1.1,0,2.2,0.1,3.3
	c0.1,3.1,0.8,6.1,0.7,9.2C13.1,74.5,13,76,13,77.6s0,3.1,0,4.7c0,0.1,0,0.3,0,0.4c0.2,0.4,0.3,0.8,0.3,1.2c5.5-0.4,10.9-1,16.4-0.7
	c1.9,0.1,3.8,0.3,5.7,0.7c1.8,0.3,3.5,0.9,5.3,1.3c0.9,0.2,1.8,0.4,2.8,0.5c0.4,0.1,0.8,0.1,1.3,0.2c0.2,0,0.5,0.1,0.7,0.1
	c0.1,0,0.3,0,0.4,0c0.4,0.1,0.9,0.1,1.3,0.2c0.2,0,0.5,0,0.7,0.1c1.1,0.1,2.1,0.2,3.2,0.3c3.7,0.4,7.3,0.8,11,0.8
	c1.7,0,3.4-0.1,5.1-0.3l0.5-0.1c0.2,0,0.5-0.1,0.7-0.1c0.4-0.1,0.9-0.1,1.3-0.2c0.8-0.2,1.6-0.4,2.4-0.5c0.4-0.1,0.8-0.1,1.1-0.2
	c0.1,0,0.3,0,0.4-0.1c1.3-0.2,2.6-0.5,3.9-0.8c0.4-0.1,0.8-0.2,1.2-0.4l0,0h0.1c0.1,0,0.1,0,0.1,0c0.2-0.1,0.4-0.2,0.5-0.2l0,0l0,0
	l0,0c0.3-0.1,0.6-0.3,0.9-0.4c0.2-0.1,0.4-0.2,0.6-0.3c0.1,0,0.2-0.1,0.3-0.1c0.1-0.1,0.2-0.1,0.2-0.2c0.3-0.1,0.6-0.2,1-0.3
	c0.3-0.1,0.5-0.2,0.8-0.2c0,0,0,0.1-0.1,0.1c0.1,0,0.2,0,0.3,0c0.1-0.1,0.2-0.1,0.3-0.2c0.4-0.3,0.8-0.7,1.2-1.1
	c0.3-0.2,0.5-0.5,0.7-0.7c0.2-0.5,0.3-0.9,0.5-1.4c0.1-0.2,0.2-0.5,0.3-0.7c0.2-0.8,0.4-1.5,0.6-2.3c0.1-0.3,0.1-0.5,0.2-0.8v-0.1
	c0-0.2,0-0.3,0-0.5C87.5,74.3,87.5,73.5,87.5,72.8z M14.6,44.2c0-0.1,0-0.2,0-0.3s-0.1-0.1-0.1-0.2c-0.1-0.2-0.2-0.5-0.2-0.5
	s0.1-0.4,0.1-0.8v-0.7l0.7-0.1c0.4,0,0.8-0.1,0.9-0.1c0.1,0,0.4-0.1,0.6-0.3s0.3-0.3,1.1-0.3c0.1,0,0.3,0,0.5,0c0.1,0,0.3,0,0.4-0.1
	c1.5-0.1,3,0,4.4-0.1c0.7-0.1,1.4,0.2,1.9,0.7c-3.6,2.9-7,6-10.3,9.3C14.6,48.5,14.6,46.4,14.6,44.2z M14.7,52.7
	c3.5-3.6,7.2-7,11-10.1c0.1,0.3,0.2,0.7,0.3,1c0,0.1,0.1,0.9,0.1,0.7c0,0.2,0.1,0.5,0.1,0.7c0.1,0.6,0.2,1.2,0.3,1.8
	c0.1,0.4,0.1,0.7,0.2,1.1c-0.2-0.1-0.4,0-0.6,0.1c-3.9,2.7-7.6,5.6-11.2,8.7C14.8,55.4,14.8,54.1,14.7,52.7z M15.1,60.8
	c0-0.7-0.1-1.5-0.1-2.2c3.8-3.3,7.7-6.4,11.9-9.3c0,0.6,0.1,1.2,0.1,1.7c0,0.1,0,0.2,0,0.2s0,0.1,0.1,0.1c0,0.1,0,0.2,0,0.2
	c0,0.4,0,0.8,0.1,1.2c0,0.1,0,0.4,0.1,0.5c0,0.2,0.1,0.4,0.1,0.6c0,0.2,0.1,0.5,0.1,0.7c-4.2,3-8.2,6.1-12.1,9.5
	C15.1,62.9,15.1,61.9,15.1,60.8z M15.2,65.9c4-3.5,8.1-6.7,12.4-9.8c0.1,0.3,0.1,0.6,0.2,0.9c0.2,1,0.4,2,0.5,3
	c-4.6,2.8-8.9,6-13,9.5c0-0.2,0-0.3,0-0.5C15.2,68,15.2,66.9,15.2,65.9z M15.4,72.9c-0.1-0.5-0.1-1-0.1-1.4
	c4.1-3.6,8.5-6.9,13.1-9.8c0,0.3,0,0.6,0,0.9c0,0,0,0,0,0.1c0.2,0.3,0.2,0.6,0,1.3v0.1v0.1c0,0.6,0,1.1-0.1,1.7V66v0.1
	c0,0.3,0,0.5,0,0.8c-4.4,2.7-8.7,5.7-12.6,9.1C15.7,74.9,15.5,73.9,15.4,72.9z M17.1,79.8c-0.5,0.3-0.8,0.1-1.1-0.5
	c-0.2-0.5-0.3-0.8-0.2-1.4c0,0,0,0,0-0.1c0,0,0-0.1-0.1-0.1c3.9-3.4,8.1-6.4,12.5-9.2c0,0.3,0,0.6,0,0.9s0,0.6,0,0.8
	c0,0.1,0,0.3,0,0.4c0,0.4,0-0.2,0-0.2c-0.1,0.1,0.3,1.3,0.4,1.5c0.1,0.3,0.2,0.7,0.3,1c-3.6,2.3-7,4.9-10.2,7.8
	C18.1,80.6,17.6,80.3,17.1,79.8z M24.9,80.4L25,80C25.1,80,25,80.2,24.9,80.4z M29.6,76.6c-0.2,1.7-1.2,2.7-3,2.9
	c-0.2,0-0.5,0-0.7,0c0.1,0,0.1,0.1-0.1,0.1l-2.4,0.8c-0.8,0.1-1.6,0.1-2.3,0.1c2.7-2.3,5.5-4.4,8.4-6.3
	C29.6,75.1,29.7,75.9,29.6,76.6z M78.9,84.3c-0.2,0.1-0.3,0.2-0.5,0.3c0,0,0,0,0-0.1L78.9,84.3L78.9,84.3z M80.2,83.2
	c0.1-0.2,0.2-0.2,0.3-0.1C80.4,83.1,80.3,83.2,80.2,83.2z M85.1,63.4c0,0.3-0.1,0.6-0.1,0.8c0,0.5-0.2,1-0.4,1.4
	c-0.2,0.4-0.5,0.7-0.8,0.9c-0.2,0.2-0.5,0.4-0.8,0.5v0.1C77.5,71,71.1,73.4,64.3,74c0,0.2,0,0.3,0,0.5s0,0.4,0,0.6v0.1
	c0.1,0.3,0.1,0.6,0.2,0.8v0.1c0,0,0,0.1,0.1,0.1l0,0c0.1,0,0.2,0.1,0.2,0.1c0.1,0,0.3,0.1,0.4,0.1c0.2,0,0.3,0.1,0.5,0.1
	c0.9,0,1.7,0.1,2.6,0c0.1,0,0.7-0.1,0.8-0.1h0.1c0.5-0.1,0.9-0.2,1.4-0.2c1.9-0.4,3.7-0.8,5.5-1.5c0.1,0,0.2-0.1,0.3-0.1
	c0.2-0.1,0.5-0.2,0.5-0.2c0.4-0.2,0.8-0.5,1.2-0.7c0.1-0.1,0.3-0.2,0.4-0.3c0.1-0.1,0.3-0.3,0.5-0.4s0.3-0.3,0.5-0.5
	c0.1-0.1,0.1-0.1,0.2-0.2s0.1-0.1,0,0c0,0-0.1,0.1-0.1,0.2c1-1.3,2.5-1.9,4.1-1c1.5,0.8,1.7,2.6,1.1,4c0.5-1,0,0.1-0.1,0.4
	s-0.2,0.7-0.4,1c-0.4,1.1-0.9,2.1-1.8,2.9c-0.9,0.7-1.9,1.1-3,1.3c-0.3,0.3-0.8,0.6-1.2,0.7C78.1,82,78,82,77.9,82
	c-0.2,0.1-0.4,0.2-0.7,0.4c-0.7,0.2-1.3,0.3-2,0.4c-3.9,0.7-7.8,0.9-11.7,1.1c-4,0.2-8,0.3-11.9,0.1c-0.2,0-0.4,0-0.6,0
	c-1.7-0.2-3.4-0.4-5.2-0.6c-0.4,0-0.8-0.1-1.2-0.1c-0.9-0.2-1.9-0.4-2.8-0.7c-2.2-0.7-4.2-1.6-5.9-3c-0.1,0-0.3,0-0.4-0.1
	c-1-0.2-2.1-0.7-2.1-1.1c0-0.1-0.3-0.5-0.6-0.9c-0.4-0.5-0.6-0.9-0.6-1.1c0-0.7,0-0.9-0.2-0.9l0,0c0-0.1,0-0.2,0-0.3
	c0.1-0.2,0.1-0.5,0-1.3c-0.1-0.6-0.2-1.2-0.2-1.4c0-0.2-0.1-0.6-0.1-1s-0.1-0.8-0.1-1.2c0.2,0,0.2-0.4,0-0.7c0-0.1-0.1-0.1-0.1-0.2
	s0-0.2,0-0.3l0,0c0.1-0.1,0.1-0.2,0-0.3c0,0,0,0-0.1-0.1c-0.3-4.4-0.4-8.7-0.4-13c0-3.9,0.2-7.8,0.5-11.7c0-0.3,0-0.7,0.1-1.1
	c3.2-0.6,6.1-2.4,8.3-4.8c3.3-3.5,5.1-7.9,6.6-12.3c0.1-0.2,0.2-0.4,0.3-0.5c0.1-0.3,0.3-0.6,0.3-0.8c0.1-0.2,0.1-0.5,0.1-0.9
	c0.1-0.4,0.3-0.9,0.4-1.3c0.2-0.3,0.3-0.7,0.3-0.9c0.5-1.6,1-3.1,1.6-4.6c0-0.1,0.1-0.2,0-0.3c0.2-0.1,0.5-0.2,0.8-0.2l0,0
	c0.3,0,0.8,0.1,1.2,0.2c0.3,0.1,0.7,0.3,0.8,0.4c0.6,0.5,1.9,1.9,2.1,2.1c0.7,1.3,1.1,1.9,1,2.1c0,0.1,0.1,0.3,0.2,0.4
	c0.1,0.1,0.3,0.5,0.3,1c0.1,1.4,0.2,1.5,0.4,1.7c0.1,0.1,0.2,0.5,0.3,0.9c0,0.4,0.1,1,0.1,1.4c0,0.3,0.1,1.1,0.1,1.8
	c0,0.7,0.1,1.5,0.2,1.9c0.1,0.4,0.1,0.8,0,0.9s-0.2,0.6-0.3,1c-0.1,0.9-0.6,1.7-1.1,2.1c-0.1,0.2-0.1,0.5-0.2,0.7l0,0V35
	c0,0.1,0,0.2-0.1,0.3c0,0.1,0,0.1,0,0.2c0,0.2-0.1,0.4-0.1,0.6c0,0.2-0.1,0.4-0.1,0.6c0,0.1,0.1,0.2,0.1,0.4c-0.1,0-0.1,0.1-0.2,0.1
	c0,0.1,0,0.2,0,0.3c0-0.1,0-0.1,0-0.2c0,0.1,0,0.3,0,0.4c0,0.2,0,0.4-0.1,0.6c0,0.5-0.1,1,0,1.4c0,0.2,0,0.3,0,0.5v0.1
	c0,0.1,0.1,0.2,0.1,0.3c0.1,0.1,0.1,0.2,0.2,0.2c0,0,0,0,0.1,0.1s0.2,0.2,0.3,0.2c0.3,0.2,0.7,0.4,1,0.6c0.1,0,0.2,0.1,0.3,0.1
	c0.3,0.1,0.2,0,0,0c-0.1,0-0.1,0-0.2,0c0.1,0,0.2,0.1,0.4,0.1l6.6-1.5c1.6-0.2,3.2-0.5,4.7-1.1c0.2,0,0.4-0.1,0.6-0.1
	s0.3-0.1,0.4-0.3c0.5-0.2,1.1-0.5,1.5-1c0.1-0.4,0.3-0.8,0.6-1.2l0,0l0,0c0.2-0.3,0.5-0.5,0.8-0.7s0.7-0.3,1-0.4c0,0,0,0,0.1,0
	s0.1,0,0.2,0h0.1h0.1c0.1,0,0.1,0,0.2,0l0,0c0.1,0,0.2,0,0.3,0l0,0c0,0,0,0,0.1,0h0.1c0,0,0,0,0.1,0h0.1l0,0c0.1,0,0.2,0.1,0.4,0.2
	h0.1c0,0,0.1,0,0.1,0.1c0.1,0,0.1,0.1,0.2,0.1c0,0,0,0,0.1,0.1c0.1,0,0.1,0.1,0.2,0.1l0,0c0.1,0.1,0.1,0.1,0.2,0.2l0,0
	c0.1,0.1,0.1,0.1,0.2,0.2l0,0c0,0.1,0.1,0.1,0.1,0.2c0.1,0.1,0.1,0.2,0.2,0.3c0,0,0,0.1,0.1,0.1c0,0.1,0.1,0.1,0.1,0.2
	c0,0,0,0.1,0.1,0.1c0,0.1,0.1,0.1,0.1,0.2l0.1,0.1c0,0.1,0.1,0.1,0.1,0.2l0.1,0.1c0,0.1,0.1,0.1,0.1,0.2l0.1,0.1
	c0,0.1,0.1,0.1,0.1,0.2c0,0,0,0.1,0.1,0.1c0.1,0.1,0.1,0.2,0.2,0.2c0.2,0.2,0.3,0.5,0.5,0.7c0.1,0.1,0.2,0.3,0.3,0.4l0,0
	c0.3,0.4,0.5,0.9,0.8,1.3c0.1,0.1,0.1,0.3,0.2,0.5s0.1,0.3,0.2,0.5c0,0,0,0.1,0.1,0.1c0,0.1,0.1,0.2,0.1,0.3s0,0.1,0.1,0.2V43
	c0,0.1,0,0.1,0,0.2v0.1c0,0.1,0,0.1,0,0.2v0.1c0,0.1,0,0.1,0,0.2v0.1c0,0.1,0,0.1,0,0.2v0.1c0,0.1,0,0.1,0,0.2v0.1
	c0,0.1,0,0.1,0,0.2v0.1c0,0.1,0,0.1,0,0.2c0,0.4,0,0.8-0.1,1.2l0,0c0,0,0,0,0,0.1s0,0.1,0,0.2v0.1c0,0.1-0.1,0.2-0.1,0.2v0.1
	c0,0.1-0.1,0.1-0.1,0.2c0,0,0,0,0,0.1s-0.1,0.2-0.1,0.3c0,0,0,0,0,0.1s-0.1,0.2-0.2,0.3c-1.5,2.3-4.2,3.7-6.7,4.7
	c-0.4,0.2-0.8,0.3-1.2,0.5c-0.1,0-0.1,0-0.2,0.1c-0.3,0.1-0.7,0.3-1,0.4c-0.6,0.2-1.1,0.4-1.7,0.7c-0.1,0-0.3,0.1-0.4,0.1
	c-0.1,0.1-0.3,0.1-0.4,0.2l0,0c-0.4,0.2-0.9,0.5-1.3,0.8c-0.1,0.1-0.2,0.1-0.3,0.2c0,0-0.1,0.1-0.2,0.1s-0.1,0.1-0.2,0.1
	c0,0-0.1,0-0.1,0.1l0,0c-0.1,0-0.1,0.1-0.2,0.1h-0.1h-0.1c-0.1,0-0.1,0.1-0.2,0.1l0,0c0,0-0.1,0-0.1,0.1c-0.1,0-0.1,0.1-0.2,0.1
	s-0.1,0-0.2,0.1c-0.1,0-0.1,0.1-0.2,0.1s-0.1,0-0.2,0.1c-0.1,0-0.1,0.1-0.2,0.1c0,0-0.1,0-0.1,0.1l0,0c-0.1,0-0.1,0.1-0.2,0.1h-0.1
	h-0.1c-0.1,0-0.2,0.1-0.3,0.1h-0.1l0,0c-0.1,0-0.2,0.1-0.3,0.1h-0.1h-0.1c-0.1,0-0.1,0-0.2,0.1l0,0c-0.1,0-0.1,0-0.2,0
	c-0.1,0-0.1,0-0.2,0c-0.1,0-0.1,0-0.2,0c-0.1,0-0.1,0-0.2,0c-0.1,0-0.1,0-0.2,0c-0.1,0-0.1,0-0.2,0c-0.1,0-0.1,0-0.2,0
	c-0.3,0-0.5,0-0.7,0c-0.3,0.1-0.6,0.2-0.9,0.3c-0.5,0.2-0.8,0.8-0.3,1.2c0.2,0.2,0.4,0.3,0.6,0.4l0,0l0,0c0.1,0.1,0.2,0.1,0.3,0.2
	c0,0.1,0.1,0.2,0.1,0.3c0.3,0,0.6,0.1,0.8,0c-0.3,0-0.4,0-0.3,0c0,0,0,0,0.1,0l0,0h0.1c0.1,0,0.3-0.1,0.5-0.1
	c0.4-0.1,0.8-0.3,1.2-0.4l0,0l0,0c0.1-0.1,0.3-0.1,0.4-0.2c0.2-0.1,0.4-0.1,0.5-0.2c0.1,0,0.3-0.1,0.4-0.1c0.8-0.2,1.6-0.3,2.4-0.5
	c0.2,0,0.4-0.1,0.7-0.1c0.8-0.4,1.6-0.8,2.4-1.2c0.3-0.1,0.5-0.3,0.8-0.4c0.1-0.1,0.2-0.1,0.3-0.2c0.5-0.3,1-0.5,1.5-0.8
	c0.1-0.1,0.3-0.1,0.4-0.2c0.3-0.1,0.5-0.2,0.8-0.4l0,0c0.1,0,0.1-0.1,0.2-0.1l0.3-0.1c0.8-0.3,1.6-0.7,2.4-1.2
	c0.1,0,0.1-0.1,0.2-0.1s0.1-0.1,0.2-0.1s0.1-0.1,0.1-0.1l0,0c0.1-0.1,0.1-0.1,0.2-0.2l0,0v-0.1c0,0,0,0,0.1-0.1
	c0.2-0.2,0.3-0.3,0.5-0.5l0.1-0.1l0,0c0.1-0.1,0.1-0.2,0.2-0.2l0,0l0,0l0,0l0,0l0,0l0,0l0,0l0,0l0,0l0,0l0,0l0,0l0,0c0,0,0,0,0,0.1
	c0.3-0.3,0.5-0.6,0.8-0.8c0.2-0.1,0.4-0.2,0.6-0.3l0,0c0.1,0,0.1-0.1,0.2-0.1l0,0l0.1-0.1l0,0c0.1,0,0.1-0.1,0.2-0.1l0,0
	c0.1,0,0.1-0.1,0.2-0.1c0,0,0,0,0.1,0s0.1,0,0.2-0.1l0,0c0.3-0.1,0.5-0.1,0.8-0.1c0.1,0,0.2,0,0.3,0c0-0.1,0.1-0.1,0.1-0.2
	c0.1-0.1,0.3-0.1,0.7,0.1c0.3,0.2,0.4,0.3,0.4,0.5c0.9,0.5,1.5,1.5,1.4,2.5c-0.5,4.8-5.3,7-9.4,8.6c-2,0.8-4,1.4-6.1,1.8
	c-1.3,0.2-2.6,0.4-3.9,0.9c-0.9,0.3-1.9,0.7-2.9,0.8c0,0,0,0,0,0.1s-0.1,0.2-0.1,0.3l0,0l0,0c-0.1,0.3,0,0.6,0.2,0.8
	c0.1,0.3,0.3,0.5,0.7,0.5c0.6,0,1.2-0.1,1.8-0.2c0.2,0,0.4,0,0.5-0.1c0.3,0,0.7-0.1,1-0.1v0.1c2.1-0.8,4.1-1.6,6.2-2.3
	c1.3-0.4,2.6-0.6,3.8-1c0.3-0.1,0.7-0.2,1-0.3c0,0,0.1,0,0.3-0.1c0,0,0.1-0.1,0.2-0.1c0.3-0.1,0.5-0.3,0.8-0.4c0,0,0.2-0.1,0.3-0.2
	c0,0,0.1,0,0.1-0.1c0.7-0.6,1.4-0.8,2.2-0.8c0-0.1,0-0.2,0-0.2c0.1-0.1,0.3-0.2,0.4-0.3c0.2-0.1,0.3-0.3,0.5-0.5
	c1.3-1.2,1.6-1.4,2.2-1.6c0.6-0.1,0.8-0.1,0.9,0.1c0.1,0.1,0.3,0.2,0.3,0.2c0.1,0,0.1,0.3,0.1,0.6s0.1,0.6,0.2,0.7s0.1,0.2,0.1,0.4
	s0,0.6,0.1,0.8C85.1,62.7,85.2,63,85.1,63.4z"/>
</svg>
