<?xml version="1.0" encoding="utf-8"?>
<!-- Generator: Adobe Illustrator 25.2.3, SVG Export Plug-In . SVG Version: 6.00 Build 0)  -->
<svg version="1.1"
	 id="svg62" sodipodi:docname="thumbs-up-icon.svg" xmlns:cc="http://creativecommons.org/ns#" xmlns:dc="http://purl.org/dc/elements/1.1/" xmlns:inkscape="http://www.inkscape.org/namespaces/inkscape" xmlns:rdf="http://www.w3.org/1999/02/22-rdf-syntax-ns#" xmlns:sodipodi="http://sodipodi.sourceforge.net/DTD/sodipodi-0.dtd" xmlns:svg="http://www.w3.org/2000/svg"
	 xmlns="http://www.w3.org/2000/svg" xmlns:xlink="http://www.w3.org/1999/xlink" x="0px" y="0px" viewBox="0 0 100 100"
	 style="enable-background:new 0 0 100 100;" xml:space="preserve">
<style type="text/css">
	.st0{fill:none;}
</style>
<sodipodi:namedview  bordercolor="#666666" borderopacity="1" gridtolerance="10" guidetolerance="10" id="namedview64" inkscape:current-layer="svg62" inkscape:cx="795.47855" inkscape:cy="818.89252" inkscape:pageopacity="0" inkscape:pageshadow="2" inkscape:window-height="1001" inkscape:window-maximized="0" inkscape:window-width="1343" inkscape:window-x="0" inkscape:window-y="23" inkscape:zoom="0.77604688" objecttolerance="10" pagecolor="#ffffff" showgrid="false">
	</sodipodi:namedview>
<g>
	<path class="st0" d="M-178.7,143.9c0.2-0.1,0.3-0.2,0.3-0.5c0-0.2-0.1-0.4-0.2-0.6c0.1-3.8,0.2-7.6,0.4-11.4c0-0.3,0-0.7,0-1
		c0.1-0.2,0.1-0.3,0.2-0.5c1.8-5.1,1.9-6.7,0.3-8.9c-0.1-0.1-0.2-0.3-0.3-0.4c0-2.1-0.1-4.3-0.2-6.4c-31.1,20-60.6,42.4-88.3,67
		c0.2,3.3,0.5,6.6,0.9,9.9c0.8,6.8,1.6,13.6,1.7,20.4c26.8-22.8,55.3-43.6,85.2-62.1C-178.7,147.4-178.7,145.6-178.7,143.9z"/>
	<path class="st0" d="M-175.5,184.2c-0.4-1.3-3.5-9.5-2.6-10.3c0.1-0.1,0.2,3.9,0.2,1.4c0-0.9-0.1-1.8-0.2-2.7
		c-0.1-1.9-0.2-3.8-0.3-5.7c-0.1-2-0.2-3.9-0.2-5.9c-29.7,18.8-57.9,39.8-84.5,62.9c0.1,0.3,0.2,0.7,0.4,1c0,0.1,0,0.3-0.1,0.4
		c-0.5,3.9-0.2,6,1.3,9.5c2,4.3,4.2,5.5,7.4,3.7c3,3.1,6.9,5.2,11.4,5.8c21.6-19.6,44.7-37.4,69.1-53.4
		C-174.2,188.7-174.9,186.4-175.5,184.2z"/>
	<path class="st0" d="M-201.6,242.2c0.7-1.2,1.2-2.2,1-2.4L-201.6,242.2z"/>
	<path class="st0" d="M-227.7,244.4c5.2-0.1,10.5-0.4,15.7-0.9l16.4-5.8c1.1-0.5,1.3-0.7,0.7-0.9c1.6,0,3.3-0.1,4.9-0.3
		c11.8-1.2,18.6-8.3,20-20c0.6-5.1,0.1-10.3-0.9-15.4C-190.8,214.3-209.7,228.8-227.7,244.4z"/>
	<path class="st0" d="M159.8,270.8c1.1-0.6,2.1-1.2,3.2-1.8l0,0l-3.4,1.3C159.6,270.5,159.7,270.7,159.8,270.8z"/>
	<path class="st0" d="M-186.4,59.9c-0.2-1.3-0.4-2.7-0.6-4c0-0.4-0.3-2.3-0.4-3.2c-0.3-2.6-0.4-5.3-0.6-7.9c0.4-0.1,0.5-0.5,0.3-1.4
		c-0.1-0.3-0.2-0.6-0.4-0.8c0-0.5,0-1.1,0-1.6c0-4.1-0.2-8.1-0.5-12c-27.8,19.9-54.5,41.2-80.1,63.9c0.2,5,0.4,10.1,0.6,15.1
		c0.3,7.3,0.5,14.5,0.7,21.8c26.2-22.9,53.5-44.5,81.8-64.9C-185.8,63.3-186.1,61.6-186.4,59.9z"/>
	<path class="st0" d="M-201.3-25c-3.3-3.1-7.7-5-12.7-4.5c-10,0.9-20,0-30,1c-0.9,0.1-1.7,0.2-2.6,0.4c-1.3,0-2.4,0-3.4,0
		c-5.2,0-6.1,0.5-7.5,2c-1.2,1.3-2.9,2.3-3.8,2.3c-0.9,0.1-3.7,0.4-6.2,0.7l-4.5,0.6l-0.3,4.6c-0.1,2.5-0.4,4.9-0.6,5.2
		c-0.2,0.4,0.4,2,1.4,3.7c0.2,0.4,0.5,0.8,0.7,1.3c-0.1,0.7-0.2,1.5-0.2,2.3c-0.2,14.8,0,29.5,0.4,44.2
		C-248.7,16.2-225.6-5-201.3-25z"/>
	<path class="st0" d="M-189.5,19.6c-0.3-2.5-0.7-4.9-1.1-7.4c-0.7-4.1-1.5-8.2-2.2-12.3c-0.3-1.7-0.5-3.3-0.8-5
		c0.3,1.6-0.3-3.4-0.4-4.5c-0.2-2.4-0.8-4.8-1.7-7.2c-26.2,21.6-51.1,44.8-74.5,69.4c0.3,9.1,0.7,18.2,1.1,27.3
		c24.2-21.1,49.5-41.1,75.7-59.8C-192.1,19.3-190.7,19.2-189.5,19.6z"/>
	<path class="st0" d="M-266.9,168.1c27.5-23.9,56.9-45.8,87.7-65.3c-0.8-6.9-1.8-13.9-3.1-20.8c-0.4-2.1-0.8-4.1-1.2-6.2
		c-28.9,21-56.8,43.4-83.5,67.1c0.1,7.3,0.2,14.6,0.1,21.9C-266.9,165.8-266.9,167-266.9,168.1z"/>
	<path class="st0" d="M171.6,261.8c0.7-0.3,1.4-0.6,2.1-0.9C172.9,260.1,172.3,260.3,171.6,261.8z"/>
	<path class="st0" d="M98.5,77.2c1.5-0.4,3-0.9,4.6-1.3L98.4,77C98.4,77.1,98.4,77.1,98.5,77.2z"/>
	<path class="st0" d="M105.5,74.2c-1.3,0.5-2.6,0.9-3.9,1.3l4.4-1C105.9,74.4,105.7,74.3,105.5,74.2z"/>
	<path class="st0" d="M210.2,217.9c0.3-0.3,0.6-0.6,0.8-1.1s0.1-0.8-0.2-1.1C210.7,216.5,210.4,217.2,210.2,217.9z"/>
	<path class="st0" d="M190,245.3c2.5-1.2,4.7-2.8,6.1-5c-0.7,0.4-1.6,1-2.7,1.8C191.9,243.2,190.8,244.2,190,245.3z"/>
	<path class="st0" d="M203,113c0.2-1.5-0.1-2.8-0.7-3c-0.6-0.2-1.2-2.2-1.2-4.5s-0.3-4.2-0.7-4.2c-0.3,0-1.4-0.7-2.3-1.6
		c-1.3-1.4-2.2-1.4-6.4-0.4c-4,0.9-6.5,2.7-15,10.7c-1.2,1.1-2.4,2.2-3.5,3.2c-1,0.6-1.9,1.3-2.8,2c0.2,0.5,0.3,1,0.3,1.6
		c-5.2-0.1-10.4,1.9-14.9,5.6c-0.3,0.2-0.5,0.4-0.6,0.6c-0.8,0.5-1.8,1-2,1.2c-1.7,1-3.5,2-5.3,2.9c-0.6,0.3-1,0.5-1.3,0.7
		c-0.7,0.2-1.4,0.4-1.7,0.5c-2.2,0.8-4.4,1.5-6.6,2.2c-8.5,2.6-17.3,4.4-25.8,7c-14.3,4.4-28.2,10.1-42.1,15.6
		c-0.1-0.2-0.1-0.4-0.1-0.6c-2.2,0.3-4.4,0.6-6.6,0.9c-0.8,0.5-2,0.7-3.6,0.4c-4,0.4-8.1,0.8-12.1,1.1c-2.7,0.2-4.2-1.4-4.7-3.4
		c-1.3-1.4-2-3.2-1.4-5.4l-0.1-0.1h0.1c0.2-0.6,0.4-1.2,0.8-1.8c0.1-0.2,0.2-0.3,0.3-0.5c6.8-0.8,13.3-3.1,19.7-5.5
		c8.5-3.2,17.3-4.4,26.1-6c14.4-2.5,27.9-7.2,41.5-12.4C158,109,190.4,94,193.9,60.7c0.7-6.8-3.7-13.4-9.6-17
		c-0.4-1.3-1.2-2.1-3-3.2c-2.4-1.4-3.5-1.6-4.5-0.8c-0.4,0.3-0.7,0.7-1,1.1c-0.6-0.1-1.3-0.1-1.9,0c-2,0.1-3.8,0.4-5.5,0.9
		c-0.1,0-0.2,0.1-0.2,0.1c-0.4,0.1-0.9,0.3-1.3,0.5c-0.1,0-0.2,0.1-0.4,0.1c-0.4,0.2-0.8,0.4-1.3,0.6c-0.1,0-0.1,0.1-0.2,0.1
		c-0.5,0.2-0.9,0.5-1.3,0.8c-0.1,0.1-0.2,0.1-0.3,0.2c-0.3,0.2-0.7,0.4-1,0.7c-0.1,0.1-0.2,0.2-0.3,0.3c-0.4,0.3-0.8,0.6-1.1,0.9
		l0,0c-1.3,0.6-2.6,1.4-3.8,2.3c-2,1.5-3.9,3.4-5.5,5.6c0.1-0.2,0.2-0.3,0.3-0.4l0.1-0.1c0.1-0.1,0.1-0.1,0.2-0.2l0.1-0.1l0.1-0.1
		c0,0,0-0.1,0.1-0.1c0,0,0-0.1,0.1-0.1l0,0l0,0l0,0l0,0l0,0c0,0,0,0-0.1,0.1l0,0c-0.2,0.3-0.7,0.9-1.2,1.4l0,0
		c-0.2,0.2-0.4,0.5-0.6,0.6c-1.1,1.1-2.2,2.3-3.3,3.3c-0.1,0.1-0.3,0.3-0.5,0.5v0.5l-0.1,0.1c-0.4,0.4-0.8,0.8-1.2,1.2l-0.2,0.1
		c-0.1,0-0.4,0.1-0.9,0.4c-0.4,0.3-0.8,0.5-1.2,0.8s-0.9,0.6-1.3,0.9c-5.1,3.2-10.7,5.9-15.9,8.3l-1.8,0.4c-0.4,0.2-0.8,0.4-1.2,0.5
		l0,0c-1.8,0.8-3.6,1.7-5.3,2.5c-0.9,0.4-1.8,0.8-2.6,1.3c-3.5,1.7-7,3.5-10.4,5.3c-0.8,0.4-1.5,0.8-2.3,1.2
		c-1.7,0.9-3.5,1.8-5.2,2.8c-5.3,2.9-10.8,5.7-16.3,8.4c-1.5,0.3-3,0.6-4.5,0.8c-5.5,1-11.1,1.8-16.5,3.2c-0.9,0.2-1.8,0.5-2.7,0.7
		c-1.3,0.4-2.5,0.8-3.7,1.2c-0.9,0.3-1.9,0.7-2.8,1.1h-0.1l0,0c-2.6,1-5.1,2-7.8,2.8c-1,0.3-2.1,0.6-3.1,0.9
		c-0.3,0.1-0.5,0.1-0.7,0.1l0,0c-0.2,0-0.4,0.1-0.5,0.1c-0.9,0.2-0.3,0.1,1.8-0.1c-1.4,0.5-3.4,0.3-5.1,0c-0.5-0.7-0.8-1.4-1-2.2
		c-0.7-0.4-1.4-0.8-2.1-1.2c-0.1,0-0.1,0-0.2,0v-0.1c-1.4-0.9-2.7-1.9-4-3c-3-2.6-1.1-7.3,2.2-8.4c2.1-0.7,4.3-1.4,6.4-2.2
		c1.7,0.1,3.3,0.1,5-0.1c0.4,0,0.7-0.1,1.1-0.1c0.5,0,1-0.1,1.6-0.2c0.4,0,0.7-0.1,1.1-0.2c0.5-0.1,1-0.2,1.5-0.3
		c0.4-0.1,0.7-0.1,1.1-0.2c0.5-0.1,1-0.2,1.6-0.3c0.4-0.1,0.7-0.2,1.1-0.2c0.1,0,0.1,0,0.2,0c0.5-0.1,1-0.3,1.5-0.4
		c0.3-0.1,0.5-0.1,0.8-0.2c0.2-0.1,0.4-0.1,0.6-0.2c0.6-0.2,1.2-0.4,1.7-0.5h0.1c0.3-0.1,0.5-0.2,0.8-0.3c0.6-0.2,1.2-0.4,1.8-0.6
		c0.2-0.1,0.4-0.2,0.6-0.2c0.2-0.1,0.5-0.2,0.7-0.3c0.5-0.2,0.9-0.4,1.4-0.5c0.1,0,0.2-0.1,0.3-0.1c0.3-0.1,0.7-0.3,1-0.4
		c0.5-0.2,1-0.4,1.5-0.6c0.4-0.2,0.8-0.3,1.1-0.5c0.5-0.2,0.9-0.4,1.4-0.6c0.4-0.2,0.8-0.3,1.1-0.5c0.5-0.2,0.9-0.4,1.4-0.7
		c0.3-0.1,0.6-0.3,0.9-0.4c0.1-0.1,0.2-0.1,0.3-0.2c0.4-0.2,0.9-0.4,1.3-0.6c0.2-0.1,0.4-0.2,0.5-0.3c0.2-0.1,0.4-0.2,0.6-0.3
		c0.4-0.2,0.9-0.4,1.3-0.7l0,0c0.3-0.2,0.7-0.3,1-0.5c0.4-0.2,0.8-0.4,1.2-0.6c0.4-0.2,0.7-0.4,1.1-0.6c0.7-0.4,1.4-0.8,2.1-1.2
		c3-1.7,6-3.4,9-5.2l0,0c1-0.4,2-0.8,3-1.2c0.9-0.3,1.7-0.7,2.6-1c3.9-1.5,7.8-3,11.6-4.6c2.4-0.9,4.7-1.9,7-2.8
		c0.4-0.2,0.8-0.3,1.2-0.5c2.6-1.1,5.2-2.1,7.8-3.3c16.8-7.2,35.2-16.3,45.1-32.4c0.4-0.6,0.7-1.2,1.1-1.9c0.1-0.1,0.2-0.3,0.2-0.4
		c0.3-0.6,0.6-1.2,0.9-1.8c0.1-0.2,0.1-0.3,0.2-0.5c0.2-0.5,0.4-1,0.6-1.5c0.1-0.2,0.1-0.4,0.2-0.5c0.2-0.6,0.4-1.1,0.6-1.7
		c0.1-0.2,0.1-0.5,0.2-0.7c0.1-0.4,0.2-0.9,0.3-1.3c0-0.1,0.1-0.3,0.1-0.4l0,0c0.6-2.8,0.9-5.7,0.9-8.5c0-0.4,0-0.9,0-1.3
		c0-0.3,0-0.6,0-0.8c0-0.4-0.1-0.9-0.1-1.3c0-0.3-0.1-0.6-0.1-0.9c0-0.4-0.1-0.9-0.2-1.3c0-0.3-0.1-0.6-0.1-0.9
		c-0.1-0.4-0.1-0.8-0.2-1.3c-0.1-0.3-0.1-0.6-0.2-0.9c-0.1-0.4-0.2-0.8-0.3-1.2c-0.1-0.3-0.1-0.6-0.2-0.9c-0.1-0.4-0.2-0.8-0.3-1.2
		c-0.1-0.3-0.2-0.6-0.3-0.9c-0.1-0.4-0.2-0.8-0.3-1.2c-0.1-0.3-0.2-0.6-0.3-0.9c-0.1-0.4-0.3-0.9-0.4-1.3c-0.2-0.7-0.4-1.4-0.6-2.1
		c-0.1-0.2-0.2-0.4-0.4-0.6c-0.4-1.1-0.9-2.3-1.4-3.4c-0.5-1-1-2-1.5-3.1c-1.6-3.1-3.3-6-5.2-8.9c-0.1-0.1-0.1-0.2-0.2-0.3
		c-0.6-0.9-1.2-1.8-1.8-2.7c-1.1-1.6-2.2-3.2-3.2-4.8c-0.4-0.6-0.8-1.1-1.1-1.7c-0.2-0.2-0.3-0.4-0.5-0.7c-0.3-0.4-0.6-0.9-0.9-1.3
		c-0.2-0.3-0.4-0.5-0.5-0.8c-0.3-0.4-0.5-0.8-0.8-1.2c-0.2-0.3-0.4-0.6-0.5-0.8c-0.3-0.4-0.5-0.8-0.8-1.2c-0.2-0.3-0.4-0.6-0.5-0.8
		c-0.3-0.4-0.5-0.8-0.8-1.3c-0.2-0.3-0.3-0.5-0.5-0.8c-0.3-0.5-0.5-0.9-0.8-1.4c-0.1-0.2-0.3-0.5-0.4-0.7c-0.4-0.7-0.8-1.4-1.1-2.1
		c-0.3-0.6-0.6-1.1-1-1.6l-0.1-0.1c-0.3-0.5-0.7-0.9-1.1-1.4c-0.1-0.1-0.1-0.1-0.2-0.2c-0.4-0.4-0.7-0.8-1.1-1.1
		c-0.1-0.1-0.2-0.2-0.3-0.3c-0.4-0.3-0.7-0.6-1.1-0.9c-0.2-0.1-0.3-0.3-0.5-0.4c-0.3-0.2-0.7-0.5-1.1-0.7c-0.2-0.1-0.5-0.3-0.7-0.4
		s-0.4-0.2-0.6-0.3c-0.8-0.4-1.6-0.8-2.4-1.1c-0.1,0-0.2-0.1-0.3-0.1c-0.3-0.1-0.6-0.2-0.9-0.3c-0.1,0-0.3-0.1-0.5-0.1
		c-0.3-0.1-0.5-0.1-0.8-0.2c-0.2,0-0.3-0.1-0.5-0.1l0,0c-0.7-0.1-1.4-0.3-2.1-0.3c-0.1,0-0.2,0-0.3,0c-0.5-0.1-1-0.1-1.4-0.1
		c-0.3,0-0.6,0-0.9,0c-0.3,0-0.5,0-0.8,0c-0.5,0-1,0.1-1.4,0.1c-0.2,0-0.3,0-0.5,0.1c-2.5,0.3-4.9,1.2-7,2.5s-3.8,2.9-5.2,4.7
		c-0.1,0-0.2,0.1-0.2,0.1c0,0.1,0,0.2,0,0.2c-1.9,2.5-3.2,5.2-3.8,8.2c-2.7,2.9-6.4,5-9.9,6.6C97.9-40,97-39.3,95.7-39
		c-1.4,0.3-2.8,0.7-4.2,1c-10.2,3.8-21,6.4-31.8,7.6L15.1-19.8c-0.8-0.4-1.6-0.7-2.4-0.8c0.6,0.1,1.1,0.2,1.5,0.3
		c-0.7-0.2-1.6-0.5-2.2-0.8c-2.4-1.2-4.7-2.4-7-3.9c-0.7-0.4-1.4-1.1-2.1-1.5c-0.1-0.1-0.3-0.3-0.4-0.4c-0.5-0.5-1-1-1.5-1.5
		c-0.2-0.7-0.5-1.4-0.6-2c-0.1-0.2-0.1-0.4-0.1-0.6c-0.1-1.2-0.2-2.4-0.2-3.7c-0.1-3.3,0-6.6,0.3-9.9c0.1-1.4,0.2-2.8,0.4-4.2
		c0-0.5,0.1-1.9,0.2-3c0,0.3,0,0.7-0.1,1.2c0-0.6,0.1-1.2,0.2-1.9c0.3-0.4,0.7-0.6,1.2-0.9c-0.2-0.8-0.4-1.7-0.6-2.5
		c0.3-1.5,0.6-2.9,0.8-4.3C2.7-61.5,3-62.7,3.2-64c0.1-0.5,0.2-1,0.3-1.5c0.1-0.7,0.3-1.4,0.4-2.1C4-67.9,4-68.2,4.1-68.5l0,0
		c0.4-1.7,0.8-3.4,1.2-5.1c3.8-3.1,7-8.5,7.7-14.6c0.4-3.2,1.2-6.5,1.8-7.2s0.7-3.1,0.2-6c-0.4-2.6-0.9-8.5-1.1-13.2
		c-0.1-4.7-0.5-10.3-0.8-12.5s-0.7-6.4-1-9.4s-1-5.8-1.7-6.2c-1.3-0.8-1.6-2.1-2.5-11.4c-0.3-3.6-1.2-6.5-2-7.2
		c-0.9-0.6-1.4-1.7-1.3-2.5c0.3-1.1-1.9-5.6-6.8-14.2c-1.2-2-10.1-11.3-14.1-14.7c-1.1-0.9-3.5-2.2-5.5-2.8c-3.1-1-5.8-1.6-8.2-1.6
		l0,0c-2.3,0-4.1,0.4-5.6,1.3c0.1,0.7,0,1.4-0.3,2.2c-4,10.5-7.5,21.1-10.9,31.8c0.1,1.5-0.8,4.4-2.1,6.5c-1,3-1.9,6.1-2.9,9.1
		c0.2,2.3-0.1,4.9-0.6,5.9c-0.5,1.2-1.6,3.7-2.3,5.6c-0.4,1.1-1.1,2.4-1.9,3.6C-66.5-100.8-79-70.3-101-46.6
		c-14.8,15.9-34.5,28.2-55.8,32.6c-0.2,2.5-0.4,4.9-0.5,7.3c-2,26.8-3.1,53.6-3.3,80.5c-0.2,29.5,0.6,58.9,2.5,88.3
		c0.1,0.3,0.3,0.5,0.4,0.6c0.7,0.7,0.7,1.4,0,2.3c-0.1,0.1-0.1,0.2-0.2,0.3c0.1,0.8,0.1,1.5,0.2,2.3c0.2,0.3,0.4,0.7,0.6,1.1
		c1.4,2.3,1.2,4.9-0.2,5.1c0.2,2.8,0.4,5.7,0.7,8.5c0.5,2.5,0.8,5,0.8,6.6c-0.1,1.1,0.5,5.3,1.2,9.4c1,5.4,1.1,7.7,0.3,9.1
		c0.1,0.7,0.1,1.4,0.2,2l0,0c1.5,0,1.9,1.5,1.6,6.1c-0.1,1.7,1.2,4.3,3.9,7.7c2.2,2.8,4,5.8,4,6.5c0,2.4,7.2,6.2,14,7.5
		c0.8,0.1,1.7,0.3,2.8,0.4c11.7,9.1,25.2,15.7,40,20.3c6.1,1.9,12.4,3.4,18.7,4.7c2.7,0.3,5.4,0.6,8.2,0.9
		c11.6,1.3,23.2,2.8,34.8,4.2c1.4,0.1,2.7,0.2,4.1,0.3c26.9,1.7,53.7,1.3,80.6-0.4c26.3-1.7,53-3.2,79-7.7c4.4-0.8,8.9-1.7,13.4-2.9
		c1.5-0.8,3-1.6,4.5-2.5c0.9-0.2,1.7-0.4,2.6-0.6c3.1-0.8,6-2.5,8.3-4.7c7.5-1.3,14.5-3.9,20.4-9c6-5.2,9.4-12.4,12.2-19.7
		c0.9-2.3,1.6-4.7,2.4-7c0.6-2,4-9.8,0.7-2.8c4.4-9.5,3-22-7.2-27.4c-10.4-5.5-20.8-1.9-27.4,7.2c0.4-0.5,0.7-0.9,0.9-1.2
		c-0.3,0.3-0.7,0.8-1.2,1.4c-1,1.1-2,2.1-3.1,3.1c-1,0.9-2.1,1.8-3.1,2.7c-0.9,0.6-1.8,1.3-2.7,1.9c-2.6,1.8-5.4,3.4-8.2,4.8
		c-0.3,0.1-2.3,1-3.4,1.6c-0.6,0.2-1.2,0.4-1.8,0.7c-12.1,4.3-24.6,7.6-37.2,10c-3.1,0.6-6.3,1.2-9.4,1.7c-0.3,0-0.6,0.1-0.9,0.1
		c-0.7-0.4-4.3,0.5-5.1,0.6c-6,0.6-11.7,0.5-17.7,0.2c-1.1-0.2-2.2-0.4-3.4-0.7c-0.9-0.2-1.7-0.5-2.5-0.8c-0.4-0.3-1-0.7-1.5-1
		c-0.1-0.1-0.1-0.2-0.2-0.2c-0.1-0.2-0.2-0.5-0.4-0.8c-0.1-0.3-0.2-0.5-0.2-0.7c-0.5-1.8-0.7-3.8-1.2-5.6c0-0.2,0-0.5-0.1-0.7
		c-0.1-1.3-0.2-2.6-0.2-3.9c-0.1-1.2-0.1-2.4-0.1-3.6c45.4-3.9,89.2-20.4,126-47.1c-0.1-0.3-0.1-0.5-0.1-0.9
		c1.8-0.9,3.6-2.1,5.2-3.5c2.1-1.9,4.1-4,5.4-6.5c1.6-3,2.6-6.5,2.7-9.9c0.1-1.4,0.4-3.6,0.7-5.4c0.3-2.5,0-5-1-7.1
		C203.2,117,202.7,114.4,203,113z"/>
	<path class="st0" d="M14.3-21.5C15.5-21.2,16.1-21.1,14.3-21.5L14.3-21.5z"/>
	<path class="st0" d="M168.6,188.3C169,187.8,169.1,187.6,168.6,188.3L168.6,188.3z"/>
	<path class="st0" d="M190.4,167.1c0.1-0.2,0.2-0.4,0.3-0.5C189.5,166.9,189.4,167,190.4,167.1z"/>
	<path d="M87.5,72.8C87.5,72.7,87.5,72.7,87.5,72.8c-0.1-0.2-0.2-0.3-0.1-0.3c-0.1-0.1-0.1-0.2-0.2-0.3c-0.3-0.5-0.7-1.1-0.9-1.6
		c-0.6-1.3-0.5-2.7,0.5-3.6c0.1-0.6,0.2-1.3,0.4-1.9c0-0.4-0.1-0.8-0.1-1.2c-0.1-0.5-0.1-1-0.1-1.5c0-0.3,0-0.7,0-1c0,0,0-0.1,0-0.2
		c0-0.1,0-0.1,0-0.1c0,0,0-0.1,0-0.1c-0.3-0.3-0.5-0.7-0.7-1c-0.3-0.4-0.6-0.8-0.8-1.3c-0.6-1.2-0.7-2.6-0.2-3.9
		c0.1-0.2,0.1-0.4,0.2-0.6l0,0c0.1-0.2,0.2-0.4,0.3-0.6c0,0,0,0,0,0c0-0.2,0-0.3,0-0.5v0l0,0c0,0,0-0.1,0-0.1c0-0.1,0-0.2,0-0.3
		c0-0.1,0-0.1,0-0.2c-0.1-0.2-0.1-0.5-0.2-0.7c-0.1,0-0.1-0.3-0.1-0.3c0,0,0,0,0,0c-0.1-0.2-0.2-0.5-0.3-0.7
		c-0.1-0.2-0.2-0.3-0.2-0.5c0-0.1-0.1-0.2-0.1-0.3c0,0.1,0,0.3,0.1,0.4c0,0.1,0,0.1,0,0.2c-0.1-0.4-0.2-0.8-0.3-1.1c0,0,0,0,0,0
		c0-0.1-0.1-0.2-0.1-0.3c0-0.1,0-0.1-0.1-0.2c0-0.1-0.1-0.2-0.1-0.3c0-0.1-0.1-0.2-0.1-0.3c-0.1-0.3-0.2-0.5-0.3-0.8l0,0
		c0-0.1,0-0.1-0.1-0.2c0-0.2-0.1-0.4-0.1-0.6c0-0.1,0-0.1,0-0.2c-0.1-0.3-0.2-0.5-0.2-0.8c0-0.2-0.1-0.4-0.1-0.6c0,0,0,0,0-0.1
		c-0.1-0.6-0.3-1.2-0.5-1.7l0,0c0,0,0,0,0-0.1c0-0.1-0.1-0.2-0.1-0.3c-0.1-0.2-0.1-0.3-0.2-0.5c0-0.1-0.2-0.4-0.2-0.5
		c0-0.1-0.1-0.1-0.1-0.2s-0.3-0.7-0.4-0.9c0,0-0.1,0-0.1-0.1c0,0,0,0.1,0,0.1c0,0,0-0.1,0-0.1c-0.1-0.1-0.1-0.1-0.2-0.2
		c-0.2-0.2-0.5-0.4-0.7-0.6c-0.4-0.4-0.7-0.9-0.9-1.4c0,0,0-0.1,0-0.1c0-0.1-0.1-0.1-0.1-0.2c0,0,0,0,0,0c0-0.1-0.1-0.2-0.1-0.2
		c0-0.1,0-0.1-0.1-0.2c-0.3-0.2-0.5-0.5-0.8-0.8c0,0-0.1-0.1-0.1-0.1c-0.1-0.1-0.3-0.3-0.4-0.4c0,0-0.1-0.1-0.1-0.1
		c-0.1-0.1-0.2-0.2-0.3-0.3c0-0.1-0.1-0.1-0.1-0.2c-0.1-0.1-0.2-0.2-0.2-0.3c0-0.1-0.1-0.1-0.1-0.2C77.1,35.2,77,35.1,77,35
		c0-0.1-0.1-0.1-0.1-0.2c-0.1-0.1-0.1-0.2-0.2-0.3c0,0-0.1-0.1-0.1-0.1c0,0,0,0,0,0l0,0c-0.1-0.2-0.2-0.3-0.3-0.5
		c0-0.1-0.1-0.1-0.1-0.2c0,0,0,0,0-0.1c0,0,0-0.1-0.1-0.1c0,0,0,0,0-0.1c0,0,0-0.1,0-0.1c0,0,0,0,0-0.1c0-0.1,0-0.1,0-0.2
		c-0.1-0.1-0.3-0.3-0.5-0.4c0,0,0,0-0.1-0.1l0,0c-0.4-0.2-0.7-0.5-1.1-0.7c-0.2-0.1-0.4-0.2-0.6-0.3c-0.1,0-0.2,0-0.2-0.1
		c-0.2-0.1-0.4-0.1-0.6-0.1c-0.1,0-0.2,0-0.3,0c-1.2,0-2.3,0-3.5,0.1l0,0c0,0,0,0,0,0c-0.1,0-0.3,0-0.4,0.1c-0.3,0-0.6,0.1-0.9,0.1
		c-0.5,0.1-1.1,0.2-1.6,0.2c-1.3,0.2-2.7,0.4-4,0.4c-1.6,0-2.9-1.4-3-2.9c-0.1-2.1-0.2-4.3-0.5-6.4c0-0.2-0.1-0.5-0.1-0.8
		c0-0.1,0-0.2-0.1-0.3c-0.1-0.5-0.1-1-0.2-1.5c-0.2-1-0.4-2.1-0.6-3.1c-0.3-0.4-0.5-0.8-0.5-0.9c0-0.1-0.2-0.3-0.5-0.5
		c-0.3-0.2-0.5-0.5-0.6-0.5c0-0.1-0.1-0.2-0.3-0.3c-0.3-0.2-0.7-0.4-1-0.6c-0.8-0.5-1.6-0.8-2.4-1.2c-0.1,0-0.1-0.1-0.2-0.1
		c-0.1,0-0.4-0.1-0.5-0.2c-0.4-0.1-0.7-0.2-1.1-0.3c-0.1,0-0.1,0-0.2,0c0,0-0.1,0-0.1,0c-0.2,0-0.4,0-0.5,0c0,0-0.1,0-0.1,0
		c-0.1,0-0.3,0.1-0.4,0.1c-0.1,0-0.3,0.1-0.4,0.1c0,0.1-0.1,0.1-0.2,0.1c-0.2,0.1-0.5,0.2-0.5,0.3l0,0c-0.1,0.1-0.2,0.2-0.3,0.2
		c-0.1,0.1-0.3,0.5-0.5,0.6c-0.1,0.1-0.1,0.2-0.2,0.3c-0.2,0.2-0.3,0.5-0.4,0.8c-0.1,0.2-0.1,0.3-0.2,0.5c-0.1,0.3-0.2,0.5-0.3,0.8
		c-0.2,0.6-0.4,1.1-0.5,1.7c-0.4,1.4-0.7,2.7-1.2,4.1c-1.1,3.3-2.5,6.5-4.9,9.2c-2.2,2.5-5.3,4.4-8.5,5.4c-2.8,0.9-5.8,1.2-8.7,1.3
		C21,38,19.5,38,18,38c-0.8,0-1.6,0.1-2.4,0.1c-0.4,0-0.8,0.1-1.2,0.1c-0.1,0-0.3,0-0.5,0.1h0c0,0-0.1,0-0.1,0
		c-0.5,0.1-0.9,0.1-1.4,0c0,0.3,0,0.7,0,1c0,1.8,0.1,3.5,0,5.3c-0.1,5.1-0.1,10.2,0,15.3c0,0,0,0,0.1,0c0,0.2,0,0.3,0,0.5
		c0,0,0,0-0.1,0c0,1.1,0,2.2,0.1,3.3c0.1,3.1,0.8,6.1,0.7,9.2c-0.1,1.6-0.2,3.1-0.2,4.7c0,1.6,0,3.1,0,4.7c0,0.1,0,0.3,0,0.4
		c0.2,0.4,0.3,0.8,0.3,1.2c5.5-0.4,10.9-1,16.4-0.7c1.9,0.1,3.8,0.3,5.7,0.7c1.8,0.3,3.5,0.9,5.3,1.3c0.9,0.2,1.8,0.4,2.8,0.5
		c0.4,0.1,0.8,0.1,1.3,0.2c0.2,0,0.5,0.1,0.7,0.1c0.1,0,0.3,0,0.4,0c0.4,0.1,0.9,0.1,1.3,0.2c0.2,0,0.5,0,0.7,0.1
		c1.1,0.1,2.1,0.2,3.2,0.3c3.7,0.4,7.3,0.8,11,0.8c1.7,0,3.4-0.1,5.1-0.3c0,0,0.5-0.1,0.5-0.1c0.2,0,0.5-0.1,0.7-0.1
		c0.4-0.1,0.9-0.1,1.3-0.2c0.8-0.2,1.6-0.4,2.4-0.5c0.4-0.1,0.8-0.1,1.1-0.2c0.1,0,0.3,0,0.4-0.1c1.3-0.2,2.6-0.5,3.9-0.8
		c0.4-0.1,0.8-0.2,1.2-0.4l0,0c0,0,0.1,0,0.1,0c0.1,0,0.1,0,0.1,0c0.2-0.1,0.4-0.2,0.5-0.2c0,0,0,0,0,0l0,0c0,0,0,0,0,0
		c0.3-0.1,0.6-0.3,0.9-0.4c0.2-0.1,0.4-0.2,0.6-0.3c0.1,0,0.2-0.1,0.3-0.1c0.1-0.1,0.2-0.1,0.2-0.2c0.3-0.1,0.6-0.2,1-0.3
		c0.3-0.1,0.5-0.2,0.8-0.2c0,0,0,0.1-0.1,0.1c0.1,0,0.2,0,0.3,0c0.1-0.1,0.2-0.1,0.3-0.2c0.4-0.3,0.8-0.7,1.2-1.1
		c0.3-0.2,0.5-0.5,0.7-0.7c0.2-0.5,0.3-0.9,0.5-1.4c0.1-0.2,0.2-0.5,0.3-0.7c0.2-0.8,0.4-1.5,0.6-2.3c0.1-0.3,0.1-0.5,0.2-0.8
		c0,0,0-0.1,0-0.1c0-0.2,0-0.3,0-0.5C87.5,74.3,87.5,73.5,87.5,72.8z M14.6,44.2c0-0.1,0-0.2,0-0.3c0-0.1-0.1-0.1-0.1-0.2
		c-0.1-0.2-0.2-0.5-0.2-0.5c0,0,0.1-0.4,0.1-0.8l0-0.7l0.7-0.1c0.4,0,0.8-0.1,0.9-0.1c0.1,0,0.4-0.1,0.6-0.3
		c0.2-0.2,0.3-0.3,1.1-0.3c0.1,0,0.3,0,0.5,0c0.1,0,0.3,0,0.4-0.1c1.5-0.1,3,0,4.4-0.1c0.7-0.1,1.4,0.2,1.9,0.7
		c-3.6,2.9-7,6-10.3,9.3C14.6,48.5,14.6,46.4,14.6,44.2z M14.7,52.7c3.5-3.6,7.2-7,11-10.1c0.1,0.3,0.2,0.7,0.3,1
		c0,0.1,0.1,0.9,0.1,0.7c0,0.2,0.1,0.5,0.1,0.7c0.1,0.6,0.2,1.2,0.3,1.8c0.1,0.4,0.1,0.7,0.2,1.1c-0.2-0.1-0.4,0-0.6,0.1
		c-3.9,2.7-7.6,5.6-11.2,8.7C14.8,55.4,14.8,54.1,14.7,52.7z M15.1,60.8c0-0.7-0.1-1.5-0.1-2.2c3.8-3.3,7.7-6.4,11.9-9.3
		c0,0.6,0.1,1.2,0.1,1.7c0,0.1,0,0.2,0,0.2c0,0,0,0.1,0.1,0.1c0,0.1,0,0.2,0,0.2c0,0.4,0,0.8,0.1,1.2c0,0.1,0,0.4,0.1,0.5
		c0,0.2,0.1,0.4,0.1,0.6c0,0.2,0.1,0.5,0.1,0.7c-4.2,3-8.2,6.1-12.1,9.5C15.1,62.9,15.1,61.9,15.1,60.8z M15.2,65.9
		c4-3.5,8.1-6.7,12.4-9.8c0.1,0.3,0.1,0.6,0.2,0.9c0.2,1,0.4,2,0.5,3c-4.6,2.8-8.9,6-13,9.5c0-0.2,0-0.3,0-0.5
		C15.2,68,15.2,66.9,15.2,65.9z M15.4,72.9c-0.1-0.5-0.1-1-0.1-1.4c4.1-3.6,8.5-6.9,13.1-9.8c0,0.3,0,0.6,0,0.9c0,0,0,0,0,0.1
		c0.2,0.3,0.2,0.6,0,1.3c0,0,0,0.1,0,0.1c0,0,0,0.1,0,0.1c0,0.6,0,1.1-0.1,1.7c0,0,0,0.1,0,0.1c0,0,0,0.1,0,0.1c0,0.3,0,0.5,0,0.8
		c-4.4,2.7-8.7,5.7-12.6,9.1C15.7,74.9,15.5,73.9,15.4,72.9z M17.1,79.8c-0.5,0.3-0.8,0.1-1.1-0.5c-0.2-0.5-0.3-0.8-0.2-1.4
		c0,0,0,0,0-0.1c0,0,0-0.1-0.1-0.1c3.9-3.4,8.1-6.4,12.5-9.2c0,0.3,0,0.6,0,0.9c0,0.3,0,0.6,0,0.8c0,0.1,0,0.3,0,0.4
		c0,0.4,0-0.2,0-0.2c-0.1,0.1,0.3,1.3,0.4,1.5c0.1,0.3,0.2,0.7,0.3,1c-3.6,2.3-7,4.9-10.2,7.8C18.1,80.6,17.6,80.3,17.1,79.8z
		 M24.9,80.4L25,80C25.1,80,25,80.2,24.9,80.4z M29.6,76.6c-0.2,1.7-1.2,2.7-3,2.9c-0.2,0-0.5,0-0.7,0c0.1,0,0.1,0.1-0.1,0.1
		l-2.4,0.8c-0.8,0.1-1.6,0.1-2.3,0.1c2.7-2.3,5.5-4.4,8.4-6.3C29.6,75.1,29.7,75.9,29.6,76.6z M78.9,84.3c-0.2,0.1-0.3,0.2-0.5,0.3
		c0,0,0,0,0-0.1L78.9,84.3L78.9,84.3z M80.2,83.2c0.1-0.2,0.2-0.2,0.3-0.1C80.4,83.1,80.3,83.2,80.2,83.2z M85.1,63.4
		c0,0.3-0.1,0.6-0.1,0.8c0,0.5-0.2,1-0.4,1.4c-0.2,0.4-0.5,0.7-0.8,0.9c-0.2,0.2-0.5,0.4-0.8,0.5c0,0,0,0.1,0,0.1
		c-5.5,3.9-11.9,6.3-18.7,6.9c0,0.2,0,0.3,0,0.5c0,0.2,0,0.4,0,0.6c0,0,0,0.1,0,0.1c0.1,0.3,0.1,0.6,0.2,0.8c0,0,0,0.1,0,0.1
		c0,0,0,0.1,0.1,0.1c0,0,0,0,0,0c0.1,0,0.2,0.1,0.2,0.1c0.1,0,0.3,0.1,0.4,0.1c0.2,0,0.3,0.1,0.5,0.1c0.9,0,1.7,0.1,2.6,0
		c0.1,0,0.7-0.1,0.8-0.1c0,0,0.1,0,0.1,0c0.5-0.1,0.9-0.2,1.4-0.2c1.9-0.4,3.7-0.8,5.5-1.5c0.1,0,0.2-0.1,0.3-0.1
		c0.2-0.1,0.5-0.2,0.5-0.2c0.4-0.2,0.8-0.5,1.2-0.7c0.1-0.1,0.3-0.2,0.4-0.3c0.1-0.1,0.3-0.3,0.5-0.4c0.2-0.1,0.3-0.3,0.5-0.5
		c0.1-0.1,0.1-0.1,0.2-0.2c0.1-0.1,0.1-0.1,0,0c0,0-0.1,0.1-0.1,0.2c1-1.3,2.5-1.9,4.1-1c1.5,0.8,1.7,2.6,1.1,4c0.5-1,0,0.1-0.1,0.4
		c-0.1,0.3-0.2,0.7-0.4,1c-0.4,1.1-0.9,2.1-1.8,2.9c-0.9,0.7-1.9,1.1-3,1.3c-0.3,0.3-0.8,0.6-1.2,0.7C78.1,82,78,82,77.9,82
		c-0.2,0.1-0.4,0.2-0.7,0.4c-0.7,0.2-1.3,0.3-2,0.4c-3.9,0.7-7.8,0.9-11.7,1.1c-4,0.2-8,0.3-11.9,0.1c-0.2,0-0.4,0-0.6,0
		c-1.7-0.2-3.4-0.4-5.2-0.6c-0.4,0-0.8-0.1-1.2-0.1c-0.9-0.2-1.9-0.4-2.8-0.7c-2.2-0.7-4.2-1.6-5.9-3c-0.1,0-0.3,0-0.4-0.1
		c-1-0.2-2.1-0.7-2.1-1.1c0-0.1-0.3-0.5-0.6-0.9c-0.4-0.5-0.6-0.9-0.6-1.1c0-0.7,0-0.9-0.2-0.9l0,0c0-0.1,0-0.2,0-0.3
		c0.1-0.2,0.1-0.5,0-1.3c-0.1-0.6-0.2-1.2-0.2-1.4c0-0.2-0.1-0.6-0.1-1c0-0.4-0.1-0.8-0.1-1.2c0.2,0,0.2-0.4,0-0.7
		c0-0.1-0.1-0.1-0.1-0.2c0-0.1,0-0.2,0-0.3c0,0,0,0,0,0c0.1-0.1,0.1-0.2,0-0.3c0,0,0,0-0.1-0.1C31.1,64.3,31,60,31,55.7
		c0-3.9,0.2-7.8,0.5-11.7c0-0.3,0-0.7,0.1-1.1c3.2-0.6,6.1-2.4,8.3-4.8c3.3-3.5,5.1-7.9,6.6-12.3c0.1-0.2,0.2-0.4,0.3-0.5
		c0.1-0.3,0.3-0.6,0.3-0.8c0.1-0.2,0.1-0.5,0.1-0.9c0.1-0.4,0.3-0.9,0.4-1.3c0.2-0.3,0.3-0.7,0.3-0.9c0.5-1.6,1-3.1,1.6-4.6
		c0-0.1,0.1-0.2,0-0.3c0.2-0.1,0.5-0.2,0.8-0.2l0,0c0.3,0,0.8,0.1,1.2,0.2c0.3,0.1,0.7,0.3,0.8,0.4c0.6,0.5,1.9,1.9,2.1,2.1
		c0.7,1.3,1.1,1.9,1,2.1c0,0.1,0.1,0.3,0.2,0.4c0.1,0.1,0.3,0.5,0.3,1c0.1,1.4,0.2,1.5,0.4,1.7c0.1,0.1,0.2,0.5,0.3,0.9
		c0,0.4,0.1,1,0.1,1.4c0,0.3,0.1,1.1,0.1,1.8c0,0.7,0.1,1.5,0.2,1.9c0.1,0.4,0.1,0.8,0,0.9c-0.1,0.1-0.2,0.6-0.3,1
		c-0.1,0.9-0.6,1.7-1.1,2.1c-0.1,0.2-0.1,0.5-0.2,0.7l0,0c0,0,0,0.1,0,0.1c0,0.1,0,0.2-0.1,0.3c0,0.1,0,0.1,0,0.2
		c0,0.2-0.1,0.4-0.1,0.6c0,0.2-0.1,0.4-0.1,0.6c0,0.1,0.1,0.2,0.1,0.4c-0.1,0-0.1,0.1-0.2,0.1c0,0.1,0,0.2,0,0.3c0-0.1,0-0.1,0-0.2
		c0,0.1,0,0.3,0,0.4c0,0.2,0,0.4-0.1,0.6c0,0.5-0.1,1,0,1.4c0,0.2,0,0.3,0,0.5c0,0,0,0.1,0,0.1c0,0.1,0.1,0.2,0.1,0.3
		c0.1,0.1,0.1,0.2,0.2,0.2c0,0,0,0,0.1,0.1c0.1,0.1,0.2,0.2,0.3,0.2c0.3,0.2,0.7,0.4,1,0.6c0.1,0,0.2,0.1,0.3,0.1c0.3,0.1,0.2,0,0,0
		c-0.1,0-0.1,0-0.2,0c0.1,0,0.2,0.1,0.4,0.1l6.6-1.5c1.6-0.2,3.2-0.5,4.7-1.1c0.2,0,0.4-0.1,0.6-0.1c0.2,0,0.3-0.1,0.4-0.3
		c0.5-0.2,1.1-0.5,1.5-1c0.1-0.4,0.3-0.8,0.6-1.2c0,0,0,0,0,0c0,0,0,0,0,0c0.2-0.3,0.5-0.5,0.8-0.7c0.3-0.2,0.7-0.3,1-0.4
		c0,0,0,0,0.1,0c0.1,0,0.1,0,0.2,0c0,0,0.1,0,0.1,0s0.1,0,0.1,0c0.1,0,0.1,0,0.2,0c0,0,0,0,0,0c0.1,0,0.2,0,0.3,0l0,0c0,0,0,0,0.1,0
		c0,0,0.1,0,0.1,0c0,0,0,0,0.1,0c0,0,0.1,0,0.1,0c0,0,0,0,0,0c0.1,0,0.2,0.1,0.4,0.2c0,0,0.1,0,0.1,0c0,0,0.1,0,0.1,0.1
		c0.1,0,0.1,0.1,0.2,0.1c0,0,0,0,0.1,0.1c0.1,0,0.1,0.1,0.2,0.1c0,0,0,0,0,0c0.1,0.1,0.1,0.1,0.2,0.2c0,0,0,0,0,0
		c0.1,0.1,0.1,0.1,0.2,0.2l0,0c0,0.1,0.1,0.1,0.1,0.2c0.1,0.1,0.1,0.2,0.2,0.3c0,0,0,0.1,0.1,0.1c0,0.1,0.1,0.1,0.1,0.2
		c0,0,0,0.1,0.1,0.1c0,0.1,0.1,0.1,0.1,0.2c0,0,0.1,0.1,0.1,0.1c0,0.1,0.1,0.1,0.1,0.2c0,0,0.1,0.1,0.1,0.1c0,0.1,0.1,0.1,0.1,0.2
		c0,0,0.1,0.1,0.1,0.1c0,0.1,0.1,0.1,0.1,0.2c0,0,0,0.1,0.1,0.1c0.1,0.1,0.1,0.2,0.2,0.2c0.2,0.2,0.3,0.5,0.5,0.7
		c0.1,0.1,0.2,0.3,0.3,0.4c0,0,0,0,0,0c0.3,0.4,0.5,0.9,0.8,1.3c0.1,0.1,0.1,0.3,0.2,0.5c0.1,0.2,0.1,0.3,0.2,0.5c0,0,0,0.1,0.1,0.1
		c0,0.1,0.1,0.2,0.1,0.3c0,0.1,0,0.1,0.1,0.2c0,0,0,0.1,0,0.1c0,0.1,0,0.1,0,0.2c0,0,0,0.1,0,0.1c0,0.1,0,0.1,0,0.2c0,0,0,0.1,0,0.1
		c0,0.1,0,0.1,0,0.2c0,0,0,0.1,0,0.1c0,0.1,0,0.1,0,0.2c0,0,0,0.1,0,0.1c0,0.1,0,0.1,0,0.2c0,0,0,0.1,0,0.1c0,0.1,0,0.1,0,0.2
		c0,0,0,0.1,0,0.1c0,0.1,0,0.1,0,0.2c0,0.4,0,0.8-0.1,1.2l0,0c0,0,0,0,0,0.1c0,0.1,0,0.1,0,0.2c0,0,0,0.1,0,0.1
		c0,0.1-0.1,0.2-0.1,0.2c0,0,0,0.1,0,0.1c0,0.1-0.1,0.1-0.1,0.2c0,0,0,0,0,0.1c0,0.1-0.1,0.2-0.1,0.3c0,0,0,0,0,0.1
		c0,0.1-0.1,0.2-0.2,0.3c-1.5,2.3-4.2,3.7-6.7,4.7c-0.4,0.2-0.8,0.3-1.2,0.5c-0.1,0-0.1,0-0.2,0.1c-0.3,0.1-0.7,0.3-1,0.4
		c-0.6,0.2-1.1,0.4-1.7,0.7c-0.1,0-0.3,0.1-0.4,0.1c-0.1,0.1-0.3,0.1-0.4,0.2l0,0c-0.4,0.2-0.9,0.5-1.3,0.8
		c-0.1,0.1-0.2,0.1-0.3,0.2c0,0-0.1,0.1-0.2,0.1c-0.1,0-0.1,0.1-0.2,0.1c0,0-0.1,0-0.1,0.1l0,0c-0.1,0-0.1,0.1-0.2,0.1
		c0,0-0.1,0-0.1,0c0,0-0.1,0-0.1,0c-0.1,0-0.1,0.1-0.2,0.1c0,0,0,0,0,0c0,0-0.1,0-0.1,0.1c-0.1,0-0.1,0.1-0.2,0.1
		c-0.1,0-0.1,0-0.2,0.1c-0.1,0-0.1,0.1-0.2,0.1c-0.1,0-0.1,0-0.2,0.1c-0.1,0-0.1,0.1-0.2,0.1c0,0-0.1,0-0.1,0.1c0,0,0,0,0,0
		c-0.1,0-0.1,0.1-0.2,0.1c0,0-0.1,0-0.1,0s-0.1,0-0.1,0c-0.1,0-0.2,0.1-0.3,0.1c0,0-0.1,0-0.1,0h0c-0.1,0-0.2,0.1-0.3,0.1
		c0,0-0.1,0-0.1,0c0,0-0.1,0-0.1,0c-0.1,0-0.1,0-0.2,0.1c0,0,0,0,0,0c-0.1,0-0.1,0-0.2,0c-0.1,0-0.1,0-0.2,0c-0.1,0-0.1,0-0.2,0
		c-0.1,0-0.1,0-0.2,0c-0.1,0-0.1,0-0.2,0c-0.1,0-0.1,0-0.2,0c-0.1,0-0.1,0-0.2,0c-0.3,0-0.5,0-0.7,0c-0.3,0.1-0.6,0.2-0.9,0.3
		c-0.5,0.2-0.8,0.8-0.3,1.2c0.2,0.2,0.4,0.3,0.6,0.4v0c0,0,0,0,0,0c0.1,0.1,0.2,0.1,0.3,0.2c0,0.1,0.1,0.2,0.1,0.3
		c0.3,0,0.6,0.1,0.8,0c-0.3,0-0.4,0-0.3,0c0,0,0,0,0.1,0l0,0c0,0,0.1,0,0.1,0c0.1,0,0.3-0.1,0.5-0.1c0.4-0.1,0.8-0.3,1.2-0.4l0,0h0
		c0.1-0.1,0.3-0.1,0.4-0.2c0.2-0.1,0.4-0.1,0.5-0.2c0.1,0,0.3-0.1,0.4-0.1c0.8-0.2,1.6-0.3,2.4-0.5c0.2,0,0.4-0.1,0.7-0.1
		c0.8-0.4,1.6-0.8,2.4-1.2c0.3-0.1,0.5-0.3,0.8-0.4c0.1-0.1,0.2-0.1,0.3-0.2c0.5-0.3,1-0.5,1.5-0.8c0.1-0.1,0.3-0.1,0.4-0.2
		c0.3-0.1,0.5-0.2,0.8-0.4l0,0c0.1,0,0.1-0.1,0.2-0.1l0.3-0.1c0.8-0.3,1.6-0.7,2.4-1.2c0.1,0,0.1-0.1,0.2-0.1c0.1,0,0.1-0.1,0.2-0.1
		c0.1,0,0.1-0.1,0.1-0.1l0,0c0.1-0.1,0.1-0.1,0.2-0.2l0,0v-0.1c0,0,0,0,0.1-0.1c0.2-0.2,0.3-0.3,0.5-0.5c0,0,0.1-0.1,0.1-0.1l0,0
		c0.1-0.1,0.1-0.2,0.2-0.2l0,0l0,0l0,0l0,0l0,0l0,0l0,0c0,0,0,0,0,0c0,0,0,0,0,0l0,0c0,0,0,0,0,0c0,0,0,0,0,0l0,0c0,0,0,0,0,0.1
		c0.3-0.3,0.5-0.6,0.8-0.8c0.2-0.1,0.4-0.2,0.6-0.3l0,0c0.1,0,0.1-0.1,0.2-0.1c0,0,0,0,0,0c0,0,0.1-0.1,0.1-0.1c0,0,0,0,0,0
		c0.1,0,0.1-0.1,0.2-0.1c0,0,0,0,0,0c0.1,0,0.1-0.1,0.2-0.1c0,0,0,0,0.1,0c0.1,0,0.1,0,0.2-0.1c0,0,0,0,0,0c0.3-0.1,0.5-0.1,0.8-0.1
		c0.1,0,0.2,0,0.3,0c0-0.1,0.1-0.1,0.1-0.2c0.1-0.1,0.3-0.1,0.7,0.1c0.3,0.2,0.4,0.3,0.4,0.5c0.9,0.5,1.5,1.5,1.4,2.5
		c-0.5,4.8-5.3,7-9.4,8.6c-2,0.8-4,1.4-6.1,1.8c-1.3,0.2-2.6,0.4-3.9,0.9c-0.9,0.3-1.9,0.7-2.9,0.8c0,0,0,0,0,0.1
		c0,0.1-0.1,0.2-0.1,0.3h0l0,0c-0.1,0.3,0,0.6,0.2,0.8c0.1,0.3,0.3,0.5,0.7,0.5c0.6,0,1.2-0.1,1.8-0.2c0.2,0,0.4,0,0.5-0.1
		c0.3,0,0.7-0.1,1-0.1c0,0,0,0.1,0,0.1c2.1-0.8,4.1-1.6,6.2-2.3c1.3-0.4,2.6-0.6,3.8-1c0.3-0.1,0.7-0.2,1-0.3c0,0,0.1,0,0.3-0.1
		c0,0,0.1-0.1,0.2-0.1c0.3-0.1,0.5-0.3,0.8-0.4c0,0,0.2-0.1,0.3-0.2c0,0,0.1,0,0.1-0.1c0.7-0.6,1.4-0.8,2.2-0.8c0-0.1,0-0.2,0-0.2
		c0.1-0.1,0.3-0.2,0.4-0.3c0.2-0.1,0.3-0.3,0.5-0.5c1.3-1.2,1.6-1.4,2.2-1.6c0.6-0.1,0.8-0.1,0.9,0.1c0.1,0.1,0.3,0.2,0.3,0.2
		c0.1,0,0.1,0.3,0.1,0.6c0,0.3,0.1,0.6,0.2,0.7s0.1,0.2,0.1,0.4c0,0.2,0,0.6,0.1,0.8C85.1,62.7,85.2,63,85.1,63.4z"/>
</g>
</svg>
