<?xml version="1.0" standalone="no"?>
<!DOCTYPE svg PUBLIC "-//W3C//DTD SVG 20010904//EN"
 "http://www.w3.org/TR/2001/REC-SVG-20010904/DTD/svg10.dtd">
<svg version="1.0" xmlns="http://www.w3.org/2000/svg"
 width="1039.000000pt" height="920.000000pt" viewBox="0 0 1039.000000 920.000000"
 preserveAspectRatio="xMidYMid meet">

<g transform="translate(0.000000,920.000000) scale(0.100000,-0.100000)"
fill="#000000" stroke="none">
<path d="M6040 7739 c-13 -5 -35 -7 -48 -4 -15 4 -21 2 -17 -5 4 -6 -10 -10
-37 -10 -40 0 -127 -26 -138 -41 -3 -4 -32 -12 -64 -19 -33 -7 -69 -16 -80
-20 -50 -20 -62 -23 -75 -21 -15 3 -78 -27 -99 -46 -7 -7 -22 -13 -31 -13 -24
0 -88 -27 -96 -40 -3 -5 -16 -10 -28 -10 -12 0 -28 -9 -35 -20 -7 -11 -17 -20
-24 -20 -6 0 -30 -16 -54 -35 -23 -19 -47 -35 -53 -35 -6 0 -11 -4 -11 -10 0
-9 -67 -57 -148 -106 -19 -11 -39 -29 -45 -40 -5 -10 -16 -22 -22 -26 -7 -4
-18 -21 -25 -37 -7 -17 -20 -33 -30 -36 -19 -6 -140 -148 -140 -165 0 -11 -10
-24 -42 -61 -10 -10 -18 -23 -18 -29 0 -5 -4 -10 -10 -10 -5 0 -10 -10 -10
-22 0 -14 -23 -48 -55 -83 -30 -33 -55 -65 -55 -71 0 -6 -6 -17 -13 -23 -8 -6
-19 -36 -26 -67 -7 -32 -27 -79 -43 -106 -27 -44 -34 -49 -57 -43 -14 3 -30
13 -36 22 -14 21 -134 151 -227 245 -43 43 -78 81 -78 85 0 3 -7 13 -14 22
-65 71 -96 110 -96 121 0 7 -17 31 -37 53 -21 21 -53 55 -70 74 -18 19 -33 39
-33 44 0 5 -7 9 -16 9 -8 0 -13 4 -9 9 3 5 -4 12 -15 16 -11 4 -18 11 -15 16
3 5 -9 18 -27 29 -18 11 -28 20 -23 20 6 1 -2 8 -17 16 -16 8 -28 21 -28 28 0
8 -23 18 -62 26 -35 6 -65 15 -68 19 -3 4 -32 12 -65 18 -33 6 -78 16 -100 22
-22 6 -63 11 -91 11 -28 0 -59 6 -70 15 -13 9 -31 12 -56 8 -25 -3 -38 -2 -38
5 0 16 -91 13 -275 -9 -147 -18 -183 -26 -240 -49 -40 -17 -165 -42 -180 -36
-8 3 -15 2 -15 -3 0 -4 -19 -14 -42 -22 -58 -19 -172 -82 -172 -94 1 -10 -56
-65 -68 -65 -4 0 -13 -6 -20 -12 -22 -21 -179 -97 -235 -113 -55 -16 -91 -52
-131 -130 -24 -47 -68 -207 -77 -283 -4 -29 -22 -87 -42 -128 -20 -42 -37 -94
-38 -120 -2 -25 -9 -51 -15 -59 -8 -10 -10 -75 -6 -235 6 -215 9 -247 56 -450
12 -52 33 -104 48 -115 7 -6 15 -24 18 -40 3 -17 9 -46 14 -65 6 -19 10 -49
10 -66 0 -16 4 -34 9 -40 8 -8 29 -46 109 -199 20 -40 48 -75 54 -70 2 3 15
-27 27 -65 13 -39 27 -72 31 -75 4 -3 27 -37 50 -77 24 -40 46 -75 49 -78 33
-28 121 -190 121 -223 0 -8 7 -20 15 -27 8 -7 13 -15 11 -19 -2 -3 5 -19 15
-36 11 -16 24 -42 30 -57 6 -16 15 -28 21 -28 5 0 6 -4 3 -10 -3 -5 -2 -10 3
-10 5 0 18 -17 27 -37 18 -40 93 -146 107 -151 4 -2 8 -10 8 -18 0 -8 7 -14
15 -14 16 0 59 -60 98 -141 31 -62 72 -105 130 -135 21 -10 48 -29 59 -41 12
-13 27 -23 34 -23 7 0 21 -11 32 -25 11 -14 26 -25 33 -25 7 0 29 -17 48 -38
20 -20 48 -43 63 -49 17 -8 26 -18 22 -26 -3 -10 14 -25 51 -46 32 -18 59 -30
62 -27 3 3 24 -8 46 -24 23 -17 46 -30 53 -30 6 0 17 -7 24 -14 15 -19 92 -57
122 -60 27 -3 87 -36 220 -123 54 -35 102 -63 108 -63 5 0 10 -4 10 -10 0 -5
8 -10 18 -11 9 0 37 -16 62 -35 25 -19 56 -39 70 -45 73 -33 94 -46 107 -67 9
-12 20 -22 27 -22 6 0 49 -34 95 -76 45 -41 94 -79 107 -84 14 -6 24 -18 24
-30 0 -11 7 -20 15 -20 8 0 15 -3 15 -7 0 -5 18 -19 40 -33 23 -13 40 -32 40
-42 0 -11 7 -18 20 -18 16 0 20 -7 21 -32 0 -18 3 -27 6 -20 2 6 9 12 14 12 6
0 8 -4 4 -9 -7 -12 63 -61 87 -61 9 0 20 -4 23 -10 3 -5 17 -10 30 -10 14 0
51 -14 83 -30 33 -17 64 -30 70 -30 19 0 95 -53 146 -100 26 -25 52 -46 57
-48 5 -2 9 -10 9 -17 0 -8 8 -16 18 -19 35 -11 92 -72 94 -101 3 -33 48 -69
97 -79 39 -7 163 13 155 26 -3 4 5 12 18 17 13 5 33 19 46 30 12 12 22 20 22
18 0 -8 163 147 203 192 15 17 34 31 42 31 8 0 46 32 86 70 39 39 69 70 66 70
-3 0 22 27 56 60 34 33 66 60 70 60 5 0 5 4 2 10 -3 5 0 10 8 10 8 0 27 6 42
14 22 11 24 15 9 18 -16 3 -16 4 1 18 11 9 16 10 11 3 -4 -7 -2 -13 3 -13 6 0
11 4 11 10 0 5 13 22 30 36 16 15 27 30 25 34 -7 11 20 31 30 22 5 -4 5 -1 1
6 -5 9 -1 15 13 19 11 3 18 9 15 14 -3 5 2 9 11 9 9 0 14 4 11 9 -8 12 77 101
97 101 10 0 20 7 23 15 3 8 14 17 25 20 10 4 19 13 19 22 0 9 6 13 15 9 8 -3
20 3 27 12 16 21 74 62 88 62 5 0 10 4 10 9 0 5 16 24 36 43 20 18 50 48 67
66 17 17 36 32 44 32 7 0 13 6 13 14 0 7 18 26 40 41 22 15 40 34 40 42 0 14
7 24 53 75 15 17 27 36 27 42 0 6 5 4 10 -4 8 -13 10 -13 10 1 0 9 22 38 50
65 27 27 50 55 50 63 0 8 2 12 5 9 7 -7 75 56 75 69 0 6 19 28 42 49 23 20 49
51 58 68 8 17 24 41 35 54 76 89 186 202 197 202 4 0 8 9 8 20 0 11 4 20 10
20 5 0 17 16 26 35 9 19 20 35 24 35 4 0 13 18 20 40 10 29 16 37 22 28 6 -9
7 -5 3 9 -4 15 1 29 14 42 12 12 21 25 21 30 0 4 18 29 40 54 22 25 40 50 40
56 0 6 7 11 15 11 8 0 15 7 15 15 0 19 103 165 123 173 4 2 7 15 7 29 0 23 40
90 83 138 10 11 16 28 13 39 -3 10 3 30 12 44 9 14 17 30 17 36 2 22 17 72 33
106 9 19 16 48 15 65 -1 19 1 25 6 16 7 -11 12 -8 22 10 7 13 14 30 15 37 1 8
9 21 17 30 9 10 18 29 22 44 4 14 15 34 24 42 13 12 17 30 16 76 -1 33 2 60 7
60 5 0 6 5 3 10 -3 6 -1 10 5 10 7 0 10 6 7 14 -3 8 1 17 9 20 9 3 13 10 10
14 -4 8 16 59 44 114 5 9 7 54 3 100 -8 114 -4 181 10 191 9 7 9 10 0 14 -9 3
-11 21 -7 62 5 41 2 66 -8 87 -18 34 -27 103 -34 264 -3 63 -9 119 -13 125 -5
5 -12 28 -16 50 -3 21 -15 56 -25 76 -11 21 -19 56 -18 81 1 92 -60 235 -155
357 -23 29 -47 63 -54 75 -21 36 -216 227 -248 242 -16 8 -48 25 -70 39 -22
13 -47 27 -55 30 -16 7 -172 86 -302 152 -46 23 -91 43 -101 43 -9 0 -25 4
-35 9 -9 6 -41 17 -69 26 -29 9 -53 21 -53 26 0 5 -8 9 -19 9 -10 0 -34 6 -52
14 -46 18 -126 29 -133 18 -7 -12 -96 -7 -105 5 -3 4 -31 9 -61 10 -30 2 -65
8 -78 15 -17 9 -25 9 -30 1 -7 -10 -25 -10 -112 2 -19 2 -46 0 -60 -6z m572
-465 c21 -4 43 -13 49 -20 6 -8 17 -14 25 -14 7 0 25 -11 40 -25 21 -20 27
-34 27 -68 0 -43 -27 -142 -46 -165 -11 -14 -14 -29 -22 -97 -5 -52 -19 -120
-45 -225 -12 -47 -24 -97 -27 -112 -3 -16 -12 -28 -19 -28 -8 0 -14 -10 -14
-24 0 -14 -4 -28 -10 -31 -5 -3 -9 -29 -8 -58 0 -29 -5 -72 -11 -97 -7 -25
-13 -52 -15 -60 -2 -8 -5 -22 -8 -30 -23 -67 -28 -90 -28 -117 0 -58 -46 -257
-60 -261 -5 -2 -10 -19 -10 -37 0 -19 -4 -36 -9 -39 -4 -3 -11 -31 -14 -63
-11 -103 -17 -135 -32 -162 -8 -14 -19 -46 -25 -70 -6 -23 -14 -40 -18 -36 -6
6 -19 -31 -45 -136 -7 -25 -17 -52 -23 -60 -16 -20 -24 -59 -12 -59 5 0 2 -7
-6 -16 -9 -8 -16 -23 -16 -33 0 -10 -7 -32 -16 -50 -9 -17 -13 -38 -10 -46 3
-8 1 -15 -4 -15 -6 0 -10 -10 -10 -22 0 -13 -14 -50 -30 -83 -16 -33 -30 -67
-30 -76 0 -8 -4 -19 -9 -25 -5 -5 -16 -47 -25 -94 -10 -51 -24 -90 -33 -97
-10 -8 -12 -13 -5 -13 9 0 10 -5 2 -19 -5 -11 -10 -31 -10 -45 0 -37 -39 -136
-57 -143 -10 -4 -13 -14 -8 -32 4 -19 3 -22 -4 -12 -10 16 -11 15 -27 -74 -5
-22 -7 -53 -6 -70 2 -24 1 -27 -8 -15 -9 12 -10 9 -6 -13 7 -29 -9 -71 -23
-62 -12 7 -21 -30 -21 -82 0 -24 -4 -43 -10 -43 -5 0 -12 -16 -16 -35 -4 -21
-13 -37 -25 -40 -11 -4 -17 -10 -14 -14 2 -5 -4 -16 -15 -26 -28 -25 -100
-181 -100 -215 0 -28 -30 -91 -57 -118 -7 -7 -13 -19 -13 -27 0 -7 -19 -28
-42 -47 -24 -18 -56 -44 -71 -58 -16 -14 -31 -24 -33 -22 -3 1 -23 -16 -44
-39 -22 -22 -46 -42 -54 -43 -7 -1 -20 -8 -28 -16 -47 -46 -89 -80 -98 -80 -6
0 -9 -4 -5 -9 7 -12 -43 -51 -65 -51 -10 0 -20 -6 -23 -14 -5 -13 -12 -13 -46
1 -38 15 -55 33 -31 33 6 0 10 7 10 15 0 8 3 15 8 15 10 0 31 48 24 55 -10 10
-11 35 -1 41 5 3 9 21 9 41 0 24 7 42 22 54 11 11 18 22 15 25 -3 4 0 16 8 28
8 11 15 31 15 43 0 13 3 23 8 23 12 0 32 52 43 117 6 34 17 67 25 74 8 6 14
15 14 20 0 26 44 119 56 119 17 0 19 17 2 23 -10 3 -10 7 -2 18 6 8 14 27 18
44 4 16 16 35 27 43 10 7 19 20 19 29 0 46 67 206 82 197 7 -5 9 2 4 20 -4 15
-2 26 3 26 6 0 8 7 4 15 -3 9 2 22 13 30 15 12 16 16 5 24 -9 6 -10 11 -2 15
6 4 11 17 11 29 0 18 2 19 10 7 8 -13 10 -13 11 3 3 30 4 35 12 43 4 4 7 16 7
26 0 10 9 27 19 37 11 11 24 45 30 77 6 31 16 62 21 69 6 7 26 64 44 126 41
139 53 169 64 169 5 0 12 18 16 40 3 22 11 40 17 40 5 0 7 4 4 10 -3 5 1 19 9
31 8 12 12 27 10 34 -3 6 4 35 16 64 11 28 20 61 20 71 0 11 3 20 8 20 8 0 32
71 32 98 0 10 6 27 14 37 7 10 11 27 8 37 -2 10 1 18 7 18 6 0 11 11 11 24 0
14 4 27 9 30 5 3 7 15 4 26 -4 14 -1 20 8 18 15 -3 26 36 28 100 1 30 5 42 16
42 11 0 15 9 13 28 -1 15 4 37 10 49 7 12 9 29 6 37 -3 9 -1 16 6 16 7 0 9 8
5 20 -4 12 1 27 13 41 11 11 23 37 27 57 4 20 20 61 36 92 16 30 29 63 29 73
0 9 5 17 10 17 6 0 10 11 10 24 0 13 5 26 11 28 9 3 9 10 -1 27 -11 21 -9 26
14 48 26 24 35 40 16 28 -5 -3 -10 3 -10 15 0 11 6 23 14 26 8 3 14 18 14 34
-1 16 4 35 10 43 6 7 18 40 27 73 8 32 20 61 25 62 6 2 10 17 10 33 0 16 4 29
9 29 4 0 11 21 14 46 2 26 9 49 14 53 5 3 10 15 10 26 1 20 18 75 34 107 5 10
9 24 9 32 0 7 7 27 15 42 8 16 15 46 15 66 0 20 4 48 9 62 7 17 7 26 -1 28
-11 4 20 159 43 216 11 27 65 54 94 47 11 -3 37 -8 57 -11z m-449 -69 c34 -32
34 -49 2 -81 -26 -26 -33 -40 -14 -28 8 4 9 -1 4 -16 -4 -14 -3 -25 5 -30 9
-5 8 -11 -2 -21 -15 -16 -48 -111 -48 -140 0 -10 -4 -21 -10 -24 -5 -3 -10
-15 -10 -26 0 -10 -3 -19 -7 -19 -5 0 -9 -26 -11 -58 -2 -38 -8 -61 -19 -69
-8 -7 -17 -25 -19 -41 -5 -41 -22 -82 -34 -82 -6 0 -9 -8 -6 -18 4 -10 -1 -40
-9 -68 -8 -27 -15 -67 -15 -90 0 -27 -8 -53 -23 -76 -13 -19 -27 -53 -30 -75
-4 -23 -16 -62 -27 -88 -11 -26 -20 -55 -20 -66 0 -11 -9 -32 -20 -47 -11 -15
-20 -43 -21 -62 -1 -19 -7 -48 -15 -65 -18 -42 -28 -68 -29 -80 -5 -43 -18
-86 -28 -92 -19 -12 -37 -50 -37 -78 0 -14 -4 -33 -9 -43 -12 -24 -75 -236
-76 -257 0 -5 -4 -15 -8 -22 -4 -6 -4 -18 -1 -27 3 -9 1 -16 -5 -16 -6 0 -11
-9 -11 -21 0 -11 -13 -50 -28 -87 -32 -75 -45 -121 -62 -204 -6 -32 -16 -60
-21 -63 -15 -10 -48 -85 -37 -85 7 0 7 -4 1 -12 -6 -7 -16 -30 -22 -50 -7 -21
-19 -38 -27 -38 -13 0 -18 -11 -15 -37 2 -11 -10 -41 -60 -151 -10 -23 -19
-60 -19 -81 0 -21 -6 -44 -14 -51 -8 -6 -20 -28 -27 -48 -6 -20 -31 -79 -55
-130 -24 -51 -44 -99 -44 -105 0 -7 -5 -18 -12 -25 -7 -7 -8 -12 -3 -12 4 0
-2 -8 -13 -19 -12 -10 -19 -21 -16 -24 3 -3 -1 -16 -10 -29 -9 -12 -16 -35
-16 -50 0 -22 -5 -28 -21 -28 -16 0 -19 -4 -14 -20 4 -11 2 -20 -4 -20 -6 0
-11 -19 -11 -43 0 -23 -9 -60 -20 -82 -11 -22 -20 -46 -20 -53 0 -8 -6 -12
-15 -8 -9 3 -15 0 -15 -10 0 -8 5 -12 10 -9 6 3 10 4 10 2 0 -12 -47 -105 -67
-133 -18 -26 -20 -33 -9 -37 19 -7 9 -45 -15 -60 -11 -7 -19 -17 -19 -24 0 -7
-9 -18 -20 -25 -11 -7 -20 -17 -20 -22 0 -5 -8 -14 -17 -21 -13 -10 -15 -16
-6 -27 8 -9 9 -19 3 -28 -8 -13 -10 -12 -10 3 0 25 -13 21 -33 -10 l-17 -28 4
45 c2 24 9 46 16 48 7 3 7 8 2 15 -13 17 -2 87 13 87 15 0 26 45 29 110 0 25
5 51 9 58 5 6 6 16 2 22 -11 17 7 58 28 65 14 4 17 8 9 12 -10 4 -10 8 -1 19
6 8 8 14 3 14 -5 0 2 7 15 16 16 12 22 23 18 41 -3 15 1 27 8 30 8 2 16 31 20
66 4 34 11 67 15 72 5 6 11 37 14 70 2 33 5 63 5 68 1 4 7 7 15 7 8 0 18 10
21 23 10 34 39 87 47 87 5 0 6 11 2 24 -3 15 1 29 11 40 12 11 15 25 11 43 -6
20 -4 24 8 20 17 -7 23 18 7 27 -11 7 16 160 29 164 5 2 10 10 10 18 0 8 7 14
15 14 8 0 15 3 15 6 0 3 5 38 11 77 12 82 40 167 65 196 10 11 27 57 40 103
12 46 27 96 33 111 6 16 11 39 11 53 0 13 5 24 10 24 6 0 10 12 10 26 0 14 4
34 10 44 5 10 11 34 12 53 2 19 6 33 11 30 4 -2 5 9 2 26 -3 19 0 35 10 45 17
16 21 41 5 31 -13 -8 0 28 13 36 14 10 28 112 18 122 -10 10 -8 20 21 85 10
23 22 42 27 42 8 0 18 42 26 110 8 63 25 119 49 167 14 29 26 60 26 68 0 9 9
33 19 53 22 42 41 118 41 163 0 16 3 28 8 26 4 -3 8 12 9 33 2 21 16 61 33 90
16 28 30 57 30 63 0 7 4 17 8 23 10 10 33 113 38 160 1 18 7 41 14 53 6 12 8
26 5 31 -4 6 1 25 10 42 9 20 13 43 10 60 -4 17 -2 28 4 28 6 0 10 12 9 28 -1
15 4 37 11 50 6 12 10 26 7 30 -3 4 6 26 20 47 13 22 27 48 30 58 4 9 18 20
33 23 32 7 74 26 82 37 7 10 99 55 114 56 6 1 23 -10 38 -24z m922 -203 c17
-15 39 -31 50 -36 16 -6 17 -9 5 -16 -11 -7 -11 -10 -2 -10 20 0 122 -102 122
-122 0 -10 5 -18 10 -18 6 0 10 -13 10 -28 0 -20 -13 -41 -45 -72 -25 -24 -45
-53 -45 -63 0 -10 -6 -33 -14 -50 -18 -42 -36 -118 -36 -156 0 -16 -4 -32 -9
-35 -5 -4 -9 -30 -9 -59 0 -28 -7 -69 -16 -89 -9 -21 -15 -41 -14 -45 0 -5 -1
-15 -5 -23 -10 -26 -39 -154 -42 -183 -1 -15 -5 -30 -8 -34 -4 -3 -7 -12 -7
-19 0 -7 -5 -25 -12 -41 -6 -15 -12 -41 -13 -56 -2 -15 -10 -36 -19 -46 -9
-10 -16 -29 -16 -44 0 -31 -19 -77 -33 -77 -5 0 -7 -13 -4 -30 4 -19 2 -32 -7
-37 -7 -4 -19 -25 -25 -45 -7 -21 -16 -38 -21 -38 -8 0 -20 -43 -26 -90 -2
-14 -12 -32 -22 -40 -20 -17 -34 -68 -38 -140 -3 -58 -1 -53 -24 -78 -12 -12
-20 -28 -19 -35 2 -14 -6 -40 -26 -77 -7 -14 -12 -47 -11 -73 2 -35 -5 -62
-26 -104 -15 -31 -28 -65 -28 -76 0 -11 -8 -25 -17 -32 -13 -10 -18 -29 -19
-77 -1 -34 -5 -72 -10 -82 -5 -14 -4 -17 4 -12 7 4 12 3 12 -3 0 -11 -24 -76
-46 -128 -8 -17 -14 -37 -14 -45 0 -8 -4 -18 -8 -24 -5 -5 -17 -31 -27 -59
-21 -57 -55 -102 -138 -185 -33 -31 -64 -68 -71 -81 -6 -13 -26 -31 -43 -40
-18 -9 -29 -20 -25 -24 4 -5 2 -5 -5 -1 -7 4 -25 0 -41 -8 -27 -14 -67 -7 -44
8 6 4 9 13 5 21 -3 8 0 15 7 15 6 0 8 4 5 10 -8 13 13 90 25 90 5 0 7 7 3 16
-5 13 -7 13 -14 2 -7 -10 -9 -9 -9 4 0 9 6 21 13 25 17 11 37 49 37 73 0 19
19 85 42 143 7 17 16 26 24 23 8 -3 14 -1 14 4 0 6 -7 10 -16 10 -13 0 -14 3
-5 14 6 7 14 38 16 67 7 75 15 109 25 109 5 0 14 19 21 43 6 23 18 59 25 80 8
20 14 51 14 67 0 16 5 32 10 35 6 3 7 17 4 31 -4 17 -1 26 10 30 13 5 15 14
11 35 -5 22 -3 29 9 29 11 0 16 10 16 33 0 19 9 60 20 93 11 32 20 65 20 72 0
7 7 20 15 28 8 8 12 21 9 28 -3 8 6 39 20 69 13 30 28 72 32 93 4 21 17 57 29
80 12 23 25 65 28 94 4 28 11 58 18 66 6 8 9 21 5 29 -3 8 1 20 8 27 7 7 11
20 9 29 -3 9 3 29 12 43 10 14 14 26 11 26 -4 0 -2 8 3 18 5 9 12 39 15 66 2
27 9 53 15 59 5 5 7 16 4 23 -3 8 0 20 6 28 6 7 9 20 5 29 -3 8 -1 18 4 21 6
3 8 15 5 27 -3 12 0 24 6 29 8 4 13 33 13 74 0 43 7 80 18 104 10 20 16 40 13
44 -2 5 1 8 8 8 10 0 10 3 1 12 -9 9 -9 15 0 25 13 16 30 94 29 138 0 20 2 26
8 17 12 -19 21 8 21 61 1 23 8 60 17 82 9 23 17 77 19 127 4 148 27 196 104
221 31 11 46 6 75 -21z m-1575 -124 c27 -19 30 -28 30 -74 0 -32 -5 -58 -13
-66 -8 -7 -12 -20 -9 -30 2 -9 -3 -25 -13 -34 -9 -9 -14 -23 -11 -30 3 -8 -1
-14 -9 -14 -10 0 -15 -10 -15 -31 0 -16 -3 -28 -8 -25 -4 2 -8 -14 -9 -37 -1
-60 -14 -110 -30 -122 -7 -6 -16 -30 -19 -55 -3 -25 -11 -54 -19 -66 -7 -11
-18 -47 -24 -79 -6 -31 -18 -71 -26 -88 -16 -31 -55 -208 -55 -246 0 -12 -6
-21 -12 -21 -10 0 -51 -102 -50 -124 0 -3 -6 -29 -14 -58 -8 -29 -17 -75 -20
-103 -4 -27 -12 -60 -20 -72 -8 -12 -14 -29 -14 -38 0 -8 -4 -15 -8 -15 -4 0
-9 -31 -10 -68 -2 -67 -21 -134 -42 -147 -6 -4 -10 -21 -9 -38 1 -18 -6 -52
-16 -77 -9 -25 -19 -58 -22 -75 -3 -16 -10 -34 -17 -40 -6 -5 -13 -19 -14 -30
-2 -11 -8 -21 -13 -23 -5 -2 -9 -17 -9 -33 0 -18 -4 -28 -10 -24 -6 4 -10 -10
-10 -34 0 -22 -4 -43 -10 -46 -5 -3 -10 -15 -10 -26 0 -10 -4 -28 -10 -39 -5
-11 -14 -29 -20 -40 -5 -11 -10 -33 -10 -50 0 -21 -5 -30 -16 -30 -12 0 -15
-6 -11 -22 4 -13 -1 -31 -14 -46 -10 -14 -19 -40 -19 -58 0 -18 -4 -36 -10
-39 -5 -3 -10 -17 -10 -30 0 -13 -6 -28 -14 -32 -18 -10 -57 -124 -63 -183 -2
-25 -8 -49 -13 -54 -4 -4 -6 -14 -4 -21 3 -7 1 -16 -5 -20 -6 -3 -11 -14 -11
-24 0 -10 -14 -33 -31 -50 -23 -24 -29 -39 -25 -56 3 -13 2 -26 -3 -29 -5 -4
-12 -25 -16 -49 -8 -55 -24 -87 -44 -87 -12 0 -13 -2 -3 -8 12 -8 12 -45 -1
-58 -4 -4 -7 -16 -7 -26 0 -10 -5 -18 -11 -18 -6 0 -9 -6 -6 -14 3 -8 -1 -22
-8 -33 -8 -10 -15 -32 -15 -49 0 -17 -7 -37 -15 -44 -8 -7 -15 -20 -15 -30 0
-9 -9 -25 -19 -34 -11 -10 -25 -31 -31 -47 -7 -16 -16 -29 -21 -29 -4 0 -13
-24 -19 -53 -8 -39 -21 -63 -46 -90 -33 -34 -64 -51 -49 -27 3 6 -3 10 -14 10
-10 0 -21 3 -23 8 -1 4 -24 18 -51 32 -42 22 -49 31 -64 77 -13 40 -20 50 -29
42 -10 -8 -10 -2 -2 28 23 89 32 113 40 113 4 0 8 15 8 34 0 22 9 45 24 63 26
30 66 140 67 183 0 14 -5 47 -10 74 -9 39 -8 52 1 58 13 7 15 13 17 59 0 14
10 35 21 47 11 12 20 30 20 42 0 11 9 28 20 37 13 11 16 21 10 28 -6 8 -1 23
15 45 14 19 25 39 25 46 0 7 6 19 13 26 12 12 33 51 94 172 14 27 27 73 30
102 5 46 8 51 27 47 13 -3 17 -2 9 4 -8 6 -5 21 12 58 30 64 55 146 55 180 0
17 11 38 31 56 20 19 29 35 25 45 -4 9 -2 22 3 28 19 22 81 155 81 173 0 10 7
27 15 37 8 11 15 30 15 41 0 12 9 30 20 40 11 10 19 27 18 39 0 11 5 35 12 51
7 17 12 38 11 49 -2 10 2 15 8 12 6 -4 13 8 16 28 7 36 39 105 68 147 10 13
17 33 17 45 0 12 6 24 14 27 8 3 22 26 31 51 10 25 22 46 26 46 5 0 9 7 9 16
0 9 11 38 24 65 26 50 50 139 61 221 3 26 13 54 21 62 8 8 14 21 14 28 0 7 12
46 25 87 14 41 28 91 31 110 4 20 12 41 19 47 6 7 13 36 14 65 1 29 5 56 10
59 5 3 12 25 16 50 4 24 11 51 15 60 4 8 20 42 35 74 16 33 44 77 63 98 19 21
31 38 28 38 -4 0 -4 5 -1 10 10 16 34 12 65 -12z m-2395 2 c15 -6 29 -19 32
-30 3 -11 9 -20 12 -20 12 0 0 -64 -13 -75 -7 -5 -16 -28 -21 -50 -4 -22 -9
-47 -11 -55 -2 -8 -6 -29 -10 -47 -3 -18 -12 -38 -20 -44 -8 -6 -14 -24 -14
-39 0 -15 -6 -33 -14 -39 -13 -11 -33 -83 -24 -88 1 -1 -4 -8 -13 -15 -17 -13
-34 -63 -30 -87 1 -7 -2 -10 -8 -6 -7 4 -11 -4 -11 -21 0 -31 -16 -86 -36
-126 -8 -15 -13 -30 -12 -35 1 -4 -3 -18 -10 -30 -6 -12 -9 -28 -6 -37 3 -8
-1 -25 -10 -38 -9 -12 -16 -33 -16 -46 0 -13 -8 -37 -17 -55 -9 -18 -17 -36
-18 -42 -3 -31 -20 -73 -36 -91 -11 -11 -21 -35 -23 -53 -2 -18 -9 -38 -15
-44 -6 -6 -11 -23 -11 -37 0 -14 -6 -34 -14 -45 -7 -11 -17 -36 -21 -55 -12
-55 -53 -181 -64 -193 -5 -7 -14 -32 -21 -57 -7 -25 -16 -54 -20 -65 -20 -52
-50 -162 -50 -181 0 -12 -7 -27 -16 -35 -8 -7 -13 -20 -11 -29 4 -14 -1 -15
-41 -5 -38 10 -48 18 -72 62 -26 46 -27 54 -18 104 5 30 15 59 23 64 16 13 23
55 12 73 -5 7 -3 12 5 12 9 1 8 4 -3 10 -9 5 -22 23 -29 40 -7 16 -16 30 -21
30 -12 0 -12 57 0 64 4 3 11 22 14 42 4 21 19 51 34 67 15 17 22 27 16 23 -7
-4 -13 -3 -13 2 0 6 6 12 13 15 7 2 21 31 31 63 10 32 27 75 37 94 11 19 19
47 19 62 0 18 5 28 15 28 9 0 12 6 9 15 -4 8 0 25 8 38 8 12 25 49 38 82 13
33 27 65 32 72 22 28 48 89 48 110 0 13 5 23 11 23 7 0 9 9 6 22 -7 24 15 73
37 81 8 3 18 22 22 41 3 20 10 36 15 36 5 0 9 7 9 15 0 23 41 95 54 95 7 0 17
25 23 58 15 79 93 285 113 297 6 3 10 24 10 46 l0 39 44 0 c25 0 57 -5 71 -10z
m-775 -79 c0 -6 -5 -13 -10 -16 -6 -4 -8 -10 -5 -14 2 -4 -6 -23 -20 -41 -13
-18 -32 -54 -41 -81 -10 -27 -22 -49 -27 -49 -4 0 -5 -4 -2 -10 7 -11 -21 -70
-33 -70 -4 0 -16 -28 -26 -62 -10 -35 -29 -78 -43 -96 -14 -18 -26 -39 -27
-45 -1 -7 -11 -28 -23 -47 -34 -56 -71 -141 -84 -192 -6 -27 -15 -48 -20 -48
-14 0 -41 48 -34 60 4 6 2 16 -3 23 -20 26 -19 161 2 221 8 22 17 53 20 68 4
16 12 27 18 25 7 -1 13 3 13 8 2 22 17 55 24 55 5 0 14 14 21 30 7 17 16 30
20 30 4 0 11 8 14 18 12 33 34 64 61 85 15 12 33 28 39 36 6 7 25 28 42 45 17
17 37 41 43 54 9 16 21 22 46 22 19 0 35 -4 35 -9z m318 -121 c-11 -22 -23
-40 -27 -40 -4 0 -14 -19 -21 -42 -8 -24 -20 -47 -27 -51 -7 -4 -13 -26 -13
-48 0 -21 -9 -61 -21 -87 -12 -26 -28 -63 -37 -82 -8 -19 -19 -43 -23 -52 -5
-10 -9 -23 -9 -29 0 -6 -8 -23 -19 -37 -10 -15 -21 -39 -25 -54 -3 -15 -13
-33 -21 -41 -8 -8 -12 -17 -9 -20 3 -2 -7 -25 -21 -50 -14 -25 -25 -53 -25
-61 0 -9 -5 -16 -11 -16 -6 0 -8 -8 -5 -18 4 -12 -1 -26 -14 -37 -11 -10 -20
-26 -20 -35 0 -32 -40 -175 -60 -213 -11 -20 -20 -46 -20 -57 0 -25 -41 -89
-58 -90 -7 0 -26 7 -42 15 -43 22 -40 64 11 165 33 66 43 96 47 151 2 38 8 69
12 69 5 0 6 9 3 21 -3 12 -2 24 3 28 13 8 59 107 73 156 21 69 33 95 41 90 5
-3 14 11 21 30 7 19 17 35 21 35 4 0 8 6 8 14 0 8 20 48 44 88 24 41 47 84 50
96 4 12 12 22 17 22 5 0 9 7 9 15 0 8 5 15 10 15 6 0 10 7 10 15 0 32 50 111
84 134 20 13 36 27 36 32 0 5 11 9 24 9 l23 0 -19 -40z m861 -51 c24 -16 48
-45 55 -62 18 -43 26 -116 15 -123 -5 -3 -9 -14 -9 -26 0 -11 -9 -31 -19 -45
-11 -13 -23 -45 -27 -71 -3 -26 -19 -69 -34 -97 -22 -39 -31 -74 -40 -154 -6
-58 -18 -121 -25 -140 -16 -44 -28 -106 -26 -146 0 -16 -3 -32 -7 -35 -8 -5
-56 -163 -75 -245 -6 -27 -16 -53 -22 -57 -5 -4 -11 -18 -12 -30 -1 -13 -13
-58 -27 -102 -14 -43 -26 -89 -26 -102 0 -12 -4 -26 -10 -29 -5 -3 -10 -15
-10 -26 0 -11 -7 -30 -14 -42 -8 -12 -20 -44 -26 -70 -6 -27 -17 -56 -25 -64
-8 -8 -15 -20 -15 -28 0 -7 -7 -15 -15 -19 -8 -3 -15 -14 -15 -25 0 -11 -5
-23 -10 -26 -6 -4 -8 -10 -5 -15 3 -5 0 -21 -5 -36 -6 -14 -13 -50 -16 -78 -3
-28 -10 -56 -16 -63 -5 -7 -7 -17 -3 -23 3 -5 2 -10 -4 -10 -5 0 -15 -26 -22
-57 -7 -32 -18 -65 -25 -73 -6 -8 -20 -48 -29 -88 -18 -75 -37 -98 -71 -85
-12 4 -15 3 -10 -5 4 -7 1 -12 -8 -12 -9 0 -16 4 -16 10 0 5 -10 19 -23 32
-12 13 -42 52 -65 88 -41 61 -43 68 -40 125 2 33 12 75 21 94 12 24 17 58 17
113 0 50 5 89 15 107 8 16 11 31 8 35 -4 3 -2 6 4 6 6 0 13 13 16 29 3 16 12
35 19 42 8 8 15 27 16 42 1 16 9 35 17 44 9 8 13 23 10 33 -3 11 0 20 10 24 8
3 15 17 15 33 0 16 7 39 16 51 8 12 13 30 9 41 -3 10 1 31 9 46 8 16 13 32 10
36 -2 4 5 25 16 47 18 35 40 129 44 187 0 11 7 26 14 33 6 7 12 23 12 35 0 25
13 49 26 48 5 -1 17 24 27 54 10 30 23 55 28 55 5 0 9 5 9 11 0 5 -4 7 -10 4
-5 -3 -10 -2 -10 4 0 5 4 11 10 13 5 2 14 28 20 58 6 30 15 59 20 64 6 6 10
20 10 33 0 13 4 23 9 23 6 0 9 12 7 28 -1 15 4 32 11 37 7 6 18 44 25 85 6 41
16 80 22 85 6 6 20 29 31 52 11 24 25 43 31 43 6 0 22 43 35 95 16 66 27 94
35 91 7 -3 11 0 8 7 -8 23 22 92 47 104 34 18 41 17 88 -18z m3961 -191 c28
-53 29 -63 30 -221 1 -84 -3 -134 -11 -143 -6 -7 -9 -20 -6 -28 3 -8 3 -17 -1
-20 -3 -4 -7 -14 -8 -24 -6 -37 -26 -118 -34 -137 -12 -27 -18 -52 -25 -105
-4 -24 -13 -56 -21 -72 -8 -15 -14 -34 -14 -42 0 -8 -4 -16 -10 -18 -5 -1 -11
-17 -13 -35 -2 -17 -9 -38 -15 -46 -7 -8 -9 -16 -6 -19 3 -3 -2 -23 -10 -43
-9 -21 -16 -46 -16 -57 0 -31 -93 -217 -112 -223 -9 -3 -19 -19 -23 -35 -3
-16 -17 -36 -30 -44 -14 -9 -32 -30 -40 -46 -9 -17 -21 -30 -28 -30 -7 0 -29
-13 -48 -30 -20 -16 -39 -26 -43 -23 -10 10 -7 43 3 43 6 0 8 24 6 55 -3 30 0
57 5 60 6 3 10 13 10 22 0 19 60 147 71 151 4 2 5 10 2 18 -3 8 2 32 11 54 8
22 13 46 10 55 -3 8 6 35 20 59 14 25 26 52 26 60 0 9 4 16 8 16 11 0 47 110
44 133 -1 9 3 17 8 17 6 0 10 12 10 26 0 16 4 23 11 18 8 -4 9 0 4 15 -4 12
-2 21 4 21 6 0 11 11 11 25 0 14 5 25 11 25 6 0 8 8 5 18 -10 29 10 112 29
126 11 8 16 20 12 29 -3 8 1 21 8 27 9 8 13 21 9 35 -3 13 -1 26 5 29 6 4 11
21 11 37 0 75 75 309 99 309 5 0 19 -19 31 -42z m-2535 -72 c20 -14 33 -106
15 -106 -6 0 -10 -14 -10 -32 0 -19 -9 -42 -22 -56 -13 -14 -17 -22 -10 -18
11 7 11 4 0 -15 -7 -13 -19 -28 -25 -32 -7 -4 -13 -24 -13 -42 0 -21 -8 -43
-18 -53 -10 -10 -19 -25 -20 -33 0 -8 -5 -32 -11 -53 -5 -22 -8 -43 -5 -48 3
-4 -1 -6 -8 -3 -14 5 -48 -58 -48 -88 0 -9 -4 -18 -9 -21 -4 -3 -19 -34 -31
-68 -26 -69 -48 -116 -68 -136 -7 -8 -10 -18 -7 -23 11 -16 -18 -90 -43 -109
-16 -13 -22 -25 -18 -38 4 -13 1 -22 -9 -26 -8 -3 -15 -17 -15 -34 0 -15 -4
-32 -9 -37 -10 -12 -51 -133 -51 -154 0 -8 -9 -24 -20 -36 -18 -19 -33 -67
-47 -152 -3 -20 -12 -35 -24 -38 -12 -4 -19 -16 -19 -30 0 -13 -4 -26 -9 -29
-4 -3 -14 -26 -21 -51 -7 -25 -17 -45 -21 -45 -5 0 -9 -13 -9 -28 0 -16 -9
-38 -20 -50 -11 -12 -20 -28 -20 -36 0 -8 -6 -21 -13 -28 -25 -26 -79 -166
-70 -180 2 -5 -1 -7 -8 -6 -7 2 -13 -8 -14 -22 -2 -31 -22 -70 -36 -70 -6 0
-7 -5 -4 -11 4 -5 -1 -19 -11 -30 -10 -11 -12 -19 -6 -19 7 0 12 -4 12 -10 0
-5 -6 -10 -13 -10 -7 0 -27 -28 -45 -62 -17 -35 -38 -74 -46 -88 -7 -14 -24
-49 -37 -78 -13 -30 -37 -65 -54 -80 -16 -14 -29 -28 -28 -32 1 -4 -7 -16 -17
-25 -11 -10 -20 -24 -20 -30 0 -7 -7 -18 -15 -25 -8 -7 -15 -21 -15 -32 0 -10
-7 -30 -16 -43 -9 -13 -13 -29 -10 -34 10 -15 -26 -90 -46 -96 -27 -9 -66 5
-81 29 -20 30 -37 95 -27 101 20 12 49 97 53 158 3 37 10 73 15 80 12 14 12
13 12 80 0 39 5 60 19 76 10 12 27 51 37 87 9 36 21 67 26 70 4 3 8 14 8 25 0
10 5 19 10 19 6 0 10 11 10 25 0 14 7 36 14 48 9 13 17 56 19 108 4 86 11 114
27 104 11 -7 19 18 22 68 1 21 6 41 10 43 4 3 8 14 8 25 0 10 5 19 10 19 6 0
10 8 10 19 0 10 6 24 14 30 8 7 20 35 26 64 7 29 20 63 29 77 10 14 25 60 35
102 10 42 24 79 31 82 7 2 15 21 19 40 4 20 12 36 18 36 6 0 8 10 4 25 -4 15
-2 25 4 25 7 0 9 8 5 19 -3 11 3 33 14 52 11 19 23 51 26 72 4 20 11 37 16 37
5 0 9 16 9 36 0 20 9 68 21 107 24 83 70 137 116 137 16 0 38 6 50 13 12 6 43
23 70 37 26 14 54 30 61 35 40 30 99 99 107 124 3 12 10 21 14 21 4 0 8 6 8
13 0 6 10 32 21 56 12 25 22 51 22 59 0 7 13 32 29 56 16 23 41 64 57 91 28
51 81 111 100 114 5 0 19 -5 29 -13z m-991 -64 c57 -43 95 -69 116 -79 24 -11
40 -30 42 -50 4 -30 -13 -113 -23 -113 -5 0 -9 -13 -9 -29 0 -16 -7 -36 -15
-45 -9 -9 -16 -36 -16 -70 -1 -40 -6 -56 -15 -56 -9 0 -14 -11 -14 -29 0 -17
-4 -32 -9 -35 -4 -3 -11 -42 -15 -87 -7 -90 -13 -108 -28 -88 -7 10 -8 8 -3
-7 3 -11 -2 -52 -11 -90 -8 -38 -18 -85 -21 -104 -3 -19 -9 -40 -14 -45 -4 -6
-11 -30 -15 -53 -4 -23 -10 -42 -14 -42 -5 0 -6 -9 -3 -20 3 -11 1 -20 -5 -20
-5 0 -12 -15 -15 -32 -7 -41 -44 -154 -62 -188 -18 -35 -55 -146 -55 -166 0
-26 -32 -121 -51 -154 -5 -8 -14 -26 -20 -40 -6 -14 -20 -41 -30 -61 -11 -20
-19 -50 -19 -67 0 -17 -5 -34 -10 -37 -6 -4 -8 -10 -5 -15 3 -5 -1 -25 -9 -45
-9 -20 -11 -33 -6 -30 6 3 10 -1 10 -9 0 -9 -4 -16 -9 -16 -4 0 -14 -20 -21
-45 -7 -24 -19 -50 -27 -56 -20 -18 -55 -99 -49 -115 3 -8 1 -14 -5 -14 -5 0
-17 -16 -25 -35 -8 -19 -19 -35 -24 -35 -6 0 -10 -5 -10 -10 0 -6 -9 -30 -20
-52 -11 -23 -20 -47 -20 -54 0 -13 -58 -40 -78 -36 -7 2 -21 11 -32 20 -10 9
-30 27 -45 40 -20 16 -27 31 -26 50 1 15 4 79 5 142 4 109 6 119 40 189 21 41
39 88 40 106 2 17 8 40 13 50 7 12 8 28 2 42 -5 15 -4 32 6 50 23 45 45 100
45 111 0 6 6 12 13 15 9 3 9 7 0 17 -9 10 -9 20 3 43 9 16 17 46 18 66 1 20 6
44 10 54 5 10 6 33 3 52 -5 27 -2 37 13 45 11 6 21 26 25 52 4 24 11 48 15 53
4 6 7 26 7 45 0 22 4 34 11 33 7 -2 12 9 12 25 0 34 19 87 48 132 12 19 27 54
33 78 7 23 15 45 20 48 5 3 9 25 9 49 0 43 24 110 46 130 11 10 18 45 31 148
3 28 11 47 18 47 12 0 25 51 25 103 0 15 4 27 9 27 12 0 22 42 27 108 2 30 8
61 13 70 5 10 12 42 15 72 5 43 12 59 34 77 38 32 70 28 126 -15z m-641 -1767
c-3 -9 -8 -14 -10 -11 -3 3 -2 9 2 15 9 16 15 13 8 -4z"/>
<path d="M3041 4704 c0 -11 3 -14 6 -6 3 7 2 16 -1 19 -3 4 -6 -2 -5 -13z"/>
</g>
</svg>
